<svg xmlns="http://www.w3.org/2000/svg" xmlns:xlink="http://www.w3.org/1999/xlink" width="370" height="323" viewBox="0 0 370 323">
    <defs>
        <path id="a" d="M.298.398h79.406v53.533H.298z"/>
        <path id="c" d="M.298.232h79.406v53.533H.298z"/>
    </defs>
    <g fill="none" fill-rule="evenodd">
        <path fill="#D4EAE4" d="M.083 16.684h247.646V349.49H.083z" opacity=".5"/>
        <path fill="#FFF" d="M3.308 21.202h239.909v321.197H3.308z"/>
        <path fill="#12B2A6" d="M22.012 34.744h82.549v2.579H22.012z"/>
        <path fill="#FFB81C" d="M22.012 46.353h82.549v2.579H22.012z" opacity=".4"/>
        <path fill="#E0E0E0" d="M116.815 34.744h82.549v2.579h-82.549zM129.71 108.275h82.549v2.579H129.71zM131.648 115.366h82.549v2.579h-82.549zM135.519 122.463h82.549v2.579h-82.549zM129.71 222.432h82.549v2.579H129.71zM131.648 229.529h82.549v2.579h-82.549zM135.519 236.62h82.549v2.579h-82.549z"/>
        <path fill="#005A70" d="M23.211 83.765h86.326v85.134H23.211z" opacity=".2"/>
        <path fill="#FFF" d="M26.806 89.569h79.406v53.533H26.806z"/>
        <g transform="translate(125.358 122.607)">
            <mask id="b" fill="#fff">
                <use xlink:href="#a"/>
            </mask>
            <g fill="#6C63FF" mask="url(#b)" opacity=".4">
                <g transform="translate(-108.239 -31.48)">
                    <path d="M2.954 50.042l19.997-30.96 8.383 13.541 18.058-18.7 15.48 18.7 13.54-27.73 34.825 55.466L.376 56.487z"/>
                    <ellipse cx="18.434" cy="6.18" rx="5.804" ry="5.804"/>
                </g>
            </g>
        </g>
        <path fill="#005A70" d="M23.211 197.922h86.326v85.134H23.211z" opacity=".2"/>
        <path fill="#FFF" d="M26.806 203.726h79.406v53.533H26.806z"/>
        <g transform="translate(125.358 236.93)">
            <mask id="d" fill="#fff">
                <use xlink:href="#c"/>
            </mask>
            <g fill="#BDBDBD" mask="url(#d)" opacity=".4">
                <g transform="translate(-108.239 -31.48)">
                    <path d="M2.954 49.877l19.997-30.961 8.383 13.547 18.058-18.706 15.48 18.706 13.54-27.735 34.825 55.465L.376 56.327z"/>
                    <ellipse cx="18.434" cy="6.02" rx="5.804" ry="5.804"/>
                </g>
            </g>
        </g>
        <path fill="#D4EAE4" d="M36.44 326.663L101.305.241 344.2 48.516l-64.865 326.422z"/>
        <path fill="#FFF" d="M40.984 320.335L103.586 5.3l235.308 46.767-62.603 315.036z"/>
        <path fill="#D4EAE4" d="M117.803 23.239l166.995 33.19-.503 2.529L117.3 25.768zM70.287 262.366l166.995 33.19-.503 2.53-166.995-33.19zM67.39 276.91l129.042 25.647-.503 2.53L66.887 279.44z"/>
        <path fill="#12B2A6" d="M64.5 291.465l48.071 9.554-.503 2.53-48.07-9.554zM114.907 37.791l83.495 16.595-.503 2.53-83.495-16.595z"/>
        <path fill="#D4EAE4" d="M112.022 52.34l150.545 29.92-.502 2.53L111.52 54.868z"/>
        <path fill="#12B2A6" d="M109.128 66.892l36.686 7.291-.503 2.53-36.685-7.291z"/>
        <path fill="#D4EAE4" d="M106.24 81.442l166.995 33.19-.503 2.53-166.995-33.19z"/>
        <path fill="#D4EAE4" d="M103.857 228.931l17.096-86.031 149.912 29.794-17.096 86.032z" opacity=".5"/>
        <path fill="#FFF" d="M121.802 143.72l148.016 29.418-16.719 84.136-148.016-29.418z"/>
        <path fill="#D4EAE4" d="M103.348 95.996l166.995 33.19-.502 2.53-166.995-33.19z"/>
        <path fill="#EA7600" d="M135.04 158.188l18.346 3.646-12.193 61.363-18.346-3.647z" opacity=".7"/>
        <path fill="#FFB81C" d="M163.91 184.97l18.345 3.646-8.171 41.12-18.346-3.647z" opacity=".502"/>
        <path fill="#EA7600" d="M193.035 210.486l18.346 3.646-4.4 22.14-18.345-3.647z" opacity=".7"/>
        <path fill="#FFB81C" d="M230.454 194.25l18.345 3.645-8.925 44.917-18.346-3.646z" opacity=".502"/>
        <path fill="#005A70" d="M322.045 152.372l18.035-18.032c4.547-4.547 11.981-4.547 16.528 0l9.772 9.767c4.547 4.553 4.547 11.988 0 16.535l-18.036 18.031-70.132 70.138-37.988 11.69 11.689-37.992 70.132-70.137z"/>
        <path stroke="#FFF" stroke-linecap="round" stroke-linejoin="round" stroke-width="4.771" d="M335.194 165.523l-62.826 62.831M251.913 222.51l5.844 5.844h14.61v14.612l5.845 5.845M330.811 143.605l26.3 26.301"/>
    </g>
</svg>
