<svg id="Capa_1" enable-background="new 0 0 512 512" height="512" viewBox="0 0 512 512" width="512" xmlns="http://www.w3.org/2000/svg"><g><path d="m112.078 182.775c-4.878-2.611-10.796-2.324-15.398.744l-90 60c-4.174 2.782-6.68 7.466-6.68 12.481s2.506 9.699 6.68 12.481l90 60c4.609 3.073 10.528 3.351 15.398.744 4.877-2.61 7.922-7.693 7.922-13.225v-15h46c8.284 0 15-6.716 15-15v-60c0-8.284-6.716-15-15-15h-46v-15c0-5.532-3.045-10.615-7.922-13.225zm38.922 58.225v30h-46c-8.284 0-15 6.716-15 15v1.972l-47.958-31.972 47.958-31.972v1.972c0 8.284 6.716 15 15 15z"/><path d="m301 120h15c5.532 0 10.615-3.045 13.225-7.922s2.324-10.796-.744-15.398l-60-90c-2.782-4.174-7.466-6.68-12.481-6.68s-9.699 2.506-12.481 6.68l-60 90c-3.068 4.603-3.354 10.521-.744 15.398s7.693 7.922 13.225 7.922h15v46c0 8.284 6.716 15 15 15h60c8.284 0 15-6.716 15-15zm-15-30c-8.284 0-15 6.716-15 15v46h-30v-46c0-8.284-6.716-15-15-15h-1.972l31.972-47.958 31.972 47.958z"/><path d="m505.32 243.519-90-60c-4.602-3.068-10.52-3.355-15.398-.744-4.877 2.61-7.922 7.693-7.922 13.225v15h-46c-8.284 0-15 6.716-15 15v60c0 8.284 6.716 15 15 15h46v15c0 5.532 3.045 10.615 7.922 13.225 4.867 2.604 10.784 2.331 15.398-.744l90-60c4.173-2.782 6.68-7.466 6.68-12.481s-2.506-9.699-6.68-12.481zm-83.32 44.453v-1.972c0-8.284-6.716-15-15-15h-46v-30h46c8.284 0 15-6.716 15-15v-1.972l47.958 31.972z"/><path d="m183.519 415.32 60 90c2.782 4.173 7.466 6.68 12.481 6.68s9.699-2.506 12.481-6.68l60-90c3.068-4.603 3.354-10.521.744-15.398s-7.693-7.922-13.225-7.922h-15v-46c0-8.284-6.716-15-15-15h-60c-8.284 0-15 6.716-15 15v46h-15c-5.532 0-10.615 3.045-13.225 7.922s-2.324 10.796.744 15.398zm42.481 6.68c8.284 0 15-6.716 15-15v-46h30v46c0 8.284 6.716 15 15 15h1.972l-31.972 47.958-31.972-47.958z"/><path d="m286 211h-60c-8.284 0-15 6.716-15 15v60c0 8.284 6.716 15 15 15h60c8.284 0 15-6.716 15-15v-60c0-8.284-6.716-15-15-15zm-15 60h-30v-30h30z"/></g></svg>