<?xml version="1.0" encoding="utf-8"?>
<!-- Generator: Adobe Illustrator 22.0.0, SVG Export Plug-In . SVG Version: 6.00 Build 0)  -->
<svg version="1.1" id="Capa_1" xmlns="http://www.w3.org/2000/svg" xmlns:xlink="http://www.w3.org/1999/xlink" x="0px" y="0px"
	 viewBox="0 0 512 512" style="enable-background:new 0 0 512 512;" xml:space="preserve">
<g>
	<path d="M505,482.1L29.7,5.7c-6.2-6.2-16.3-6.2-22.5,0l0,0c-6.2,6.2-6.2,16.3,0,22.5L175.7,197v44c0,44.3,36,80.3,80.3,80.3
		c12.7,0,24.8-3,35.5-8.3l45.6,45.7c-23.1,15.7-51,24.9-81,24.9c-79.8,0-144.7-64.9-144.7-144.7c0-8.8-7.2-16-16-16
		c-8.8,0-16,7.2-16,16c0,44.5,16.7,87,46.9,119.8C156.1,391,196.4,411,240,414.9V480h-32.2c-8.8,0-16,7.2-16,16s7.2,16,16,16h96.4
		c8.8,0,16-7.2,16-16s-7.2-16-16-16H272v-65.1c32-2.9,62.3-14.4,88-33.2l122.6,122.9c6.2,6.2,16.3,6.2,22.5,0l0,0
		C511.2,498.4,511.2,488.3,505,482.1z"/>
	<path d="M432.7,238.9c0-8.8-7.2-16-16-16s-16,7.2-16,16c0,26.8-7.3,52-20.1,73.5l23.2,23.3C422.6,307.1,432.7,273.6,432.7,238.9z"
		/>
	<path d="M336.3,241V80.3C336.3,36,300.3,0,256,0s-80.3,36-80.3,80.3v26.8l157.1,157.5C335.1,257.1,336.3,249.2,336.3,241z"/>
</g>
</svg>
