<?xml version="1.0" encoding="utf-8"?>
<!-- Generator: Adobe Illustrator 22.0.0, SVG Export Plug-In . SVG Version: 6.00 Build 0)  -->
<svg version="1.1" id="Capa_1" xmlns="http://www.w3.org/2000/svg" xmlns:xlink="http://www.w3.org/1999/xlink" x="0px" y="0px"
	 viewBox="0 0 512 512" style="fill:white;" xml:space="preserve">
<g>
	<path d="M200.8,509.3c69.1,0.5,50.8,0.3,53.9,0.3c163.9,0,286.3-153.7,247.8-314.3c-3.3-14.4-9.4-34.8-21.2-57.1
		C442.5,65.3,356.2-0.8,254.8,0C99.2,1.2,0.2,159.3,0,254.8c-0.1,62.6,19.2,97.5,19.2,97.5c20.3,36.5,48,49.5,42.8,69.2
		c-5.2,19.8-37.8,23.9-56.6,55.9c-3.1,5.3-6.8,13-4,19.8c3.1,7.6,12.7,10.2,16.7,11.3c29.8,8.2,123.4,1.6,136.7,0.7 M100.2,409.2
		C59,367.9,36.3,313.1,36.3,254.8c0-120.5,98-218.5,218.5-218.5s218.5,98,218.5,218.5c0,115.4-91.4,219.4-225.6,218.4l-185.5-0.9
		l37.9-37.4C107.2,427.8,107.3,416.3,100.2,409.2L100.2,409.2z"/>
	<path d="M146.5,200.9h217.9c10,0,18.2-8.1,18.2-18.2s-8.1-18.2-18.2-18.2H146.5c-10,0-18.2,8.1-18.2,18.2S136.4,200.9,146.5,200.9z
		"/>
	<path d="M146.5,273.6h217.9c10,0,18.2-8.1,18.2-18.2c0-10-8.1-18.2-18.2-18.2H146.5c-10,0-18.2,8.1-18.2,18.2
		C128.3,265.4,136.4,273.6,146.5,273.6z"/>
	<path d="M146.5,346.2h217.9c10,0,18.2-8.1,18.2-18.2s-8.1-18.2-18.2-18.2H146.5c-10,0-18.2,8.1-18.2,18.2S136.4,346.2,146.5,346.2z
		"/>
</g>
</svg>
