<?xml version="1.0" encoding="utf-8"?>
<!-- Generator: Adobe Illustrator 16.0.0, SVG Export Plug-In . SVG Version: 6.00 Build 0)  -->
<!DOCTYPE svg PUBLIC "-//W3C//DTD SVG 1.1//EN" "http://www.w3.org/Graphics/SVG/1.1/DTD/svg11.dtd">
<svg version="1.1" id="Layer_1" xmlns="http://www.w3.org/2000/svg" xmlns:xlink="http://www.w3.org/1999/xlink" x="0px" y="0px"
	 width="250px" height="207px" viewBox="0 0 250 207" enable-background="new 0 0 250 207" xml:space="preserve">
<g>
	<g>
		<path d="M64.195,103.462c-0.008,3.036,1.166,5.892,3.301,8.031l92.204,92.2c2.13,2.132,4.975,3.307,8.007,3.307
			c3.033,0,5.875-1.175,8.008-3.307l6.783-6.781c2.131-2.133,3.307-4.977,3.307-8.01c0-3.031-1.176-5.873-3.307-8.006
			l-77.439-77.439l77.354-77.354c4.414-4.413,4.414-11.595,0-16.015l-6.783-6.782C173.498,1.175,170.654,0,167.621,0
			c-3.032,0-5.877,1.175-8.007,3.307L67.496,95.423C65.361,97.56,64.188,100.415,64.195,103.462z"/>
	</g>
</g>
</svg>
