<svg height="511pt" viewBox="0 -31 511.9995 511" width="511pt" xmlns="http://www.w3.org/2000/svg"><path d="m509.324219 215.003906-118-204.5c-3.574219-6.191406-10.175781-10.003906-17.324219-10.003906h-236c-7.148438 0-13.75 3.8125-17.324219 10.003906l-118 204.5c-3.566406 6.1875-3.566406 13.804688 0 19.992188l118 204.5c3.574219 6.191406 10.175781 10.003906 17.324219 10.003906h236c7.148438 0 13.75-3.8125 17.324219-10.003906l118-204.5c3.566406-6.1875 3.566406-13.804688 0-19.992188zm-146.875 194.496094h-212.898438l-106.460937-184.5 106.460937-184.5h212.898438l106.460937 184.5zm-131.472657-222.503906c-1.734374-35.832032-2.597656-61.171875-2.597656-76 0-15.226563 13.769532-22.617188 28.9375-22.617188 13.902344 0 25.5625 8.046875 25.5625 22.617188 0 14.828125-.371094 40.167968-1.113281 76-.738281 35.84375-1.109375 61.054687-1.109375 75.632812 0 11.273438-13.425781 16.3125-23.339844 16.3125-15.832031 0-23.746094-5.433594-23.746094-16.3125 0-14.578125-.871093-39.789062-2.59375-75.632812zm53.757813 146.074218c0 15.183594-11.996094 28.546876-27.019531 28.546876-17.484375 0-30.449219-13.605469-30.449219-28.546876 0-15.441406 12.46875-28.546874 30.449219-28.546874 15.082031 0 27.019531 13.4375 27.019531 28.546874zm0 0"/></svg>