<?xml version="1.0" encoding="utf-8"?>
<!-- Generator: Adobe Illustrator 22.0.0, SVG Export Plug-In . SVG Version: 6.00 Build 0)  -->
<svg version="1.1" id="Layer_1" xmlns="http://www.w3.org/2000/svg" xmlns:xlink="http://www.w3.org/1999/xlink" x="0px" y="0px"
	 viewBox="0 0 682 682" style="enable-background:new 0 0 682 682;" xml:space="preserve">
<path d="M359.4,145.2l0,199.7c0,10.3-8.4,18.7-18.7,18.7h0c-10.3,0-18.7-8.4-18.7-18.7l0-199.7c0-10.3,8.4-18.7,18.7-18.7h0
	C351,126.5,359.4,134.9,359.4,145.2z"/>
<path d="M359.4,408.2l0-1.3c0,10.3-8.4,18.7-18.7,18.7h0c-10.3,0-18.7-8.4-18.7-18.7l0,1.3c0-10.3,8.4-18.7,18.7-18.7h0
	C351,389.5,359.4,397.9,359.4,408.2z"/>
<path d="M572.5,46H108.9C60.4,46,21,85.4,21,133.9v283.7c0,48.4,39.3,87.7,87.6,87.9v128.7l185-128.7h278.9
	c48.5,0,87.9-39.4,87.9-87.9V133.9C660.4,85.4,620.9,46,572.5,46z M622.9,417.6c0,27.8-22.6,50.4-50.4,50.4H281.8L146,562.5V468
	h-37.2c-27.8,0-50.4-22.6-50.4-50.4V133.9c0-27.8,22.6-50.4,50.4-50.4h463.6c27.8,0,50.4,22.6,50.4,50.4V417.6z"/>
</svg>
