<svg xmlns="http://www.w3.org/2000/svg" width="30" height="30" viewBox="0 0 30 30">
    <g fill="none" fill-rule="evenodd">
        <path fill="#EA067E" d="M25.743 30H4.256C1.906 30 0 28.232 0 26.05V3.95C0 1.767 1.905 0 4.256 0h21.487C28.094 0 30 1.768 30 3.95v22.1c0 2.182-1.906 3.95-4.257 3.95"/>
        <path stroke="#FFF" stroke-linecap="round" stroke-width="1.646" d="M9.107 24.261h11.996"/>
        <g fill="#FFF">
            <path d="M14.544 13.433V7.5c-3.016.083-5.437 2.636-5.437 5.776 0 3.193 2.502 5.781 5.588 5.781 3.035 0 5.503-2.504 5.584-5.624h-5.735z"/>
            <path d="M16.222 6.429l-.15.003v5.933h5.734c.002-.052.004-.104.004-.156 0-3.193-2.502-5.78-5.588-5.78z"/>
        </g>
    </g>
</svg>
