<svg xmlns="http://www.w3.org/2000/svg" width="62" height="59" viewBox="0 0 62 59">
    <g fill="none" fill-rule="evenodd">
        <path fill="#EA7600" d="M48.054 59H7.945C3.557 59 0 55.7 0 51.628V10.372C0 6.301 3.557 3 7.945 3h40.11C52.442 3 56 6.3 56 10.372v41.256C56 55.699 52.443 59 48.054 59"/>
        <path fill="#FFB81C" d="M62 8.86c0 4.894-3.984 8.862-8.899 8.862-4.914 0-8.898-3.968-8.898-8.861C44.203 3.967 48.187 0 53.101 0 58.016 0 62 3.967 62 8.86"/>
        <path stroke="#FFF" stroke-linecap="round" stroke-width="1.664" d="M56.765 5l-5.511 6.631L49 9.438"/>
        <path stroke="#FFF" stroke-linecap="round" stroke-width="2.56" d="M19 49.24h17.24"/>
        <path fill="#FFF" d="M36 19.5c0 4.694-3.582 8.5-8 8.5s-8-3.806-8-8.5c0-4.696 3.582-8.5 8-8.5s8 3.804 8 8.5zM16 43v-1.23C16 35.822 21.597 31 28.5 31S41 35.822 41 41.77V43H16z"/>
    </g>
</svg>
