<svg xmlns="http://www.w3.org/2000/svg" width="32" height="30" viewBox="0 0 32 30">
    <g fill="none" fill-rule="evenodd">
        <path fill="#12B2A6" d="M24.802 30H4.101C1.836 30 0 28.322 0 26.251V5.274c0-2.07 1.836-3.749 4.1-3.749h20.702c2.265 0 4.101 1.679 4.101 3.75V26.25c0 2.07-1.836 3.749-4.1 3.749"/>
        <path fill="#D4EAE4" d="M32 4.506c0 2.488-2.056 4.505-4.593 4.505-2.536 0-4.592-2.017-4.592-4.505C22.815 2.017 24.87 0 27.407 0 29.944 0 32 2.017 32 4.506"/>
        <path stroke="#12B2A6" stroke-linecap="round" stroke-width=".847" d="M29.298 2.542l-2.844 3.372L25.29 4.8"/>
        <path stroke="#FFF" stroke-linecap="round" stroke-width="1.303" d="M9.806 25.038h8.899"/>
        <path fill="#FFF" d="M18.58 9.915c0 2.387-1.848 4.322-4.128 4.322-2.28 0-4.13-1.935-4.13-4.322 0-2.388 1.85-4.322 4.13-4.322s4.129 1.934 4.129 4.322zM8.258 21.864v-.625c0-3.024 2.889-5.476 6.452-5.476 3.562 0 6.451 2.452 6.451 5.476v.625H8.258z"/>
    </g>
</svg>
