<svg xmlns="http://www.w3.org/2000/svg" xmlns:xlink="http://www.w3.org/1999/xlink" width="519" height="432" viewBox="0 0 519 432">
    <defs>
        <path id="a" d="M57.24 107.167c8.203-46.706 70.472-79.766 127.153-95.76 107.437-30.32 191.983 8.135 231.064 25.947C463.31 59.164 518 129.468 518 239.745c0 110.278-77.414 158.362-117.583 169.957-40.17 11.595-105.89 21.301-141.417 0-35.528-21.3-72.417-52.049-156.648-44.41-56.354 5.11-91.6-33.187-101.17-89.22-9.57-56.033 41.686-87.085 56.057-168.905z"/>
        <linearGradient id="c" x1="49.989%" x2="49.989%" y1="100%" y2="0%">
            <stop offset="0%" stop-color="gray" stop-opacity=".25"/>
            <stop offset="54%" stop-color="gray" stop-opacity=".12"/>
            <stop offset="100%" stop-color="gray" stop-opacity=".1"/>
        </linearGradient>
        <linearGradient id="d" x1="50.011%" x2="50.011%" y1="100%" y2="0%">
            <stop offset="0%" stop-color="gray" stop-opacity=".25"/>
            <stop offset="54%" stop-color="gray" stop-opacity=".12"/>
            <stop offset="100%" stop-color="gray" stop-opacity=".1"/>
        </linearGradient>
        <linearGradient id="e" x1="50.011%" x2="50.011%" y1="100.022%" y2="0%">
            <stop offset="0%" stop-color="gray" stop-opacity=".25"/>
            <stop offset="54%" stop-color="gray" stop-opacity=".12"/>
            <stop offset="100%" stop-color="gray" stop-opacity=".1"/>
        </linearGradient>
    </defs>
    <g fill="none" fill-rule="evenodd">
        <g transform="translate(.118 .599)">
            <mask id="b" fill="#fff">
                <use xlink:href="#a"/>
            </mask>
            <use fill="#D4EAE4" xlink:href="#a"/>
            <path stroke="#FFF" stroke-width=".63" d="M134.493 71.433v15.283a2.067 2.067 0 0 1-2.064 2.07h-27.953a202.876 202.876 0 0 1 19.283-19.424h8.675a2.063 2.063 0 0 1 2.06 2.07z" mask="url(#b)" opacity=".03"/>
            <path fill="#FFF" d="M476.558 52.513v247.986a6.533 6.533 0 0 1-6.534 6.532H27.092a6.533 6.533 0 0 1-6.534-6.532V127.194a74.438 74.438 0 0 1 6.534-.833 75.789 75.789 0 0 1 5.238-.245h.953c1.938 0 3.865.093 5.777.24.201-.468.419-.936.62-1.404a232.858 232.858 0 0 1 2.347-4.986.19.19 0 0 0 0-.044c.136-.283.272-.544.414-.843a135.998 135.998 0 0 1 1.998-3.984c.316-.61.626-1.214.947-1.818.071-.142.142-.278.224-.42.326-.625.659-1.246.996-1.866a226.627 226.627 0 0 1 5.244-9.144c.157-.256.304-.512.462-.762.283-.463.545-.925.86-1.383.752-1.219 1.525-2.433 2.304-3.635.544-.85 1.089-1.699 1.677-2.537a215.054 215.054 0 0 1 8.995-12.491c.217-.283.435-.544.664-.844l2.325-2.923.321-.397.844-1.029a231.374 231.374 0 0 1 3.811-4.506 219.266 219.266 0 0 1 20.854-20.982c.289-.267.583-.545.871-.773a233.397 233.397 0 0 1 4.193-3.554h282.152a168.138 168.138 0 0 1 3.767 3.195 95.134 95.134 0 0 1 4.585-3.195h79.495a6.533 6.533 0 0 1 6.528 6.482z" mask="url(#b)"/>
            <path fill="#505759" d="M452.406 109.345v5.714H85.092a157.58 157.58 0 0 1 2.135-3.366 75.316 75.316 0 0 1 1.545-2.348h363.634z" mask="url(#b)"/>
            <path fill="#505759" d="M51.882 187.377h217.604v5.71H51.882z" mask="url(#b)" transform="rotate(90 160.684 190.232)"/>
            <path fill="#007FA3" d="M97.986 127.238v22.504h-23.22v-15.923-.04c.125-.262.251-.504.382-.781.6-1.24 1.214-2.47 1.853-3.689.287-.564.574-1.123.871-1.683.065-.13.136-.257.206-.388h19.908zM445.403 154.62h23.226v22.504h-23.226z" mask="url(#b)" opacity=".398"/>
            <path fill="#FFB81C" d="M91.979 174.936h23.226v22.504H91.979zM429.175 123.59h23.226v22.504h-23.226z" mask="url(#b)" opacity=".397"/>
            <path fill="#EB1B7E" d="M108.282 138.49h23.226v22.504h-23.226zM119.897 164.073h23.226v22.504h-23.226z" mask="url(#b)" opacity=".395"/>
            <path fill="#16B1A7" d="M138.707 92.959v10.581H92.8c1.4-1.941 2.83-3.856 4.29-5.744.201-.262.403-.504.614-.78l2.15-2.707.297-.368.78-.952 37.776-.03zM389.949 92.959h48.238v10.572h-48.238z" mask="url(#b)" opacity=".2"/>
        </g>
        <g transform="translate(54 66)">
            <path fill="#505759" d="M319.486 16.305v217.604h-5.71V16.305zM214.445 16.305v217.604h-5.71V16.305z"/>
            <path fill="#007FA3" d="M114.68 55.256h23.226V77.76H114.68zM219.58 98.948h23.226v22.504H219.58z" opacity=".398"/>
            <path fill="url(#c)" d="M326.62 113.853h23.226v22.504H326.62z"/>
            <path fill="#7CFCFF" d="M327.018 114.241h22.425v21.728h-22.425z"/>
            <path fill="url(#d)" d="M355.299 128.42h23.226v22.504h-23.226z"/>
            <path fill="#7CFCFF" d="M355.701 128.808h22.425v21.728h-22.425z"/>
            <path fill="#007FA3" d="M383.987 121.068h23.226v22.504h-23.226z" opacity=".398"/>
            <path fill="url(#e)" d="M146.364 55.256h23.226V77.76h-23.226z"/>
            <path fill="#FFB81C" d="M131.441 87.696h23.226V110.2h-23.226zM252.498 74.247h23.226v22.504h-23.226zM283.14 55.256h23.226V77.76H283.14zM281.821 98.948h23.226v22.504h-23.226zM177.55 66.124h23.226v22.504H177.55z" opacity=".397"/>
            <path fill="#EB1B7E" d="M162.098 102.601h23.226v22.504h-23.226z" opacity=".395"/>
            <path fill="#84BD00" d="M332.476 58.853h22.425v21.728h-22.425z" opacity=".4"/>
            <path fill="#84BD00" d="M352.625 89.495h23.226v22.504h-23.226zM221.609 55.256h23.226V77.76h-23.226zM249.87 121.068h23.226v22.504H249.87z" opacity=".498"/>
            <path fill="#EE936F" d="M337.53 107.363c-.065 2.554-.93 5.038-1.067 7.588 7.553.373 14.949-3.28 22.395-2.162-2.08-1.345-3.192-3.779-3.846-6.172a25.522 25.522 0 0 1-.735-9.483c.018-.17.049-.338.09-.504.277-1.25 1.007-3.024.8-4.006-.251-1.3-1.48-1.043-2.582-.968a97.66 97.66 0 0 0-10.04 1.295c-.866.152-9.299 2.258-9.425 2.041 1.39 2.404 2.805 4.903 3.65 7.523.524 1.562.781 3.2.76 4.848zM263.121 99.462a10.91 10.91 0 0 0 2.301 2.317c.57.47 1.153.948 1.768 1.376a7.549 7.549 0 0 0 3.76 1.512c1.793.12 5.6-.932 6.712-2.47.47-.771.692-1.667.64-2.57a11.92 11.92 0 0 0-.615-3.597 20.014 20.014 0 0 0-2.905-5.25c-1.294-1.804-2.734-3.578-4.662-4.671a18.078 18.078 0 0 0-1.984-.912l-3.524-1.442a1.766 1.766 0 0 0-.64-.166c-.941 0-1.112 1.446-.579 2.222 1.068 1.567 3.47 2.016 4.144 3.78a2.689 2.689 0 0 0-2.517 1.934 1.381 1.381 0 0 1-.338.786c-.307.247-.79.106-1.143.293-.619.332-.347 1.26-.413 1.965-.06.625-.453 1.164-.644 1.763a3.751 3.751 0 0 0 .64 3.13z"/>
            <path fill="#505759" d="M366.838 355.84c-.579-.58-1.51-.479-2.336-.353a86.731 86.731 0 0 1-13.125 1.063c-.55-2.69 1.047-5.306 1.56-8.001a7.06 7.06 0 0 1 .504-2.016c.614-1.19 2.014-1.733 3.323-2.016 2.366-.503 6.042-1.38 7.386 1.008 1.606 2.877 2.114 7.12 2.688 10.315z"/>
            <path fill="#000" d="M318.751 345.681c1.782 1.22 3.998 1.598 6.142 1.875 2.145.277 4.35.479 6.294 1.436 1.677.826 3.086 2.187 4.864 2.781 1.61.54 3.373.393 5.034.081 2.014-.373 4.119-1.103 5.196-2.827.962-1.511.856-3.472.725-5.275-.156-2.016-.302-4.082-.453-6.123a2.99 2.99 0 0 0-.377-1.481c-1.445-2.101-4.95.882-6.823.877-2.975 0-6.167-1.613-8.307-3.588a2.518 2.518 0 0 0-.644-.504c-.851-.383-1.697.323-2.452.937-.081.07-.167.136-.252.202-1.737 1.38-4.063 1.658-6.208 2.217-2.145.56-4.446 1.683-5.11 3.8-.043.133-.077.27-.101.407-.383 1.98.805 4.042 2.472 5.185z"/>
            <path fill="#505759" d="M366.028 212.942a26.815 26.815 0 0 1-3.676 19.783c-1.007 1.582-2.215 3.069-2.98 4.787a22.099 22.099 0 0 0-1.168 3.8l-3.303 13.7c-.896 3.698-1.793 7.467-1.51 11.262.186 2.645.85 5.618-.776 7.71-.4.397-.74.852-1.007 1.35a3.454 3.454 0 0 0 0 1.783c1.672 9.947 2.915 20.342-.106 29.967-2.739 8.722-2.9 18.387-5.226 27.21-.287 1.098-.619 2.252-1.45 3.023a4.726 4.726 0 0 1-2.165 1.008c-3.433.821-7.048-.141-10.26-1.623-2.251-1.043-4.673-2.872-4.482-5.346.096-1.18.78-2.212 1.249-3.296.911-2.126 1.007-4.5 1.234-6.802.619-5.785 2.401-11.363 3.745-17.021 1.345-5.659 2.261-11.565 1.123-17.269a151.026 151.026 0 0 0-11.076-34.173 4.067 4.067 0 0 0-1.007-1.512c-.454-.373-1.053-.544-1.44-1.008-.388-.463-.504-1.169-.655-1.789-.503-1.803-1.989-3.134-2.985-4.72-2.518-4.002-1.722-9.131-1.627-13.858.09-4.6-.569-9.241.182-13.776.75-4.535 3.348-9.17 7.718-10.582 2.165-.7 4.506-.544 6.772-.317 11.952 1.194 23.603 3.396 34.876 7.71z"/>
            <path fill="#505759" d="M317.15 241.78c.038 1.785.24 3.563.604 5.31a1538.046 1538.046 0 0 0 6.762 35.545c.211 1.008.418 2.05.695 3.059a24.854 24.854 0 0 0 4.581 9.02c9.97 12.435 10.83 30.5 16.243 45.5.362 1.008.73 2.016 1.117 3.024a74.242 74.242 0 0 0 3.338 7.452c.144.354.38.662.685.892.336.169.713.242 1.088.212a31.698 31.698 0 0 0 14.072-3.19 2.926 2.926 0 0 0 1.51-1.24 3.05 3.05 0 0 0 .156-1.43c-.15-2.974-.332-6.047-1.747-8.667a18.59 18.59 0 0 0-3.464-4.203c-.423-9.332-1.344-18.684-3.393-27.8-1.052-4.66-2.356-9.372-5.035-13.312-2.014-2.908-4.853-5.775-4.501-9.287.156-1.511.8-3.456-.453-4.363-.549-.399-1.36-.449-1.727-1.008a1.91 1.91 0 0 1-.242-.867 21.513 21.513 0 0 1 .443-7.2c.363-1.563.907-3.094 1.073-4.692.166-1.597-.116-3.335-1.178-4.535-.066-3.204 0-6.55-.046-9.725-.03-1.829-.065-3.683.448-5.432.247-.841.615-1.642.8-2.52.67-3.073-1.006-6.761 1.008-9.2.83-1.008 2.11-1.512 3.192-2.247 2.17-1.452 3.59-3.82 4.38-6.304.79-2.484 1.007-5.114 1.244-7.72a8.039 8.039 0 0 0 0-1.667 2.99 2.99 0 0 0-.222-.832c-.619-1.39-2.28-1.93-3.76-2.288a121.452 121.452 0 0 0-28.7-3.355c-3.574-2.44-5.588-1.568-7.103 1.007a26.824 26.824 0 0 0-2.014 4.943c-.695 2.092-.735 13.812-1.41 15.913-.941 2.752 1.591 8.335 1.556 11.207z"/>
            <path fill="#003057" d="M381.792 135.147c.267 1.844-.62 3.658-.72 5.518-.086 1.622.433 3.21.73 4.812 1.153 6.248-1.063 12.572-3.323 18.507a9.53 9.53 0 0 0-.786 3.024c-.06 1.94 1.053 3.713 1.36 5.628.64 4.031-2.321 7.805-2.387 11.882 0 1.874.564 3.784.096 5.598-.312 1.214-1.067 2.252-1.606 3.386-.952 2.016-1.203 4.278-2.115 6.299-1.636 3.658-5.16 6.046-8.509 8.238-1.908-.634-3.972-1.39-5.034-3.109a7.658 7.658 0 0 1-.871-2.726c-.725-4.167-.7-8.42-.675-12.647a78.594 78.594 0 0 1 .594-10.844c.675-4.595 2.165-9.025 3.232-13.544 1.35-5.7 2.014-11.59 4.139-17.057 1.843-4.807 4.718-9.12 7.744-13.247 1.153-1.577 2.064-3.83 4.304-3.467a4.694 4.694 0 0 1 3.827 3.749z"/>
            <ellipse cx="340.914" cy="85.136" fill="#EE936F" rx="17.375" ry="17.389"/>
            <path fill="#000" d="M318.957 209.732c3.021-.176 6.042-.055 9.063.066 1.887.019 3.768.213 5.619.58 2.28.503 4.415 1.556 6.666 2.206 3.605 1.054 7.411 1.099 11.142 1.467 2.452.24 4.888.621 7.295 1.144a2.99 2.99 0 0 0-.221-.832c-.62-1.39-2.28-1.93-3.761-2.287a121.452 121.452 0 0 0-28.698-3.356c-3.575-2.44-5.59-1.567-7.105 1.012z" opacity=".1"/>
            <path fill="#003057" d="M330.8 113.606c.76.877 1.777 1.844 2.9 1.562.405-.141.785-.345 1.127-.605 2.014-1.295 4.46-1.597 6.817-1.95 4.75-.716 9.443-1.772 14.042-3.16a14.279 14.279 0 0 1 4.154-.846c2.945 0 5.538 1.975 7.401 4.273 1.863 2.298 3.152 4.984 4.964 7.307 1.29 1.657 2.825 3.119 4.028 4.837 3.021 4.338 3.696 10.002 2.91 15.247-.785 5.246-2.88 10.184-4.954 15.067-1.188 2.796-2.386 5.608-4.028 8.158.7 3.985.333 8.54-1.56 12.093-.62 1.164-1.375 2.298-1.576 3.603-.096.88-.06 1.77.105 2.64l.887 6.294c.266 1.92.538 3.834.886 5.739.64 3.487 1.51 7.271-.106 10.425-1.933 3.775.096 8.617-.413 12.83a64.437 64.437 0 0 0-16.932-4.032c-3.736-.367-7.552-.413-11.142-1.46-2.25-.656-4.38-1.694-6.666-2.218a30.854 30.854 0 0 0-5.624-.574c-4.164-.167-8.358-.333-12.476.282-.338.05-.74.075-.942-.197a.903.903 0 0 1-.126-.504 8.294 8.294 0 0 1 1.068-4.424c.503-.927 1.253-1.839 1.233-2.902a4.367 4.367 0 0 0-.362-1.441l-1.823-4.878c-1.545-4.112-.81-8.894-1.61-13.212a77.659 77.659 0 0 1-1.2-10.224c-.15-2.932-.055-6.112 1.713-8.455a9.574 9.574 0 0 0 1.334-1.86 5.592 5.592 0 0 0 .317-2.222c.04-5.865-.128-11.728-.503-17.59 1.545-2.772 3.151-5.609 4.692-8.38 1.792-3.225 3.615-6.515 4.34-10.133.503-2.399.463-4.863.806-7.281a3.15 3.15 0 0 1 .614-1.703c.589-.666 1.58-.761 2.472-.736 1.103.044 2.193.256 3.232.63z"/>
            <path fill="#003057" d="M325 140.77c-1.063 1.315-2.16 2.676-3.661 3.452-1.727.897-3.761.917-5.705.877a136.297 136.297 0 0 1-23.84-2.62 14.717 14.717 0 0 1-2.623-.706 13.97 13.97 0 0 1-2.653-1.653c-2.583-1.859-5.206-3.754-7.174-6.263a21.087 21.087 0 0 1-4.25-10.436c-1.873-1.723-2.865-4.177-3.801-6.55a10.124 10.124 0 0 1-.866-3.18c-.05-1.123.695-2.302.503-3.41a9.022 9.022 0 0 0-2.754-4.964 1.799 1.799 0 0 1-.66-.872c-.036-.294.02-.592.162-.852.795-1.783 2.628-2.932 4.531-3.4 1.903-.47 3.882-.348 5.83-.233.705.046 1.219.373 1.909.504l1.36 3.583c.183.599.486 1.154.89 1.633.303.273.624.526.962.755a5.545 5.545 0 0 1 1.913 4.828 5.186 5.186 0 0 1 3.066 6.399 6.114 6.114 0 0 1 4.481 3.95c.097.45.297.871.584 1.23.447.348 1.001.526 1.566.504 1.51.096 2.875 1.305 4.27.65a8.649 8.649 0 0 1 5.05-.71c.354.084.719.116 1.082.095.31-.054.61-.158.886-.307a7.272 7.272 0 0 1 2.014-.796c.726-.151 1.474.139 1.908.74.504-.534.78-1.219 1.224-1.788a1.953 1.953 0 0 1 1.853-.887c-.464-.413 0-1.235.609-1.386.609-.151 1.233.07 1.853.07 1.606 0 2.84-1.47 4.4-1.854 1.435-.347 3.348.07 4.083-1.214.262-.454.312-1.068.755-1.345.3-.15.641-.19.967-.116a9.525 9.525 0 0 1 2.935.892c1.51 5.89.715 12.007-.433 17.978-.548 2.837-1.414 5.135-3.227 7.402zM333.735 109.242c1.862-1.164 4.058-1.653 6.218-2.05a13.08 13.08 0 0 1 3.957-.283c1.223.151 2.396.625 3.63.69 1.727.101 3.383-.604 5.035-1.058 1.651-.453 3.6-.635 5.004.378a2.17 2.17 0 0 0 1.088.58 1.893 1.893 0 0 0 1.123-.555 6.41 6.41 0 0 1 7.99.424c3.187 2.988 2.83 8.828 6.545 11.085 1.032.625 2.346.958 2.946 2.016.142.333.31.655.503.962.25.275.555.494.896.64a17.578 17.578 0 0 1 3.081 1.769 4.415 4.415 0 0 1 1.773 2.973 5.547 5.547 0 0 1-.55 2.52 23.42 23.42 0 0 1-22.766 14.572c-.851-.04-1.773-.157-2.387-.746a4.495 4.495 0 0 1-.836-1.376c-1.752-3.683-5.035-6.404-7.144-9.906-1.249-2.086-2.05-4.42-3.348-6.475-1.934-3.124-4.93-5.447-7.85-7.66-1.65-1.26-3.489-2.58-5.568-2.494-1.848.081-3.197.182-2.517-2.09a7.26 7.26 0 0 1 3.177-3.916z"/>
            <path fill="#000" d="M324.692 361.297c1.259 1.174 2.99 1.688 4.667 2.056 3.822.836 7.729 1.134 11.626 1.436l3.796.292c3.706.277 7.416.565 11.137.58 4.591.016 9.174-.38 13.695-1.185a1.158 1.158 0 0 0 1.253-1.39 66.282 66.282 0 0 0-1.681-13.761c-.433-1.855-3.756 2.302-3.902 2.479-.922 1.048-1.622 1.511-3.021 1.602-3.822.212-8.106-2.116-11.142-4.182a13.92 13.92 0 0 0-2.065-1.28 5.943 5.943 0 0 0-1.666-.504 10.088 10.088 0 0 0-5.69 1.154c-2.28 1.134-4.284 2.761-6.545 3.925a18.25 18.25 0 0 1-5.865 1.86c-2.07.287-4.532.423-5.604 2.217-.881 1.501-.247 3.517 1.007 4.701zM334.152 84.95c.066 1.799-1.158 5.285 2.2 4.313 2.015-.585 2.568-2.958 5.111-2.429 2.543.53 3.127 3.663 3.988 5.714a10.922 10.922 0 0 0 7.914 6.405 4.754 4.754 0 0 0 2.18 0c1.642-.469 2.578-2.162 3.248-3.73a29.836 29.836 0 0 0 1.435-4.09c.256-.992.424-2.003.503-3.024.053-.691.053-1.385 0-2.076-.307-4.087-2.628-7.815-5.609-10.637-2.98-2.822-6.59-4.853-10.16-6.863a14.786 14.786 0 0 0-3.75-1.673 12.547 12.547 0 0 0-3.958-.161c-1.738.07-3.447.472-5.035 1.184a7.124 7.124 0 0 0-1.772 1.245 5.312 5.312 0 0 0-1.51 2.564c-.645 2.646 1.037 5.04 2.406 7.11 1.213 1.865 2.719 3.835 2.81 6.148z"/>
            <path fill="#007FA3" d="M330.522 74.771c.308.51.644 1 1.007 1.471.713.895 1.508 1.72 2.377 2.464a18.61 18.61 0 0 0 1.606 1.26 25.774 25.774 0 0 0 3.242 1.94c3.288 1.658 6.843 2.696 10.382 3.724l6.938 2.015c2.422 1.835 10.523 7.84 11.887 7.09 1.606-.882-7.19-7.115-7.19-7.115l-.407.308c1.289-.812 1.963-2.691 2.255-4.314.504-2.907.755-5.93.066-8.803-.69-2.872-2.412-5.608-5.035-6.953-1.168-.6-2.583-1.008-3.424-1.93a2.464 2.464 0 0 1-.332-.449 2.172 2.172 0 0 1-.131-.236 3.095 3.095 0 0 0-.368-.716c-.503-.56-1.359-.393-2.089-.302l-.232.025h-.392c-2.608.06-5.136-1.396-7.774-1.396-2.895 0-5.352 1.673-7.9 2.817-.503.232-1.007.443-1.46.66-1.837.857-3.222 1.769-3.982 4.207-.423 1.437.181 2.968.956 4.233z"/>
            <path fill="#000" d="M168.266 332.328s7.552.928 11.192-.332c3.64-1.26-1.128 5.417-6.077 6.999a47.232 47.232 0 0 1-10.744 1.824l-5.82-5.477-6.178.473 1.077 6.047-1.918.181-.745-7.93 19.213-1.785zM179.146 346.175s9.037 1.98 13.594.867c4.556-1.114-1.979 6.445-8.172 7.805-6.192 1.36-13.251 1.008-13.251 1.008l-6.41-7.332-7.552-.126.62 7.483h-2.352v-9.705h23.523z"/>
            <path fill="#000" d="M145.715 174.052s-15.477 17.223-6.193 36.678c0 0 .503 3.472.126 4.092-.378.62 1.485 8.672 1.485 8.672s.252 14.612 0 17.102c-.252 2.489-.503 3.84-.503 3.84s-3.46 26.993-2.347 35.055c1.113 8.062 1.612 22.428 1.612 22.428l4.581 38.663 23.775-4.46-10.775-53.039-.372-9.417s4.46-11.524 2.477-17.35c-1.984-5.824.503-80.052.503-80.052l-14.37-2.212z"/>
            <path fill="#000" d="M157.104 257.32c2.723 5.205 1.006 17.842 1.006 17.842-3.59 3.1-1.61 30.113-1.61 30.113s-2.478 26.645-4.084 29.73c-1.606 3.083-1.364 15.861-1.364 15.861 18.2 3.346 30.088-3.84 30.088-3.84s-5.82-13.261-5.941-13.876c-.07-.348-.841.594-1.073.866.121-.166.438-.6 1.073-1.511 2.477-3.472 0-10.164 0-10.164s3.096-21.561 1.61-23.546c-1.485-1.986.247-9.292 1.113-11.025.866-1.734 1.98-5.825 1.98-7.559.071-1.347.322-2.679.744-3.96 3.837-5.457 3.097-14.502 3.097-14.502s-.247-13.01 1.978-23.295c2.226-10.284-2.779-39.409-2.779-39.409s1.667-5.699.428-7.805c-.559-.948-.503-3.18-.242-5.341.303-2.646.861-5.19.861-5.19l-33.778-6.002a92.566 92.566 0 0 0-1.959 3.437c-11.172 20.66-3.64 28.338-3.64 28.338l7.17 22.116s2.588 23.522 5.322 28.722z"/>
            <path fill="#EE936F" d="M210.72 95.607l4.828 4.102s.946-.756 2.215-1.89c3.02-2.731 7.915-7.674 6.082-9.77-2.518-2.863-5.035-1.008-5.191-.877.272-.287 5.876-6.299 3.58-5.815-2.296.484-6.686 5.704-6.686 5.704l-3.47 6.132-1.359 2.414zM145.962 162.528l5.694 1.734-4.33 7.558-4.954-6.445z"/>
            <ellipse cx="159.334" cy="75.285" fill="#EFB7B9" rx="16.222" ry="16.235"/>
            <path fill="#EFB7B9" d="M168.87 81.236s-14.737 23.406-.745 25.421c13.991 2.016-18.82 16.235-18.82 16.235l-12.26-12.39s12.753-22.06 10.774-30.485c-1.978-8.425 21.05 1.219 21.05 1.219z"/>
            <path fill="#000" d="M148.237 178.179a76.623 76.623 0 0 0 9.984 2.313s18.246 8.107 24.892 5.442c.302-2.646.861-5.19.861-5.19l-33.778-6.002a85.896 85.896 0 0 0-1.959 3.437z" opacity=".1"/>
            <path fill="#EA7600" d="M131.476 116.921l3.298 6.828 3.726 7.69.503 1.098 4.416 9.574 5.614 12.133s-1.984 2.353-1.365 4.213c.58 1.738 1.486.982 1.601.877-.105.146-1.304 1.758-.236 2.469 1.067.71.74 2.353.74 2.353s-4.582 7.558-5.448 10.284c-.866 2.726 13.871 5.084 13.871 5.084s20.925 9.292 26.126 4.707c5.2-4.586 0-26.147 0-26.147s0-12.39-1.365-13.504c-1.364-1.114-.715-9.705-.715-9.705 3.59-6.55 1.113-10.284 1.113-10.284l1.007-16.85s-1.611-1.739-2.85-1.86a12.376 12.376 0 0 0-2.351 0s-.655-.222-1.596-.504c-1.984-.564-5.277-1.345-6.455-.756-1.732.867-12.874-1.365-12.874-1.365a136.185 136.185 0 0 0-14.49-1.36 14.328 14.328 0 0 0-4.914.534c-4.028 1.244-4.743 4.172-4.743 4.172s.504 2.479-1.485 5.699c-1.989 3.22-1.128 4.62-1.128 4.62z"/>
            <path fill="#000" d="M210.72 95.607l4.828 4.102s.946-.756 2.215-1.89c.382-4.182-3.177-4.737-5.684-4.626l-1.36 2.414z" opacity=".1"/>
            <path fill="#EA7600" d="M182.242 107.63l2.105.126s4.95.614 6.545-.872c1.596-1.487 7.306-1.98 7.306-1.98s1.61-3.225 3.343-4.213c1.732-.988 5.946-2.852 6.041-3.845.096-.992 1.612-2.847 1.612-2.847s9.284-2.232 7.924 5.08c-1.359 7.311-8.876 13.625-8.876 13.625s-.866 4.091-3.716 5.084c-2.85.993-21.297 9.665-24.267 7.432-2.97-2.232 1.983-17.59 1.983-17.59zM133.727 115.062l-2.225 1.86a10.236 10.236 0 0 1-1.858 3.345c-1.239 1.366-4.582 14.87-4.582 14.87a2.41 2.41 0 0 1 0 1.985c-.503 1.008 1.007 2.48 1.007 2.48s.74-.248-.503 1.113c-1.244 1.36 1.117 2.983 1.117 2.983s10.15 17.339 12.255 19.198c2.104 1.86 4.209 6.692 4.209 6.692s4.41-6.924 5.448-7.055l-4.33-9.785s-2.976-13.635-5.201-16.125c-2.226-2.489 1.113-11.035 1.113-11.035l-6.45-10.526z"/>
            <path fill="#000" d="M178.819 73.4a9.626 9.626 0 0 1 1.102 9.333c-1.007 2.393-2.985 4.267-4.189 6.575a11.86 11.86 0 0 0 .403 11.479c.47.613.812 1.313 1.007 2.06.287 1.89-1.666 3.246-3.222 4.36-7.15 5.099-10.186 14.345-10.72 23.118a17.398 17.398 0 0 0 .343 5.543c.74 2.786 2.608 5.114 4.426 7.351-2.246.7-4.532 1.406-6.893 1.35-2.361-.055-4.808-1.007-6.082-2.987-.645-1.008-.947-2.187-1.57-3.195-.625-1.008-1.778-1.864-2.926-1.577-.51.17-.98.439-1.385.79a19.581 19.581 0 0 1-9.304 3.664c-2.89.333-6.158-.146-8.015-2.383-1.35-1.628-1.697-3.885-1.51-5.991.644-7.503 6.992-13.404 8.463-20.79 1.188-5.987-.967-12.094-1.36-18.171-.589-9.005 2.679-17.767 5.896-26.202a27.82 27.82 0 0 1 2.82-5.956c2.693-3.95 7.35-6.319 12.083-6.793a11.305 11.305 0 0 1 5.221.504c1.692.655 3.102 1.875 4.476 3.069 3.071 2.666 6.228 5.442 7.995 9.11.72 1.512 1.194 3.11 2.014 4.565l.927 1.175z"/>
            <path fill="#000" d="M175.898 70.11c-.805-1.456-1.273-3.069-2.013-4.565a18.297 18.297 0 0 0-2.568-3.875 21.751 21.751 0 0 1 4.531 5.991c.7 1.451 1.168 3.024 1.928 4.44l-.976-.827c.255.34.484.698.684 1.073a11.085 11.085 0 0 1-1.586-2.237z" opacity=".1"/>
            <path fill="#16B1A7" d="M131.32 27.834h48.238v10.572H131.32zM242.111 27.834h48.238v10.572h-48.238z" opacity=".2"/>
        </g>
    </g>
</svg>
