<svg xmlns="http://www.w3.org/2000/svg" xmlns:xlink="http://www.w3.org/1999/xlink" width="518" height="415" viewBox="0 0 518 415">
    <defs>
        <path id="a" d="M517.998 240.585v.94a158.627 158.627 0 0 1-1.01 16.271.55.55 0 0 1 0 .098c-.049.45-.103.894-.157 1.344-.092.76-.19 1.514-.297 2.274a157.524 157.524 0 0 1-6.228 27.284 144.164 144.164 0 0 1-16.259 34.257 131.108 131.108 0 0 1-6.81 9.505 136.676 136.676 0 0 1-3.955 4.77c-.95 1.092-1.92 2.167-2.906 3.225l-.616.651a157.518 157.518 0 0 1-16.744 15.227c-9.723 7.711-20.191 14.42-30.827 20.642-.604.357-1.215.709-1.825 1.034a.9.9 0 0 1-.135.078c-14.455 8.362-29.444 15.908-44.887 21.95-16.906 6.631-34.364 11.453-52.275 13.562-24.966 2.936-50.234.548-75.049-3.556a506.187 506.187 0 0 1-61.037-13.955l-3.295-.987c-1.707-.52-3.412-1.05-5.115-1.592a460.93 460.93 0 0 1-30.518-10.853c-25.26-9.955-49.392-22.353-72.019-37.001a304.658 304.658 0 0 1-8.518-5.686 370.183 370.183 0 0 1-11.591-8.32l-2.356-1.748a238.522 238.522 0 0 1-27.99-24.596c-11.624-12.105-21.557-25.76-28.088-41.348a109.843 109.843 0 0 1-2.83-7.49l-.081-.252a72.951 72.951 0 0 1-1.2-3.928 85.517 85.517 0 0 1-1.42-5.84 26.551 26.551 0 0 1-.232-1.138 93.68 93.68 0 0 1-1.702-20.12 89.204 89.204 0 0 1 2.16-17.573 76.947 76.947 0 0 1 6.12-17.35 62.315 62.315 0 0 1 9.362-13.816 54.335 54.335 0 0 1 8.82-7.887c5.86-4.176 12.359-7.086 19.094-9.386 3.166-1.085 6.374-2.036 9.599-2.92 2.285-.63 4.58-1.23 6.865-1.82l6.741-1.741c4.322-1.127 8.643-2.285 12.9-3.535 11.602-3.39 22.972-7.495 33.488-13.614a93.057 93.057 0 0 0 5.056-3.163 90.275 90.275 0 0 0 6.396-4.683 86.453 86.453 0 0 0 6.2-5.463c.308-.3.61-.6.913-.904a73.478 73.478 0 0 0 4.651-5.122 61.018 61.018 0 0 0 2.063-2.652 56.155 56.155 0 0 0 2.577-3.814c4.008-6.512 6.482-13.696 6.19-21.268a31.342 31.342 0 0 0-.351-3.727c-.702-4.563-1.377-9.019-1.874-13.376-2.085-18.022-1.205-34.365 12.93-49.72C177.504 2.666 205.09-1.226 230.2.299c72.602 4.393 138.695 44.056 196.777 91.275a767.478 767.478 0 0 1 14.887 12.404 981.896 981.896 0 0 1 3.71 3.184c9.183 7.913 18.225 16.12 26.646 24.912.68.713 1.361 1.426 2.031 2.144.41.445.826.884 1.232 1.334a216.663 216.663 0 0 1 7.643 8.735 165.03 165.03 0 0 1 17.457 25.325c7.65 14.023 12.83 29.158 15.33 44.795a152.96 152.96 0 0 1 1.852 17.144c.092 1.69.152 3.385.184 5.075v1.623c.054.786.054 1.55.049 2.336z"/>
        <path id="c" d="M.242.397h70.64v74.206H.242z"/>
        <path id="e" d="M.242.397h70.64v74.206H.242z"/>
        <path id="g" d="M.242.397h70.64v74.206H.242z"/>
        <path id="i" d="M.242.397h70.64v74.206H.242z"/>
        <path id="k" d="M0 .368h57.66V60.71H0z"/>
        <path id="m" d="M0 88.56h57.66V.46H0z"/>
        <path id="o" d="M0 .368h57.66V60.71H0z"/>
        <path id="q" d="M0 88.56h57.66V.46H0z"/>
        <path id="s" d="M0 .145h19.13v21.79H0z"/>
        <path id="u" d="M0 .104h13.026v15.687H0z"/>
    </defs>
    <g fill="none" fill-rule="evenodd">
        <mask id="b" fill="#fff">
            <use xlink:href="#a"/>
        </mask>
        <use fill="#D4EAE4" xlink:href="#a"/>
        <path fill="#505759" d="M74.6 378.506c.602-10.575 67.018-5.757 118.832-20.651 51.814-14.894 20.385-52.762 20.385-52.762h81.05s93.976 62.838-101.435 113.804L74.6 378.507z" mask="url(#b)"/>
        <g mask="url(#b)">
            <g transform="translate(451.733 219.969)">
                <mask id="d" fill="#fff">
                    <use xlink:href="#c"/>
                </mask>
                <path fill="#82BF00" d="M64.227 38.695c5.803-6.626 5.126-16.693-1.512-22.486a15.999 15.999 0 0 0-1.788-1.351 9.414 9.414 0 0 0 1.51-5.13C62.571 4.71 58.603.534 53.575.4a9.106 9.106 0 0 0-9.033 6.716A13.55 13.55 0 0 0 32.887.404c-7.589.104-13.662 6.32-13.577 13.895-.001 1.634.28 3.255.834 4.793-.274 0-.554-.045-.834-.045-6.1.07-10.989 5.06-10.922 11.15 0 .38 0 .756.057 1.125A13.856 13.856 0 0 0 .243 44.035c-.081 7.56 5.99 13.756 13.565 13.844.787 0 1.574-.07 2.35-.21a17.06 17.06 0 0 0-.064 1.399c0 8.581 6.814 15.535 15.22 15.535a14.934 14.934 0 0 0 8.668-2.766 11.18 11.18 0 0 0 7.35 2.76c6.35-.07 11.443-5.266 11.373-11.606v-.002c0-.28 0-.553-.038-.826h.038c6.802-.077 12.253-5.643 12.176-12.432v-.001a12.454 12.454 0 0 0-6.654-11.035" mask="url(#d)"/>
            </g>
            <g transform="translate(451.733 219.969)">
                <mask id="f" fill="#fff">
                    <use xlink:href="#e"/>
                </mask>
                <path fill="#FFF" fill-opacity=".5" d="M64.227 38.695c5.803-6.626 5.126-16.693-1.512-22.486a15.999 15.999 0 0 0-1.788-1.351 9.414 9.414 0 0 0 1.51-5.13C62.571 4.71 58.603.534 53.575.4a9.106 9.106 0 0 0-9.033 6.716A13.55 13.55 0 0 0 32.887.404c-7.589.104-13.662 6.32-13.577 13.895-.001 1.634.28 3.255.834 4.793-.274 0-.554-.045-.834-.045-6.1.07-10.989 5.06-10.922 11.15 0 .38 0 .756.057 1.125A13.856 13.856 0 0 0 .243 44.035c-.081 7.56 5.99 13.756 13.565 13.844.787 0 1.574-.07 2.35-.21a17.06 17.06 0 0 0-.064 1.399c0 8.581 6.814 15.535 15.22 15.535a14.934 14.934 0 0 0 8.668-2.766 11.18 11.18 0 0 0 7.35 2.76c6.35-.07 11.443-5.266 11.373-11.606v-.002c0-.28 0-.553-.038-.826h.038c6.802-.077 12.253-5.643 12.176-12.432v-.001a12.454 12.454 0 0 0-6.654-11.035" mask="url(#f)"/>
            </g>
            <path fill="#552615" d="M489.416 335.11h1.777v-86.543h-1.777z"/>
            <path fill="#552615" d="M489.263 267.645l14.595-15.732 1.303 1.205-14.595 15.732zM474.245 271.291l1.06-1.423 15.133 11.217-1.059 1.424z"/>
        </g>
        <g mask="url(#b)">
            <g transform="translate(59 17)">
                <path fill="#007FA3" d="M9.967 153.553h380.066l9.967 12.63H0z"/>
                <path fill="#FFF" d="M200 0l47.176 29.248h-94.352zM159.468 29.248h80.399v44.537h-80.399zM154.817 73.785h90.365v92.398h-90.365z"/>
                <path fill="#002F58" d="M179.718 100.692c6.76-4.643 13.521-6.965 20.282-6.965 6.76 0 13.521 2.322 20.282 6.965a5.323 5.323 0 0 1 2.31 4.388v61.103h-45.183V105.08c0-1.754.863-3.395 2.309-4.388z" opacity=".2"/>
                <path fill="#F5F5F5" d="M154.817 166.183h90.365v122.311h-90.365z"/>
                <path fill="#007FA3" d="M9.732 288.672h153.771V295H9.732zM236.496 288.672h153.771V295H236.496z"/>
                <path fill="#D8D8D8" d="M146.179 166.183H253.82v7.312H146.179z"/>
                <path fill="#F5F5F5" d="M9.967 166.183H146.18v122.311H9.967zM253.821 166.183h136.213v122.311H253.821z"/>
                <path fill="#007FA3" d="M154.817 73.785h90.365v3.324h-90.365zM152.824 29.248h94.352v3.324h-94.352z"/>
                <path fill="#002F58" d="M173.39 247.547c9.241-3.994 18.111-5.99 26.61-5.99 8.499 0 17.369 1.996 26.61 5.99V288.5h-53.22v-40.954zM178.738 201.414h42.525v25.925h-42.525zM29.9 184.795h21.927v23.266H29.9zM273.754 184.795h21.927v23.266h-21.927zM67.11 184.795h21.927v23.266H67.11zM310.963 184.795h21.927v23.266h-21.927zM29.9 218.032h21.927v23.266H29.9zM273.754 218.032h21.927v23.266h-21.927zM67.11 218.032h21.927v23.266H67.11zM310.963 218.032h21.927v23.266h-21.927zM29.9 251.269h21.927v23.266H29.9zM273.754 251.269h21.927v23.266h-21.927zM67.11 251.269h21.927v23.266H67.11zM310.963 251.269h21.927v23.266h-21.927zM104.319 184.795h21.927v23.266h-21.927zM348.173 184.795H370.1v23.266h-21.927zM104.319 218.032h21.927v23.266h-21.927zM348.173 218.032H370.1v23.266h-21.927zM104.319 251.269h21.927v23.266h-21.927zM348.173 251.269H370.1v23.266h-21.927z" opacity=".2"/>
                <path fill="#FFF" d="M146.179 166.183h17.276v122.311h-17.276zM236.545 166.183h17.276v122.311h-17.276z"/>
                <path fill="#005A71" fill-rule="nonzero" d="M192.36 191.57v-8.094h1.732v8.094h-1.732zm4.505 0v-8.094h1.733v8.094h-1.733zm7.658 0h-1.733v-6.666h-2.22v-1.428h6.172v1.428h-2.22v6.666z"/>
                <ellipse cx="199.336" cy="51.849" fill="#002F58" opacity=".2" rx="11.96" ry="11.965"/>
            </g>
        </g>
        <g fill-rule="nonzero" mask="url(#b)">
            <g transform="matrix(-1 0 0 1 401.685 276.43)">
                <path fill="#005A70" d="M26.751 46.663c.04.683-1.747 1.693-1.747 1.693s-1.583.682-1.894.752c-.31.07-2.337.753-2.337.753-.923.093-.87-.706-.87-.706s-.381-.97-.381-1.079a3.964 3.964 0 0 0-.147-.56l-.467-1.024s.195.1.7.108c.505.008 1.165-.651 1.165-.651.1-.051.168-.265.215-.51a.419.419 0 0 1 .701-.223c.213.205.458.431.699.626.636.515 1.763.37 1.763.37.274.071.564.05.824-.06a.39.39 0 0 0 .068-.042c.343-.12.696-.208 1.055-.263.413-.04.615.132.653.816z"/>
                <path fill="#E8F5FF" d="M26.751 46.663c.04.683-1.747 1.693-1.747 1.693s-1.583.682-1.894.752c-.31.07-2.337.753-2.337.753-.318.032-.52-.042-.648-.152a.528.528 0 0 1-.093-.101.779.779 0 0 1-.128-.453c.345-.04.685-.107 1.018-.202 0 0 2.695-.746 3.053-1.032 0 0 1.298-.583 1.367-.863 0 0-.382-.562-.37-.907a.39.39 0 0 0 .067-.04c.343-.12.696-.209 1.056-.264.416-.04.618.132.656.816z"/>
                <path fill="#B77B7F" d="M6.86 25.504l.508 1.083V18.54H6.86z"/>
                <path fill="#000" d="M6.86 25.504l.508 1.083V18.54H6.86z" opacity=".1"/>
                <path fill="#B77B7F" d="M8.842 26.586H7.366v-8.923h1.476z"/>
                <ellipse cx="8.225" cy="18.375" fill="#000" opacity=".1" rx="1" ry="1"/>
                <ellipse cx="8.225" cy="18.282" fill="#918C9E" rx="1" ry="1"/>
                <path fill="#4E4E4E" d="M13.741 4.74a2.471 2.471 0 0 0-.177.51c-.043.235-.016.482-.085.71-.1.332-.382.57-.604.834a2.984 2.984 0 0 0-.708 1.971c.007.416.1.833.046 1.246-.044.324-.18.628-.254.946a4.016 4.016 0 0 0-.085.916 8.883 8.883 0 0 0 .56 3.082.279.279 0 0 0 .08.127.298.298 0 0 0 .146.048l.913.128a.39.39 0 0 0 .255-.02.382.382 0 0 0 .134-.183c.672-1.486.787-3.159.778-4.79-.01-1.631-.128-3.271.1-4.884.074-.51.183-1.018.218-1.527.021-.332-.116-1.093-.59-.701-.36.308-.544 1.161-.727 1.588z"/>
                <path fill="#000" d="M14.824 3.083a1.4 1.4 0 0 1 .014.282c-.035.516-.144 1.018-.218 1.527-.234 1.613-.11 3.253-.1 4.885.01 1.63-.106 3.308-.778 4.789a.382.382 0 0 1-.135.181.39.39 0 0 1-.254.022l-.915-.127a.289.289 0 0 1-.145-.047l-.014-.015c.039.117.078.232.121.348a.3.3 0 0 0 .08.127.289.289 0 0 0 .145.047l.915.128a.39.39 0 0 0 .254-.02.382.382 0 0 0 .128-.184c.671-1.485.787-3.16.777-4.789-.01-1.63-.127-3.271.1-4.884.075-.51.184-1.018.218-1.527.02-.206-.03-.593-.193-.743z" opacity=".1"/>
                <path fill="#FFC2C8" d="M13.261 11.978c.16.296.335.584.525.862l-2.64-1.086S8.569 9.859 9.159 9.766c.138-.023.338-.254.56-.587.432-.693.82-1.412 1.164-2.152.316-.658.543-1.174.543-1.174l2.36 1.087c-.24.382-.457.777-.652 1.184a7.151 7.151 0 0 0-.528 1.425c-.164.706.269 1.714.655 2.429zM8.04 27.234s-.325 1.211-.325 1.491-.187.89-.187.89-.836 1.865-.849 3.215l-.688 1.84-.745 1.328s-2.12 2.587-2.492 5.102L1.31 45.381l2.608.163a1.991 1.991 0 0 1 .302-1.794c.653-.89 1.748-2.935 1.748-2.935l1.024-2.096s.56-1.21 1.049-1.445c.488-.234 1.304-1.117 1.583-1.84l2.61-5.898 1.237-2.977-5.43.675z"/>
                <path fill="#000" d="M13.471 26.559l-1.237 2.977-2.61 5.893c-.28.723-1.094 1.607-1.583 1.84-.49.233-1.049 1.445-1.049 1.445l-1.026 2.101S4.87 42.866 4.218 43.75a1.999 1.999 0 0 0-.382 1.005c-.027.266.001.535.084.79l-2.608-.164.189-.557 1.255-3.73c.373-2.515 2.492-5.101 2.492-5.101l.746-1.327.688-1.841c.013-1.35.849-3.214.849-3.214s.187-.606.187-.89c0-.286.325-1.492.325-1.492l5.428-.67z" opacity=".03"/>
                <path fill="#000" d="M3.918 45.544l-2.608-.163.188-.557c.214.346 1.721.37 1.721.37.186-.17.393-.318.615-.439-.028.266 0 .535.084.79z" opacity=".1"/>
                <path fill="#005A70" d="M6.73 49.55l-1.75.094s-1.29-.209-1.756-.466c-.465-.257-1.399-.373-2.282-.581-.883-.21-.908-.56-.908-.56a1.886 1.886 0 0 1-.006-.677c0-.015 0-.03.006-.045.07-.467.698-1.235.698-1.235s.047-.51.163-.536c.116-.027.21-.745.255-.89.044-.145.332.22.332.22.127.381 1.74.41 1.74.41.214-.2.458-.365.722-.49.349-.14.21 1.304.21 1.304-.05.642.27 1.256.823 1.584.195.467.854.373.854.373l.098.028 1.206.321a.655.655 0 0 1-.406 1.145z"/>
                <path fill="#E8F5FF" d="M6.73 49.55l-1.75.094s-1.29-.209-1.756-.466c-.465-.257-1.399-.373-2.282-.581-.883-.21-.908-.56-.908-.56s-.006-.026-.014-.074-.009-.066-.013-.11c-.01-.165-.003-.33.02-.493l1.893.654s1.4.465 1.933.558c0 0 1.888.14 2.073.14.136 0 .128-.336 0-.624l1.206.321a.655.655 0 0 1-.403 1.14z"/>
                <ellipse cx="2.654" cy="47.845" fill="#E8F5FF" rx="1" ry="1"/>
                <ellipse cx="3.132" cy="45.707" fill="#E8F5FF" rx="1" ry="1"/>
                <ellipse cx="3.33" cy="46.267" fill="#E8F5FF" rx="1" ry="1"/>
                <ellipse cx="3.583" cy="46.803" fill="#E8F5FF" rx="1" ry="1"/>
                <ellipse cx="3.927" cy="47.297" fill="#E8F5FF" rx="1" ry="1"/>
                <ellipse cx="4.312" cy="47.687" fill="#E8F5FF" rx="1" ry="1"/>
                <ellipse cx="4.771" cy="48.066" fill="#E8F5FF" rx="1" ry="1"/>
                <ellipse cx="5.313" cy="48.357" fill="#E8F5FF" rx="1" ry="1"/>
                <ellipse cx="3.219" cy="48.014" fill="#E8F5FF" rx="1" ry="1"/>
                <path fill="#898989" d="M11.235 26.492l-.296 1.345c.736.912 1.09 1.575 1.06 1.99-.144 2.048-1.597 4.092-1.957 5.076-1.003 2.746-3.287 4.426-4.01 6.222-1.23 3.055-1.84 4.62-1.83 4.693l-2.007-.423L.81 44.98c1.116-2.913 1.956-4.993 2.521-6.241.926-2.044 2.171-3.978 2.702-5.342.297-.765.6-1.537.828-2.227.367-1.113.7-2.55.997-4.309l3.398-.459-.02.09z"/>
                <path fill="#000" d="M13.786 6.938c-.24.382-.457.777-.652 1.183h-.032a2.783 2.783 0 0 1-2.22-1.098c.317-.658.544-1.174.544-1.174l2.36 1.089z" opacity=".1"/>
                <ellipse cx="13.102" cy="5.14" fill="#FFC2C8" rx="2.795" ry="2.795"/>
                <path fill="#FFC2C8" d="M14.166 17.73l1.956 1.188 3.005 1.817s1.654 1.026 2.445.89c.791-.134 3.68.84 2.074 1.585-1.607.745-3.448-.35-3.448-.35s-.908-.582-1.257-.582c-.348 0-4.775-2.12-4.775-2.12V17.73z"/>
                <path fill="#C1C1C1" d="M22.802 45.818c-.433.226-.787.679-1.276.698-.72 0-2.236.3-2.885.65l-5.17-12.319-3.351-5.628-1.277-1.587-.343-.56s1.309-.318 2.729-.58c1.685-.313 3.526-.55 3.513-.09.001.228 2.366 4.794 2.445 5.008.098.275.223.54.373.79.1.17 5.124 13.46 5.242 13.618z"/>
                <path fill="#FFB81C" d="M14.934 25.254s.397 1.492-.115 1.654c-.513.163-2.418.21-2.418.21s-1.983.979-2.619.466c-.445-.363-1.736-.014-2.452.221-.297.097-.494.175-.494.175s-.524-2.586.314-4.072c.838-1.486-.254-5.1-.303-5.45a11.057 11.057 0 0 1-.007-.899c.02-1.192.105-3.142.24-3.41.144-.324.261-.66.35-1.002 0 0 .117-.933.303-1.073.186-.14.254-.581.254-.581s.234-.979.467-1.236.326-1.048.326-1.048c.267-.057.544-.046.806.032a3.9 3.9 0 0 1 1.977 1.198c.636.71 1.8 1.717 1.8 1.717l1.48 1.614c.978 1.467.442 3.587-.07 4.613-.255.521-.225 1.526-.128 2.395.109.939.143 1.884.101 2.827-.062 1.23.188 1.65.188 1.65z"/>
                <path fill="#FFC2C8" d="M10.743 12.955l-.255 1.527s-1.676 3.635-1.955 4.081c-.279.447-.56 1.58-.56 1.58s-.093 2.026-.28 2.417c-.187.39-.395 2.84-.395 2.84l-.116 1.632S7.69 29.576 5.9 29.99c-1.79.414-.444-3.104-.33-3.38.115-.277.187-2.586.187-2.843 0-.257.349-3.982.443-4.216.096-.32.174-.645.233-.974l.651-2.473.42-2.097.158-.29.54-.991 1.794-.583.746.812z"/>
                <path fill="#FFB81C" d="M9.834 9.787s-1.258.558-1.444 1.35c-.185.794-.89 2.866-.89 2.866s3.075-2.445 2.98.489c.243-.285.383-.644.397-1.018.046-.676.699-2.12.152-2.725a5.045 5.045 0 0 0-1.195-.962z"/>
                <path fill="#4E4E4E" d="M16.143 3.948c.509-.733.282-1.868-.466-2.353-.353-.229-.78-.316-1.159-.502-.416-.206-.763-.528-1.173-.75-1.003-.547-2.3-.414-3.255.214-.954.629-1.57 1.698-1.781 2.821-.145.763-.117 1.576-.396 2.308-.564 1.478-2.245 2.307-2.798 3.789-.255.67-.255 1.4-.272 2.12a23.93 23.93 0 0 1-2.102 9.033c-.219.485-.499 1.004-.999 1.185.84.184 1.736-.041 2.47-.488.736-.446 1.326-1.098 1.826-1.797a11.534 11.534 0 0 0 2.116-7.23c-.03-.568-.085-1.194.254-1.654.34-.46.937-.585 1.39-.91 1.092-.78 1.068-2.369 1.47-3.649.058-.229.171-.44.33-.615 1.197-1.17 3.527-.191 4.545-1.522z"/>
                <ellipse cx="21.526" cy="46.725" fill="#E8F5FF" rx="1" ry="1"/>
                <ellipse cx="22.094" cy="46.946" fill="#E8F5FF" rx="1" ry="1"/>
                <ellipse cx="22.692" cy="47.056" fill="#E8F5FF" rx="1" ry="1"/>
                <ellipse cx="23.282" cy="47.126" fill="#E8F5FF" rx="1" ry="1"/>
                <ellipse cx="23.895" cy="47.126" fill="#E8F5FF" rx="1" ry="1"/>
                <ellipse cx="24.516" cy="47.056" fill="#E8F5FF" rx="1" ry="1"/>
            </g>
        </g>
        <g mask="url(#b)">
            <g transform="translate(4.73 208.086)">
                <mask id="h" fill="#fff">
                    <use xlink:href="#g"/>
                </mask>
                <path fill="#82BF00" d="M64.227 38.695c5.803-6.626 5.126-16.693-1.512-22.486a15.999 15.999 0 0 0-1.788-1.351 9.414 9.414 0 0 0 1.51-5.13C62.571 4.71 58.603.534 53.575.4a9.106 9.106 0 0 0-9.033 6.716A13.55 13.55 0 0 0 32.887.404c-7.589.104-13.662 6.32-13.577 13.895-.001 1.634.28 3.255.834 4.793-.274 0-.554-.045-.834-.045-6.1.07-10.989 5.06-10.922 11.15 0 .38 0 .756.057 1.125A13.856 13.856 0 0 0 .243 44.035c-.081 7.56 5.99 13.756 13.565 13.844.787 0 1.574-.07 2.35-.21a17.06 17.06 0 0 0-.064 1.399c0 8.581 6.814 15.535 15.22 15.535a14.934 14.934 0 0 0 8.668-2.766 11.18 11.18 0 0 0 7.35 2.76c6.35-.07 11.443-5.266 11.373-11.606v-.002c0-.28 0-.553-.038-.826h.038c6.802-.077 12.253-5.643 12.176-12.432v-.001a12.454 12.454 0 0 0-6.654-11.035" mask="url(#h)"/>
            </g>
            <g transform="translate(4.73 208.086)">
                <mask id="j" fill="#fff">
                    <use xlink:href="#i"/>
                </mask>
                <path fill="#FFF" fill-opacity=".5" d="M64.227 38.695c5.803-6.626 5.126-16.693-1.512-22.486a15.999 15.999 0 0 0-1.788-1.351 9.414 9.414 0 0 0 1.51-5.13C62.571 4.71 58.603.534 53.575.4a9.106 9.106 0 0 0-9.033 6.716A13.55 13.55 0 0 0 32.887.404c-7.589.104-13.662 6.32-13.577 13.895-.001 1.634.28 3.255.834 4.793-.274 0-.554-.045-.834-.045-6.1.07-10.989 5.06-10.922 11.15 0 .38 0 .756.057 1.125A13.856 13.856 0 0 0 .243 44.035c-.081 7.56 5.99 13.756 13.565 13.844.787 0 1.574-.07 2.35-.21a17.06 17.06 0 0 0-.064 1.399c0 8.581 6.814 15.535 15.22 15.535a14.934 14.934 0 0 0 8.668-2.766 11.18 11.18 0 0 0 7.35 2.76c6.35-.07 11.443-5.266 11.373-11.606v-.002c0-.28 0-.553-.038-.826h.038c6.802-.077 12.253-5.643 12.176-12.432v-.001a12.454 12.454 0 0 0-6.654-11.035" mask="url(#j)"/>
            </g>
            <path fill="#552615" d="M42.412 323.228h1.777v-86.544h-1.777z"/>
            <path fill="#552615" d="M42.26 255.763l14.594-15.732 1.303 1.205-14.594 15.732zM27.242 259.41l1.06-1.425 15.132 11.218-1.059 1.424z"/>
        </g>
        <g mask="url(#b)">
            <g transform="translate(35.79 249.612)">
                <g transform="translate(0 .093)">
                    <mask id="l" fill="#fff">
                        <use xlink:href="#k"/>
                    </mask>
                    <path fill="#82BF00" d="M52.227 31.511c4.737-5.388 4.185-13.575-1.234-18.285-.46-.4-.947-.767-1.459-1.099a7.636 7.636 0 0 0 1.232-4.171c.11-4.081-3.129-7.477-7.233-7.586-3.431-.09-6.479 2.166-7.374 5.462A11.069 11.069 0 0 0 26.646.373c-6.194.085-11.151 5.14-11.082 11.3-.001 1.328.23 2.647.68 3.897-.222 0-.451-.036-.68-.036-4.98.057-8.97 4.115-8.915 9.066 0 .31 0 .615.047.915A11.264 11.264 0 0 0 0 35.853C-.066 42 4.89 47.04 11.073 47.11c.643 0 1.285-.058 1.918-.17-.031.377-.052.754-.052 1.137 0 6.977 5.562 12.632 12.423 12.632a12.22 12.22 0 0 0 7.075-2.248 9.149 9.149 0 0 0 5.999 2.243c5.185-.057 9.341-4.282 9.284-9.437v-.001c0-.228 0-.45-.03-.672h.03c5.552-.062 10.002-4.589 9.939-10.11a10.124 10.124 0 0 0-5.432-8.974" mask="url(#l)"/>
                </g>
                <mask id="n" fill="#fff">
                    <use xlink:href="#m"/>
                </mask>
                <path fill="#552615" d="M30.56 92.118h1.451V21.742h-1.45z" mask="url(#n)"/>
                <path fill="#552615" d="M30.436 38.907l11.913-12.792 1.064.98L31.5 39.887zM18.178 41.873l.865-1.158 12.352 9.123-.864 1.157z" mask="url(#n)"/>
            </g>
        </g>
        <g mask="url(#b)">
            <g transform="translate(439.94 265.023)">
                <g transform="translate(0 .093)">
                    <mask id="p" fill="#fff">
                        <use xlink:href="#o"/>
                    </mask>
                    <path fill="#82BF00" d="M52.227 31.511c4.737-5.388 4.185-13.575-1.234-18.285-.46-.4-.947-.767-1.459-1.099a7.636 7.636 0 0 0 1.232-4.171c.11-4.081-3.129-7.477-7.233-7.586-3.431-.09-6.479 2.166-7.374 5.462A11.069 11.069 0 0 0 26.646.373c-6.194.085-11.151 5.14-11.082 11.3-.001 1.328.23 2.647.68 3.897-.222 0-.451-.036-.68-.036-4.98.057-8.97 4.115-8.915 9.066 0 .31 0 .615.047.915A11.264 11.264 0 0 0 0 35.853C-.066 42 4.89 47.04 11.073 47.11c.643 0 1.285-.058 1.918-.17-.031.377-.052.754-.052 1.137 0 6.977 5.562 12.632 12.423 12.632a12.22 12.22 0 0 0 7.075-2.248 9.149 9.149 0 0 0 5.999 2.243c5.185-.057 9.341-4.282 9.284-9.437v-.001c0-.228 0-.45-.03-.672h.03c5.552-.062 10.002-4.589 9.939-10.11a10.124 10.124 0 0 0-5.432-8.974" mask="url(#p)"/>
                </g>
                <mask id="r" fill="#fff">
                    <use xlink:href="#q"/>
                </mask>
                <path fill="#552615" d="M30.56 92.118h1.451V21.742h-1.45z" mask="url(#r)"/>
                <path fill="#552615" d="M30.436 38.907l11.913-12.792 1.064.98L31.5 39.887zM18.178 41.873l.865-1.158 12.352 9.123-.864 1.157z" mask="url(#r)"/>
            </g>
        </g>
        <g mask="url(#b)">
            <g fill-rule="nonzero" transform="matrix(-1 0 0 1 349.398 290)">
                <path fill="#EA7600" d="M.826 27.116l-.319 2.507c-.111.848-.223 1.695-.28 2.54C.03 35 .396 37.845.3 40.69c-.073 2.19-.423 4.377-.255 6.557.15 1.933.701 3.808 1.25 5.665l.783 2.656a.71.71 0 0 0 .198.365c.15.088.327.116.497.08l3.469-.318c-.22-1.012-.468-2.072-.586-3.103-.096-.816-.153-1.638-.21-2.457-.185-2.555-.396-5.106-.606-7.658l-.357-4.465c-.159-1.946-.318-3.901-.812-5.79a11.521 11.521 0 0 0-2.845-5.106z"/>
                <path fill="#000" d="M.826 27.116l-.319 2.507c-.111.848-.223 1.695-.28 2.54C.03 35 .396 37.845.3 40.69c-.073 2.19-.423 4.377-.255 6.557.15 1.933.701 3.808 1.25 5.665l.783 2.656a.71.71 0 0 0 .198.365c.15.088.327.116.497.08l3.469-.318c-.22-1.012-.468-2.072-.586-3.103-.096-.816-.153-1.638-.21-2.457-.185-2.555-.396-5.106-.606-7.658l-.357-4.465c-.159-1.946-.318-3.901-.812-5.79a11.521 11.521 0 0 0-2.845-5.106z" opacity=".1"/>
                <path fill="#000" d="M7.007 112.365c-.203.4-.38.813-.532 1.235-.399 1.164-.46 2.412-.517 3.643-.026.237-.003.477.067.705.17.44.66.666 1.119.79 1.911.514 3.95.029 5.932-.146 1.981-.175 3.928-.05 5.833-.476.28-.054.552-.148.806-.28a2.508 2.508 0 0 0 1.023-1.33c.058-.138.097-.284.114-.434.064-.635-.503-1.21-1.118-1.422-.615-.212-1.274-.178-1.937-.244a6.088 6.088 0 0 1-5.416-5.078c-.022-.14-3.208-.057-3.546.127-.392.213-.637.749-.85 1.11a28.785 28.785 0 0 0-.978 1.8z"/>
                <path fill="#000" d="M12.289 113.301c-.202.4-.38.811-.532 1.232-.399 1.168-.46 2.415-.513 3.646-.029.237-.007.477.063.705.17.441.66.666 1.122.79 1.911.514 3.947.029 5.929-.149 1.981-.178 3.928-.048 5.833-.473a2.98 2.98 0 0 0 .81-.28 2.518 2.518 0 0 0 1.019-1.329c.058-.139.097-.285.114-.435.064-.634-.503-1.209-1.118-1.422-.615-.212-1.274-.177-1.937-.244a6.097 6.097 0 0 1-5.4-5.078c-.022-.143-3.208-.057-3.546.124-.392.216-.637.752-.85 1.114a24.333 24.333 0 0 0-.994 1.8z"/>
                <path fill="#33313F" d="M26.068 81.974c.04 6.373-1.82 12.603-4.002 18.591a168.997 168.997 0 0 1-2.75 7.055c-.573 1.381-1.22 2.914-.605 4.275-1.77-.67-3.584-1.066-5.454-.758.714-1.444.637-3.123.679-4.732.06-2.184.296-4.36.704-6.506a36.086 36.086 0 0 1 3.186-9.4c.301-.628.51-1.297.618-1.984a12.53 12.53 0 0 0-.261-4.59 27.236 27.236 0 0 0-3.823-9.317.965.965 0 0 1-.02.19c-.11.948-.269 1.89-.477 2.821-.418 1.974-.905 3.948-.832 5.932a32.02 32.02 0 0 1-.392 6.294 9.439 9.439 0 0 1-.637 2.377c-.204.457-.468.885-.637 1.358a6.205 6.205 0 0 0-.249 1.679 56.636 56.636 0 0 0 .985 14.377 9.236 9.236 0 0 0-4.779 1.082 58.38 58.38 0 0 1-2.517-10.353 34.271 34.271 0 0 1 .386-12.52c.28-1.374.386-2.777.318-4.177-.127-2.786-.815-5.512-1.5-8.216l-1.042-4.126c-.493-1.957-.988-3.914-1.485-5.871-.318-1.302-.66-2.631-.557-3.97a9.84 9.84 0 0 1 .462-2.159 24.048 24.048 0 0 1 3.278-6.665c5.703.318 11.469-.212 17.172-.634a.856.856 0 0 1 .8.13.85.85 0 0 1 .33.736l2.142 12.08c.346 1.68.55 3.387.608 5.102 0 1.711-.268 3.415-.204 5.123.105 2.294.542 4.472.555 6.776z"/>
                <path fill="#000" d="M14.36 74.81c-.11.949-.27 1.89-.478 2.822-1.243-2.139-2.578-4.224-3.721-6.414-.294-.565-.574-1.136-.857-1.707l-.842-1.714c-.156-.318-.318-.635-.458-.952a7.183 7.183 0 0 1-.53-1.486c.415-.076 1.438 1.041 1.747 1.33.63.621 1.225 1.276 1.784 1.961.675.76 1.295 1.568 1.854 2.416a11.717 11.717 0 0 1 1.5 3.745z" opacity=".1"/>
                <path fill="#EFB7B9" d="M19.103 16.145s-3.166 5.027-2.58 6.08c.586 1.054-9.978-.936-9.978-.936s5.734-5.027 5.164-7.134c-.57-2.108 7.394 1.99 7.394 1.99z"/>
                <ellipse cx="16.287" cy="10.53" fill="#EFB7B9" rx="7.162" ry="7.134"/>
                <path fill="#EA7600" d="M19.212 21.403a7.322 7.322 0 0 0-3.014-2.421 10.895 10.895 0 0 0-2.138-.524l-2.867-.501c-.701-.124-1.45-.238-2.1.047-.332.169-.634.39-.895.654-.99.914-1.953 1.924-3.186 2.45-.34.146-.697.251-1.038.397-1.393.597-2.434 1.847-3.027 3.237-.621 1.46-.637 3.04-.59 4.624 0 .547.055 1.092.163 1.628.143.512.324 1.011.542 1.495.395 1.037.724 2.097.987 3.174a97.619 97.619 0 0 1 1.848 8.569c.043.414.166.816.36 1.184.275.369.609.69.988.952.3.248.576.522.828.819.121.127.21.28.261.447.093.429-.286.79-.592 1.101a5.343 5.343 0 0 0-1.338 2.32.918.918 0 0 0-.21.635.728.728 0 0 1-.204.924 1.582 1.582 0 0 0-.297 1.27 20.167 20.167 0 0 0 7.01 1.637c.592.025 1.184.025 1.774.098.417.051.831.14 1.252.19.61.057 1.225.072 1.838.045 3.186-.063 6.467-.143 9.395-1.403.274-1.494-.319-3.018-.691-4.494-.593-2.345-.743-4.76-1.182-7.153-.303-1.628-.743-3.231-.991-4.865-.249-1.635-.319-3.333.14-4.926.398-1.412.52-2.856.934-4.256.414-1.4.707-2.933.239-4.323-.58-1.761-2.361-3.113-4.2-3.03z"/>
                <path fill="#33313F" d="M22.729 6.747c.347-1.27-.338-2.583-1.157-3.611-.882-1.108-2.02-2.105-3.405-2.38-1.131-.23-2.3.044-3.447-.045-1.017-.083-1.992-.444-3.005-.575A9.594 9.594 0 0 0 8.97.238c-.86.125-1.7.36-2.5.698C3.418 2.282 1.631 5.605 1.217 8.9c-.414 3.294.318 6.617 1.035 9.86l.653 2.93c.679 3.05 1.36 6.119 1.542 9.239.182 3.12-.156 6.322-1.443 9.169a19.755 19.755 0 0 0 9.096-10.261c.465-1.206.806-2.456 1.319-3.643.443-1.022 1.006-1.987 1.398-3.028a9.862 9.862 0 0 0 .637-3.682c-.022-.952-.181-1.878-.152-2.824.028-.946.267-1.927.923-2.609.58-.606 1.409-.895 2.157-1.27a8.935 8.935 0 0 0 3.014-2.504c.472-.612.497-.875.618-1.586.121-.711.529-1.273.714-1.943z"/>
                <path fill="#EFB7B9" d="M22.738 60.339c.07.733-.06 1.485.1 2.221.12.54.4 1.032.566 1.562.166.612.25 1.244.252 1.878.025.53 0 1.178-.49 1.425-.208.112-.456.115-.673.207-.217.092-.398.352-.277.549.12.197.34.171.535.21.194.037.405.237.293.4a.354.354 0 0 1-.172.11 1.982 1.982 0 0 0-.554.264.56.56 0 0 0-.23.54.334.334 0 0 0 .478.218 1.5 1.5 0 0 0-.14.587c.755.318 1.593-.098 2.316-.51.309-.17.607-.36.892-.566a4.436 4.436 0 0 0 1.72-3.764 8.26 8.26 0 0 0-.168-1.079 16.22 16.22 0 0 0-.434-1.828c-.203-.634-.484-1.24-.723-1.863-.513-1.323-.84-2.71-1.3-4.053a.634.634 0 0 0-.223-.352.64.64 0 0 0-.318-.06 5.462 5.462 0 0 0-1.542.143c-.319.089-.806.282-.956.6-.15.317.083.545.214.79a6.6 6.6 0 0 1 .834 2.37z"/>
                <path fill="#000" d="M22.254 24.501c.152.156.28.333.38.527 1.015 1.84 1.028 4.046 1.076 6.147.054 2.368.185 4.732.319 7.094l.388 7.067c.035.676.074 1.352.17 2.022.455.114.474.705.423 1.171-.319 2.882-1.144 5.852-.29 8.626a.84.84 0 0 0 .2.388 2.296 2.296 0 0 0-1.325-.02c-.423.09-.834.245-1.274.34-.538.124-1.15.175-1.517.587a29.393 29.393 0 0 1-.99-3.808c-.201-1.175-.258-2.396-.736-3.491-.195-.441-.456-.85-.692-1.27-1.242-2.221-1.85-4.7-2.446-7.16a10.434 10.434 0 0 1-.188-3.557c.084-.542.135-1.087.15-1.635a13.727 13.727 0 0 0-.23-1.723 11.523 11.523 0 0 1 .344-4.986c.446-1.501.838-3.082 1.768-4.345s2.896-1.952 4.47-1.974z" opacity=".1"/>
                <path fill="#EA7600" d="M22.605 24.26c.153.153.28.33.379.523 1.02 1.844 1.032 4.047 1.08 6.151.054 2.365.181 4.729.318 7.093l.389 7.065c.038.676.076 1.352.169 2.022.458.114.478.704.423 1.17-.318 2.886-1.14 5.853-.286 8.63.031.143.1.275.197.384a2.312 2.312 0 0 0-1.322-.019c-.427.089-.835.244-1.274.34-.539.123-1.15.177-1.52.587a29.643 29.643 0 0 1-.99-3.809c-.201-1.174-.256-2.393-.737-3.49-.194-.442-.452-.848-.688-1.27-1.242-2.222-1.85-4.704-2.446-7.16a10.52 10.52 0 0 1-.192-3.558c.085-.542.135-1.089.15-1.637a13.155 13.155 0 0 0-.226-1.724 11.526 11.526 0 0 1 .344-4.986c.446-1.5.835-3.081 1.768-4.341.934-1.26 2.909-1.943 4.464-1.971z"/>
                <g fill="#000" opacity=".1">
                    <path d="M21.572 3.136c-.882-1.108-2.02-2.105-3.405-2.38-1.131-.23-2.3.044-3.447-.045-1.017-.083-1.992-.444-3.005-.575A9.594 9.594 0 0 0 8.97.238c-.86.125-1.7.36-2.5.698a7.246 7.246 0 0 0-1.237.698c.714-.27 1.456-.463 2.211-.577.906-.166 1.83-.2 2.746-.102 1.013.13 1.988.492 3.004.575 1.147.089 2.317-.184 3.444.041 1.39.28 2.527 1.27 3.41 2.383.818 1.029 1.503 2.346 1.156 3.612-.185.67-.609 1.25-.727 1.94-.118.688-.146.967-.618 1.586a9.037 9.037 0 0 1-2.172 2.015c.229-.107.461-.215.685-.317a8.935 8.935 0 0 0 3.013-2.504c.472-.613.497-.876.618-1.587.121-.71.542-1.27.727-1.939.347-1.279-.338-2.596-1.157-3.624zM16.214 14.05c.123-.126.256-.242.398-.346-.682.317-1.402.635-1.912 1.165-.656.682-.895 1.666-.923 2.609-.03.942.13 1.882.152 2.824a9.874 9.874 0 0 1-.637 3.682c-.392 1.04-.956 2.006-1.398 3.027-.513 1.187-.854 2.438-1.32 3.644a19.767 19.767 0 0 1-7.518 9.324c-.019.038-.035.08-.05.118A19.755 19.755 0 0 0 12.1 29.836c.465-1.206.806-2.456 1.319-3.643.443-1.022 1.006-1.987 1.398-3.028a9.805 9.805 0 0 0 .637-3.682c-.022-.952-.181-1.878-.152-2.824.028-.946.254-1.92.91-2.609z"/>
                </g>
            </g>
            <path fill="#434175" d="M329.652 315.32l2.592-.773 2.793.966.201 1.688-1.382.858-2.189-.07-1.93-.87-.33-1.606z"/>
            <path fill="#000" fill-opacity=".3" d="M329.652 315.32l2.592-.773 2.793.966.201 1.688-1.382.858-2.189-.07-1.93-.87-.33-1.606z"/>
            <path fill="#565387" d="M336.292 313.55l-4.297-2.36a2.597 2.597 0 0 0-2.15-.168 1.97 1.97 0 0 0-.967.745s2.074-.11 4.377 2.489l3.037-.706z"/>
            <path fill="#434175" d="M329.625 315.924s-.346 1.917 3.725 1.068l2.714 22.882s-4.524-1.053-5.58-2.232c-1.056-1.18-1.84-3.43-1.583-4.242.258-.812.565-10.1.565-10.1l.159-7.376z"/>
            <g transform="matrix(-1 0 0 1 352.823 318.37)">
                <mask id="t" fill="#fff">
                    <use xlink:href="#s"/>
                </mask>
                <path fill="#434175" d="M5.076.145s-8.142 14.72-3.802 18.048c4.34 3.327 12.468 4.434 15.257 3.327 0 0 1.291.332 1.1-3.538-.193-3.87 1.499-14.675 1.499-14.675L5.076.145z" mask="url(#t)"/>
            </g>
            <path fill="#565387" d="M347.478 319.17s7.65 13.84 3.578 16.962c-4.07 3.123-11.717 4.168-14.339 3.128 0 0-1.212.31-1.033-3.328.178-3.637-1.407-13.79-1.407-13.79l13.201-2.971z"/>
            <path fill="#434175" d="M338.635 312.933s6.428-.762 6.753-.528c0 0 3.406.559 3.406 6.67 0 0 .07 3.512-6.96 5.201 0 0-5.655.476-7.485-1.672-1.83-2.148-.934-5.762-.934-5.762s-.733-2.762-4.143-.85c0 0-.357-1.087 1.183-1.619s8.18-1.44 8.18-1.44"/>
            <path fill="#565387" d="M338.436 312.9s6.25-.718 6.559-.497c0 0 3.313.526 3.313 6.277 0 0 .068 3.305-6.769 4.895 0 0-5.484.447-7.276-1.575-1.79-2.022-.904-5.43-.904-5.43s-.715-2.605-4.028-.8c0 0-.349-1.023 1.149-1.52 1.497-.498 7.956-1.35 7.956-1.35"/>
            <path fill="#434175" d="M341.575 322.367s1.699-.745 1.787.665c0 0 .574 1.412.604 1.577.03.165-.086 1.605-1.411 1.548a2.046 2.046 0 0 1-1.785-1.053s-.29-1.546-.692-1.879c-.402-.332.287-.651.547-.651.323-.042.64-.111.95-.207"/>
            <path fill="#565387" d="M341.75 322.08s1.698-.744 1.784.665c0 0 .577 1.41.604 1.577.027.167-.086 1.603-1.412 1.548a2.063 2.063 0 0 1-1.784-1.053s-.287-1.546-.692-1.879c-.405-.332.29-.664.547-.664.323-.038.641-.103.952-.193"/>
            <path fill="#000" d="M342.598 324.23a.606.606 0 0 0-.618.594c0 .327.277.593.618.593a.605.605 0 0 0 .617-.593.606.606 0 0 0-.617-.593"/>
            <path fill="#434175" d="M342.598 324.176a.606.606 0 0 0-.618.593c0 .328.277.593.618.593a.605.605 0 0 0 .617-.593.606.606 0 0 0-.617-.593M336.84 328.001s6.694-.75 11.373-3.058c0 0 3.687 8.92.749 10.17-2.938 1.252-9.047 3.247-10.757 2.557 0 0-1.022.16-.678-3.086.344-3.247-.688-6.583-.688-6.583"/>
        </g>
        <g mask="url(#b)">
            <g fill-rule="nonzero">
                <path fill="#EE936F" d="M227.943 300.607c-.158.316-.272.65-.34.993a7.672 7.672 0 0 1-.063.273c-.2.994-.34 2.236-.408 2.966-.034.365-.052.599-.052.599s-7.365-.472-6.088-1.65c.326-.327.558-.73.673-1.17.037-.124.07-.248.096-.382.06-.293.1-.59.117-.89v-.228a8.834 8.834 0 0 0-.072-1.455s2.395-.015 4.2.184c1.222.134 2.168.36 1.937.76zM214.287 335.756c-2.562-.083-.675-5.312-.38-6.02.295-.708-.438-2.424-.438-2.424s-.863-4.983-.863-5.311a13.106 13.106 0 0 0-.292-2.018 3.294 3.294 0 0 1 .335-1.976c.294-.453.265-2.265.265-2.265v-2.344l.568-.742 1.463 1.354.406.375.712 2.625-.252 3.76-.141 3.66.881 5.064s.298 6.343-2.264 6.262z"/>
                <path fill="#003057" d="M215.087 308.325a10.71 10.71 0 0 0-.71 2.374 10.22 10.22 0 0 1-.669 2.282l2.854 1.12-1.475-5.776z"/>
                <path fill="#EE936F" d="M233.686 361.48l-.218.42s-.226 1.4-.226 1.431c0 .031-.644.967-.644.967l-1.633.334-.688-.081a8.672 8.672 0 0 0-.267-1.468 8.451 8.451 0 0 0-1.134-2.463s-1.203-2.844-1.633-3.214c-.43-.37-2.067-4.124-1.904-5.031.092-.498.019-2.164-.068-3.553-.068-1.134-.147-2.085-.147-2.085l4.081-2.318.476.72.272.427v.266a6.995 6.995 0 0 1-.364 1.713s-.308 2.103 0 2.473c.307.37 1.278 5.331 1.493 7.625 0 .07 0 .14.02.206.084 1.043.767 1.994 1.45 2.682l.135.133c.314.294.647.566.999.816z"/>
                <path fill="#D4EAE4" d="M233.686 361.314l-.253.5s-.25 1.444-.25 1.476c0 .032-.715.998-.715.998l-1.809.344-1.034-.11c0-.189-.033-.45-.087-.77a8.55 8.55 0 0 0-.133-.637c.383-.158 1-.422 1.788-.782 1.371-.626 1.112-2.032 1.112-2.032.297.265.612.514.944.744.184.119.347.213.437.27z"/>
                <path fill="#003057" d="M233.38 361.584s-.531-.127-.645 1.701c-.115 1.83-2.268 1.336-2.268 1.336s-1.062-.284-1.062.19c.035.435.13.862.284 1.267 0 0 .061 1.086.266 1.344.204.258.071 1.222.071 1.222s.085.718 1.755 0c0 0 1.493-.326 2.73-2.308.04-.068-.149-.283.935-.683 1.083-.4 4.176-3.074 3.935-4.375-.047-.44-.336-.806-.733-.93a1.18 1.18 0 0 0-.967.139 8.016 8.016 0 0 1-.903.445 4.2 4.2 0 0 1-1.29.329c-.34.03-.675.098-1.001.204-.374.114-.839.221-1.107.12z"/>
                <path fill="#EE936F" d="M222.161 348.974a2.99 2.99 0 0 0-.614.684c-.618.91-.988 2.183-1.407 2.73-.537.71-.687 2.092-.687 2.092-.143.907-2.132 5.752-2.685 6.613-.553.86-1.288 3.196-1.288 3.196-.46.558-.433 1.382-.384 1.776 0 .067.016.122.021.158l.014.065-.014.023-.735 1.208-2.341-.313-1.187-.796a3.87 3.87 0 0 0 .268-.482c.647-1.395 1.11-3.889 1.11-3.889s.649-2.852.6-3.505c.017-.905.082-1.808.194-2.706 0 0 1.83-5.444 2.416-6.336.248-.346.4-.748.443-1.167a.932.932 0 0 0 0-.259l.792-.76s6.505.885 5.484 1.668z"/>
                <path fill="#D4EAE4" d="M213.966 369.752l-2.364.655-2.175-1.827.11-1.03c.152-.111.287-.251.399-.414.16-.212.27-.468.316-.743.126-.755 2.193.073 2.193.073s1.51.326 2.097-.216a4.706 4.706 0 0 0 .113 1.486c.055.236.177.444.348.591.6.469-1.037 1.425-1.037 1.425z"/>
                <path fill="#003057" d="M211.955 370.38s-.786-1.377-1.12-1.405a8.322 8.322 0 0 0-.844 0s-.874 1.995-1.196 2.177c-.321.182-.795 1.122-.795 1.122s2.305 2.149 4.54 1.742c.71.009 1.41.177 2.042.49 1.033.52 5.342.127 5.867-.786.393-.684.547-1.183.204-1.546a.947.947 0 0 0-.813-.265c-.542.071-1.758.055-2.828-1.207 0 0-1.964-1.737-2.126-1.739-.162-.002.142 1.624-2.931 1.418z"/>
                <path fill="#4E4E4E" d="M229.405 345.066s-1.092 1.28-1.406 1.367c-.485.191-.959.412-1.42.66 0 0-.591.83-1.064.87a3.686 3.686 0 0 0-.97.366c-.424.204-.803.421-.803.421l-4.967-10.81a11.2 11.2 0 0 1-1.206-1.31 18.008 18.008 0 0 1-1.792-2.66 4.675 4.675 0 0 1-.563-3.224 3.84 3.84 0 0 1 .563-1.423l3.534-.261 7.03-.524.06 2.325.138 5.545s.117.277.25.641c.216.56.498 1.31.498 1.595 0 .456.51 1.283.51 1.283s.514.786.514 1.119c.065.438.17.869.314 1.286 0 0 .473.827.354 1.157-.12.33.426 1.577.426 1.577z"/>
                <path fill="#4E4E4E" d="M227.978 331.111s-.33 1.155-.451 1.652c-.122.496-.369 2.935-.369 2.935l-.142.682-2.335 11.257-.519 2.446c-.903.496-3.16-.829-3.16-.829-2.624.293-5.867-1.403-5.867-1.403s.534-1.736.41-2.614c-.125-.878.74-1.568.74-1.568-.206-.784.53-4.215.53-4.215s.167-1.281.78-1.613c.611-.332-.081-.826-.26-1.116-.08-.141-.024-.465.06-.758.052-.191.114-.38.186-.564-1.556-1.569-1.816-4.038-1.816-5.405-.003-.335.011-.669.044-1.001l3.39-.596 7.402-1.307.752 2.352.19.588.435 1.077z"/>
                <path fill="#EE936F" d="M229.405 296.775c-.001 2.392-1.917 4.33-4.28 4.331-.29.001-.58-.029-.863-.088-2.206-.46-3.683-2.569-3.38-4.827.304-2.257 2.284-3.891 4.531-3.737 2.247.154 3.992 2.042 3.992 4.32z"/>
                <path fill="#003057" d="M224.455 303.223l-4.123-.673c-.146.328-.43.575-.777.673-.55.128-2.999 1.39-4.096 2.907l-1.098 1.514s-.889 1.094-.593 1.978c.297.883.633 3.875.633 3.875l.425 3.324s.801 2.396.547 3.46c-.253 1.065.129 5.473.129 5.473l-.847 5.472s2.873-.378 3.127 0c.254.378 5.998 0 5.998 0s2.11-.463 2.745-.085c.423.234.91.328 1.39.266 0 0-.504-1.725-.21-2.694.294-.969.21-2.736.21-2.736s.426-2.568.215-3.031c-.211-.464.464-2.146.464-2.146l2.238-11.745s-.267-2.105-1.466-2.821c-1.199-.716-2.548-.927-3.266-1.597a34.158 34.158 0 0 0-1.645-1.414z"/>
                <path fill="#EE936F" d="M226.551 315.03v1.332l1.24 3.35.444 3.11s.795 2.22.795 2.989c0 .768 1.935 4.493 1.935 4.493s.53 1.253.267 1.493c-.264.24-2.572 5.56.33 5.4 2.9-.161 1.988-5.734 1.988-5.734l-.397-2.423s-.558-6.056-.558-6.5c0 0-.714-2.586-.795-3.15-.08-.564-.596-3.431-.596-3.431l-.437-1.859-4.216.93z"/>
                <path fill="#1E1637" d="M226.161 291.005c-.399-.04-.773.176-1.164.264-.808.184-1.635-.194-2.462-.191a4.47 4.47 0 0 0-2.024.619c-.502.24-.96.566-1.352.966a2.26 2.26 0 0 0-.642 1.51c0 .326.093.671-.03.975a3.157 3.157 0 0 1-.295.46c-.209.34-.26.757-.138 1.138.166.37.39.71.665 1.006.534.702.869 1.54 1.346 2.28.208.323.442.628.702.91a.48.48 0 0 0 .15.123c.057.02.117.03.177.028 1.015.028 2.068.05 3.001-.357a1.39 1.39 0 0 0 .72-.589c.184-.355.108-.785.07-1.185a5.475 5.475 0 0 1 .03-1.3.603.603 0 0 1 .163-.395.512.512 0 0 1 .514-.015c.159.087.333.14.512.156.352-.013.572-.403.628-.755.057-.352.025-.735.19-1.054.15-.227.327-.434.527-.617.487-.634.65-1.467.438-2.244-.217-.727-.919-1.648-1.726-1.733z"/>
                <path fill="#003057" d="M230.802 310.251c-.1.584-.1 1.179 0 1.763-.046.473 0 3.097 0 3.097-1.488-.43-5.274.433-5.274.433l-.454-1.292a3.118 3.118 0 0 1-.57-1.06 10.78 10.78 0 0 1-.353-1.27 25.152 25.152 0 0 1-.442-2.702c-.189-1.36 1.944-2.84 3.558-3.658 1.613-.818 3.028 2.666 3.028 2.666s.687 1.335.507 2.023z"/>
            </g>
            <path fill="#434175" d="M225.034 307.14l-1.765-.557-1.902.696-.137 1.215.941.617 1.491-.05 1.314-.627.225-1.155z"/>
            <path fill="#000" fill-opacity=".3" d="M225.034 307.14l-1.765-.557-1.902.696-.137 1.215.941.617 1.491-.05 1.314-.627.225-1.155z"/>
            <path fill="#EC7600" d="M220.513 305.866l2.926-1.7a1.684 1.684 0 0 1 1.464-.12c.27.103.5.29.658.536 0 0-1.412-.08-2.98 1.792l-2.068-.508z"/>
            <path fill="#C6461A" d="M225.053 307.575s.235 1.38-2.537.769l-1.848 16.473s3.08-.758 3.8-1.608c.719-.849 1.253-2.468 1.078-3.053-.176-.585-.385-7.272-.385-7.272l-.108-5.31z"/>
            <g transform="translate(209.256 309.335)">
                <mask id="v" fill="#fff">
                    <use xlink:href="#u"/>
                </mask>
                <path fill="#C6461A" d="M3.456.104S-2.088 10.702.867 13.097c2.956 2.395 8.49 3.193 10.39 2.395 0 0 .88.24.748-2.547-.13-2.786 1.021-10.564 1.021-10.564L3.456.104z" mask="url(#v)"/>
            </g>
            <path fill="#EC7600" d="M212.895 309.912s-5.208 9.963-2.436 12.21c2.772 2.25 7.98 3.001 9.764 2.252 0 0 .826.224.704-2.395s.958-9.928.958-9.928l-8.99-2.139z"/>
            <path fill="#C6461A" d="M218.917 305.422s-4.377-.55-4.599-.38c0 0-2.319.402-2.319 4.801 0 0-.048 2.528 4.74 3.745 0 0 3.85.342 5.097-1.204 1.245-1.546.636-4.148.636-4.148s.499-1.989 2.821-.613c0 0 .243-.782-.805-1.165-1.05-.383-5.57-1.036-5.57-1.036"/>
            <path fill="#EC7600" d="M219.053 305.398s-4.256-.517-4.467-.358c0 0-2.256.379-2.256 4.519 0 0-.046 2.38 4.61 3.524 0 0 3.734.322 4.954-1.134 1.22-1.455.616-3.908.616-3.908s.487-1.877 2.743-.577c0 0 .237-.737-.782-1.095-1.02-.358-5.418-.97-5.418-.97"/>
            <path fill="#434175" d="M216.915 312.213s-1.157-.536-1.217.479c0 0-.39 1.016-.41 1.135-.02.119.058 1.155.96 1.115a1.384 1.384 0 0 0 1.215-.758s.197-1.114.472-1.353c.274-.24-.196-.469-.373-.469-.22-.03-.436-.08-.647-.149"/>
            <path fill="#4E4E4E" d="M216.796 312.007s-1.156-.536-1.215.479c0 0-.392 1.014-.41 1.135-.02.12.058 1.153.96 1.114a1.395 1.395 0 0 0 1.215-.758s.196-1.113.471-1.352c.276-.24-.197-.479-.372-.479a3.8 3.8 0 0 1-.649-.139"/>
            <path fill="#000" d="M216.219 313.555c.232 0 .42.191.42.427a.424.424 0 0 1-.42.427.424.424 0 0 1-.42-.427c0-.236.188-.427.42-.427"/>
            <path fill="#434175" d="M216.219 313.516c.232 0 .42.191.42.427a.424.424 0 0 1-.42.427.424.424 0 0 1-.42-.427c0-.236.188-.427.42-.427"/>
            <path fill="#C6461A" d="M220.14 316.27s-4.559-.54-7.745-2.202c0 0-2.51 6.421-.51 7.322 2 .9 6.16 2.337 7.325 1.84 0 0 .696.116.462-2.222-.234-2.337.468-4.739.468-4.739"/>
        </g>
    </g>
</svg>
