<svg xmlns="http://www.w3.org/2000/svg" width="39" height="31" viewBox="0 0 39 31">
    <g fill="none" fill-rule="evenodd">
        <path fill="#FFB81C" d="M23.723 30h-19.8C1.755 30 0 28.232 0 26.05V3.95C0 1.767 1.756 0 3.922 0h19.801c2.166 0 3.923 1.768 3.923 3.95v22.1c0 2.182-1.757 3.95-3.923 3.95"/>
        <path fill="#FFF" d="M8.143 7.62c0 .769-.634 1.392-1.417 1.392-.782 0-1.417-.623-1.417-1.391s.635-1.39 1.417-1.39c.783 0 1.417.622 1.417 1.39M8.143 15.675c0 .768-.634 1.39-1.417 1.39-.782 0-1.417-.622-1.417-1.39 0-.768.635-1.39 1.417-1.39.783 0 1.417.622 1.417 1.39M7.71 23.649c0 .768-.635 1.39-1.418 1.39-.782 0-1.417-.622-1.417-1.39 0-.768.635-1.39 1.417-1.39.783 0 1.417.622 1.417 1.39"/>
        <path stroke="#FFF" stroke-linecap="round" stroke-width="1.513" d="M10.41 7.343h11.055M10.41 15.675h11.055M10.725 23.226H21.45"/>
        <g stroke="#EA7600" stroke-width="1.738">
            <path d="M30.774 19.836c1.249 3.982-1.015 8.208-5.056 9.438-4.04 1.23-8.328-.999-9.577-4.981-1.249-3.982 1.014-8.208 5.055-9.438 4.04-1.23 8.328 1 9.578 4.981z"/>
            <path stroke-linecap="round" d="M30.422 25.161l7.66 4.645"/>
        </g>
    </g>
</svg>
