<svg xmlns="http://www.w3.org/2000/svg" width="84" height="87" viewBox="0 0 84 87">
    <defs>
        <path id="a" d="M0 .36h64.94v69.693H0z"/>
    </defs>
    <g fill="none" fill-rule="evenodd">
        <path fill="#EA7600" d="M74.364 70.393H27.852c-5.089 0-9.213-4.107-9.213-9.175V9.875C18.639 4.808 22.763.7 27.852.7h46.512c5.09 0 9.214 4.108 9.214 9.175v51.343c0 5.068-4.125 9.175-9.214 9.175" opacity=".3"/>
        <path fill="#F6F6F6" d="M56.325 86.2H9.813C4.724 86.2.6 82.092.6 77.025V25.682c0-5.068 4.124-9.175 9.213-9.175h46.512c5.09 0 9.215 4.107 9.215 9.175v51.343c0 5.067-4.125 9.175-9.215 9.175"/>
        <path fill="#12B2A6" d="M16.474 35.187a3.6 3.6 0 0 1-3.608 3.593 3.6 3.6 0 0 1-3.607-3.593 3.6 3.6 0 0 1 3.607-3.592 3.6 3.6 0 0 1 3.608 3.592M16.474 50.994a3.6 3.6 0 0 1-3.608 3.593 3.6 3.6 0 0 1-3.607-3.593 3.6 3.6 0 0 1 3.607-3.592 3.6 3.6 0 0 1 3.608 3.592M16.474 66.8a3.6 3.6 0 0 1-3.608 3.593 3.6 3.6 0 0 1-3.607-3.592 3.6 3.6 0 0 1 3.607-3.593 3.6 3.6 0 0 1 3.608 3.593"/>
        <path stroke="#12B2A6" stroke-linecap="round" stroke-width="3.84" d="M22.247 34.469h28.14M22.247 50.994h28.14M22.247 66.442h28.14"/>
    </g>
</svg>
