<svg xmlns="http://www.w3.org/2000/svg" xmlns:xlink="http://www.w3.org/1999/xlink" width="83" height="85" viewBox="0 0 83 85">
    <defs>
        <path id="a" d="M0 .522h72.56v77.35H0z"/>
        <path id="c" d="M0 .148h72.56v30.68H0z"/>
    </defs>
    <g fill="none" fill-rule="evenodd">
        <g transform="translate(9.84 -.3)">
            <mask id="b" fill="#fff">
                <use xlink:href="#a"/>
            </mask>
            <path fill="#005A70" d="M62.265 77.872h-51.97C4.609 77.872 0 73.312 0 67.688V10.705C0 5.08 4.61.522 10.295.522h51.97c5.687 0 10.296 4.558 10.296 10.183v56.983c0 5.624-4.61 10.184-10.296 10.184" mask="url(#b)" opacity=".344"/>
        </g>
        <path fill="#F6F6F6" d="M67.087 49.886H6.473C3.174 49.886.5 47.252.5 44.001V24.943c0-3.25 2.674-5.885 5.973-5.885h60.614c3.3 0 5.974 2.634 5.974 5.885V44c0 3.25-2.675 5.885-5.974 5.885"/>
        <path fill="#09B1A5" d="M77.254 18.641c0 5.71-4.638 10.338-10.359 10.338-5.72 0-10.358-4.629-10.358-10.338S61.174 8.303 66.895 8.303c5.72 0 10.359 4.629 10.359 10.338"/>
        <g stroke="#FEFEFE" stroke-linecap="round" stroke-width="1.92">
            <path d="M66.954 13.788v9.32M76.521 17.606"/>
        </g>
        <path fill="#EA7600" d="M16.305 35.906a3.23 3.23 0 0 1-3.233 3.226 3.23 3.23 0 0 1-3.233-3.226 3.23 3.23 0 0 1 3.233-3.226 3.23 3.23 0 0 1 3.233 3.226"/>
        <path stroke="#EA7600" stroke-linecap="round" stroke-width="3.84" d="M24.208 35.189h31.61"/>
        <g transform="translate(.5 53.471)">
            <mask id="d" fill="#fff">
                <use xlink:href="#c"/>
            </mask>
            <path fill="#FFEABB" d="M65.237 30.829H7.323C3.279 30.829 0 27.614 0 23.649V7.329C0 3.364 3.279.15 7.323.15h57.914c4.045 0 7.323 3.215 7.323 7.18v16.32c0 3.965-3.278 7.18-7.323 7.18" mask="url(#d)"/>
        </g>
        <path fill="#E3C073" d="M15.966 70.426a3.23 3.23 0 0 1-3.233 3.227A3.23 3.23 0 0 1 9.5 70.426a3.23 3.23 0 0 1 3.233-3.226 3.23 3.23 0 0 1 3.233 3.226"/>
        <path stroke="#E3C073" stroke-linecap="round" stroke-width="3.84" d="M24.5 70.558h31.61"/>
    </g>
</svg>
