<?xml version="1.0" encoding="utf-8"?>
<!-- Generator: Adobe Illustrator 22.0.0, SVG Export Plug-In . SVG Version: 6.00 Build 0)  -->
<svg version="1.1" id="Layer_1" xmlns="http://www.w3.org/2000/svg" xmlns:xlink="http://www.w3.org/1999/xlink" x="0px" y="0px"
	 viewBox="0 0 414.9 342.6" style="enable-background:new 0 0 414.9 342.6;" xml:space="preserve">
<style type="text/css">
	.st0{fill:#F4F9F8;}
	.st1{fill:#D0E8E2;}
	.st2{fill:#007C9F;}
	.st3{fill:#D9D9D9;}
	.st4{fill:#FEB935;}
	.st5{fill:#6FC3BE;}
	.st6{fill:#D1E9E3;}
	.st7{fill:#E9EFED;}
	.st8{fill:#51585A;}
	.st9{fill:#F09372;}
	.st10{fill:#ED7912;}
	.st11{fill:#7ABD26;}
	.st12{fill:#79BD25;}
	.st13{fill:#B01F37;}
	.st14{fill:#FDB935;}
	.st15{fill:#68A9BB;}
	.st16{fill:#6A98A3;}
	.st17{fill:#69AABC;}
	.st18{fill:#DED8CA;}
	.st19{fill:#FEFEFE;}
	.st20{fill:#F3F8F6;}
	.st21{fill:#032756;}
	.st22{fill:#F9EDE6;}
	.st23{fill:#68AABB;}
	.st24{fill:#6A98A2;}
	.st25{fill:#6FC3BF;}
	.st26{fill:#6EC3BE;}
	.st27{fill:#6B98A3;}
	.st28{fill:#70C3BF;}
	.st29{fill:#A4A8A9;}
	.st30{fill:#CFE7E1;}
	.st31{fill:#F4F8F6;}
	.st32{fill:#F4F7F5;}
	.st33{fill:#F4F1E9;}
	.st34{fill:#F4EFE6;}
	.st35{fill:#F4F3EC;}
	.st36{fill:#F4F1E8;}
	.st37{fill:#F3EADB;}
	.st38{fill:#F2C597;}
	.st39{fill:#F2D1AE;}
	.st40{fill:#F4F9F7;}
	.st41{fill:#7EBF2B;}
	.st42{fill:#80C12F;}
	.st43{fill:#F2F8F5;}
</style>
<g>
	<path class="st0" d="M386.1,218c-1.5,4.3-2,8.7-2.1,13.3c-0.3,6.7,0.6,13.3,1.4,19.9c0.1,1.2,0.9,2.3,0.8,3.6c-0.5,1-0.1,2,0,3
		c0.5,8.6,0.1,17.1,0.2,25.7c0,0.9-0.4,1.7-0.2,2.6c-1.7,2.2-4,3.6-6.3,5c-0.4,0.2-0.8,0.5-1.1,0.8c-1.2,0-1.2-0.9-1.3-1.7
		c-0.2-2.1-0.6-4.1-1.4-6c-0.2-0.4-0.3-0.9-0.2-1.4c0.3-5.2,0.5-10.4,0.4-15.6c-0.1-3.2,0.6-6.5-0.2-9.7c-0.6-2.4-0.2-4.9-0.2-7.4
		c0.1-3.3-1-5.9-3.1-8.5c-2.8-3.3-5.7-6.3-10.1-7.4c-0.5-0.1-0.9-0.4-1.2-0.8c-0.7-1.6-0.4-3.2-0.2-4.9c0.7-4.2,1-8.5,0.1-12.7
		c-1-4.5-3.3-8.1-7.4-10.4c-1.9-1.1-3.6-2.5-5.3-3.9c-3.4-2.6-7.3-4.4-11.6-5.1c-4-0.6-7.8,0-11.2,2.4c-1,0.7-2.1,1.3-3.1,2
		c-2.6,1.6-4.2,3.9-4.8,6.9c-0.8,4-0.9,8,1.3,11.8c0.4,2.7,0.9,5.4,2.4,7.7c1.8,2.9,4.4,4.8,7.5,6.1c1.7,0.8,1.8,1.2,0.7,2.7
		c-2.1,0.4-4.1-0.4-6.1-0.2c-3.3,0.2-6.2,1.6-9.2,2.9c-1.1,0.5-1.6,1.6-2.1,2.7c-0.5,1.3-0.9,2.6-1.2,3.9c-0.4,1.5-0.9,2.9-2,4
		c-1.2,1.3-2.2,2.6-2.5,4.4c-0.2,0.8-0.7,1.5-1.6,1.8c-3.4,0.2-6.7-0.1-10-0.3c-4-0.3-8.1-0.4-12.1-0.6c-7.3-0.4-14.6-0.7-22-1
		c-4-0.2-7.9-0.3-11.9-0.5c-3-0.2-4.1,1.2-3.2,4c0.6,1.7,1.6,3.4,1.3,5.3c-0.3,1-1.2,1.1-2,1.2c-1,0.1-1.9,0.1-2.9,0.1
		c-35.1,0-70.2,0-105.4,0c-3.8,0-3.8,0-3.8,3.9c0,10.9,0,21.7,0,32.6c0,1.1,0.2,2.4-0.6,3.3c-12.5-7.5-25.3-14.6-39.3-19.2
		c-6.3-2.1-12.9-3.2-19.3-5c-7.9-2.3-15.3-5.7-22.3-9.9c-7-4.2-13.3-9.4-19.1-15.2c-1.2-1.2-1.9-2.7-3.3-3.6
		c-0.3-1.7-0.3-3.4-0.3-5.1c0-60.9,0-121.8,0-182.7c0-5.1,0-5.1,5.1-5.1c102.9,0,205.9,0,308.8,0c1.3,0,2.6,0.1,3.9,0.2
		c5.6,4,11.2,7.9,16.7,11.9c6,4.3,11.7,9,17,14.2c1.8,1.8,3.9,3.2,5.4,5.3c0.9,1.3,0.7,2.8,0.7,4.2c0,39.1,0,78.3,0,117.4
		C386.4,213.2,386.1,215.6,386.1,218z"/>
	<path class="st1" d="M51.3,36.8c2.7-2.4,6.1-3.9,9.2-5.8c7-4.2,14.2-7.9,21.5-11.4C98.9,11.3,116.6,5,135.4,2
		c5.3-0.8,10.7-1.4,16.1-1.7c4-0.2,8-0.4,11.9-0.3c7.5,0.2,14.9,0.7,22.3,1.5c17.3,2,34.3,5.2,51.2,9.4c16,3.9,31.7,8.8,47,14.8
		c8.5,3.3,16.9,6.7,25,10.9c-0.6,0.6-1.4,0.6-2.1,0.6c-0.8,0-1.5,0-2.3,0c-82.9,0-165.9,0-248.8,0C54.2,37.4,52.6,37.8,51.3,36.8z"
		/>
	<path class="st2" d="M51.3,36.8c0.9,0,1.8,0.1,2.7,0.1c84.2,0,168.5,0,252.7,0c0.8,0,1.5-0.1,2.3-0.1c8.1,3.5,15.7,7.8,23.3,12.2
		c4.7,2.7,9.3,5.6,13.9,8.4c0.1,0.5-0.2,0.6-0.6,0.6c-0.7,0-1.4,0-2.1,0c-103.7,0-207.3,0-311,0c-3.8,0-4.5-1-3.1-4.8
		c1.2-1.9,3-3.2,4.7-4.6c4.8-3.9,9.9-7.5,15.1-10.8C49.8,37.5,50.5,37.1,51.3,36.8z"/>
	<path class="st3" d="M132.2,303.5c0-12.7,0.1-25.3-0.1-38c0-2.2,0.8-2.5,2.7-2.5c36.5,0.1,72.9,0,109.4,0c0.8,0,2,0.6,2.4-0.9
		c1.2,0.3,1.2,1.4,1.5,2.3c3.1,9.1,6.2,18.2,9.2,27.3c0.9,2.7,2.3,4,5.1,4.1c1.5,0.1,3,0.4,4.5,0.6c1.1,0.1,2.2,0.1,2.8,1.3
		c0.4,3.6,0.1,7.1,0.2,10.7c0,4.8,0,9.6,0,14.4c0,2.1-0.4,2.6-2.3,2.6c-6.7,0.1-13.5,0.1-20.2,0c-0.3,0-0.5-0.1-0.8-0.2
		c-0.3-0.1-0.5-0.3-0.6-0.5c-0.5-1-0.4-2.1-0.4-3.2c0-7.1,0-14.1,0-21.2c0-0.7,0-1.4-0.1-2.1c-0.1-1-0.8-1.2-1.6-1.2
		c-0.9,0-1.4,0.4-1.5,1.3c-0.1,1.9,0,3.7-0.1,5.6c0,5.8,0,11.7,0,17.5c0,1,0.1,1.9-0.2,2.9c-0.1,0.3-0.2,0.5-0.4,0.7
		c-1.4,0.6-2.7,0.6-4.1,0.1c-0.2-0.2-0.4-0.4-0.5-0.6c-0.3-1-0.3-2-0.3-3.1c0-7,0-14,0-21c0-0.7,0-1.4-0.1-2.1
		c-0.1-1-0.7-1.2-1.6-1.2c-0.9,0-1.4,0.3-1.5,1.3c-0.1,0.7-0.1,1.4-0.1,2.1c0,6.9,0,13.9,0,20.8c0,1,0.1,2.1-0.2,3.1
		c-0.1,0.2-0.2,0.5-0.4,0.7c-1.4,0.6-2.7,0.6-4.1,0.1c-0.2-0.2-0.4-0.4-0.5-0.6c-0.3-1-0.3-2-0.3-3.1c0-7.7,0-15.4,0-23.1
		c0-0.7,0-1.4-0.1-2.1c-0.1-0.8-0.6-1.2-1.4-1.2c-0.8,0-1.5,0.1-1.7,1.1c-0.1,0.8-0.1,1.5-0.1,2.3c0,7.8,0,15.7,0,23.5
		c0,1,0.1,2.1-0.3,3.1c-0.1,0.2-0.3,0.4-0.6,0.5c-1.5-0.2-3.1,0.4-4.5-0.7c-0.6-0.9-0.4-2-0.4-3c0-4.9,0-9.8,0-14.7
		c0-0.6,0-1.1,0-1.7c0-1.2-0.1-2.3-1.7-2.2c-1.5,0-1.5,1.1-1.5,2.2c0,5.4,0,10.9,0,16.3c0,1.1,0.2,2.2-0.5,3.2
		c-1.4,0.7-2.9,0.7-4.3,0c-0.8-1-0.6-2.2-0.6-3.4c0-9,0-18,0-27c0-0.8,0-1.5-0.1-2.3c-0.2-0.9-0.8-1-1.5-1c-0.8,0-1.3,0.2-1.5,1.1
		c-0.1,0.8-0.1,1.5-0.1,2.3c0,8.9,0,17.9,0,26.8c0,1.1,0.1,2.2-0.4,3.2c-1,1-2.2,0.8-3.4,0.4c-0.2-0.1-0.4-0.3-0.5-0.6
		c-0.4-1.1-0.3-2.3-0.3-3.5c0-14.4,0-28.9,0-43.3c0-0.8,0-1.6-0.1-2.5c-0.1-1-0.7-1.2-1.6-1.2c-0.9,0-1.4,0.4-1.5,1.3
		c-0.1,0.8-0.1,1.5-0.1,2.3c0,14.4,0,28.9,0,43.3c0,1.2,0.1,2.3-0.2,3.5c-0.1,0.3-0.3,0.5-0.5,0.6c-1.6,0.5-3.1,0.7-4.6-0.2
		c-0.6-0.9-0.5-2-0.5-3c0-5.4,0-10.7,0-16.1c0-0.8,0.2-1.7-0.6-2.3c-0.5-0.4-1.2-0.4-1.8-0.2c-1,0.3-0.9,1.2-0.9,1.9
		c0,5.8,0,11.7,0,17.5c0,0.7,0.2,1.5-0.2,2.2c-1.6,0.7-3.1,0.7-4.7,0c-0.7-1-0.5-2.2-0.5-3.4c0-10.7,0-21.4,0-32.1
		c0-0.8,0-1.5-0.1-2.3c-0.1-1-0.8-1.2-1.6-1.2c-0.8,0-1.3,0.3-1.4,1.2c-0.1,0.8-0.1,1.5-0.1,2.3c0,10.7,0,21.4,0,32.1
		c0,1.2,0.2,2.3-0.5,3.4c-1.4,0.8-2.9,0.7-4.3,0.1c-0.8-1-0.6-2.2-0.6-3.4c0-10.7,0-21.5,0-32.2c0-0.8,0-1.7-0.1-2.5
		c-0.2-0.9-0.9-1-1.6-1c-0.7,0-1.2,0.2-1.4,1c-0.1,0.8-0.1,1.5-0.1,2.3c0,10.7,0,21.5,0,32.2c0,1.2,0.2,2.4-0.5,3.4
		c-1,0.9-2,0.5-3.1,0c-0.4,0-0.9,0-1.2-0.4c0.4-10.9,0.1-21.9,0.2-32.8c0-1,0-2-1.4-2c-1.6,0-1.8,1-1.8,2.2c0,9.1,0,18.2,0,27.2
		c0,1.1,0.3,2.4-0.7,3.3c-1.5-0.9-3.2-1.4-4.5-2.5c-0.6-0.9-0.6-1.9-0.6-3c0-3.9,0-7.7,0-11.6c0-0.9,0.1-1.9-1.2-2.1
		c-1.4-0.2-2.1,0.4-2.1,1.8c0,3.2,0,6.3,0,9.5c0,0.9,0.1,1.9-0.5,2.8C147.7,312.8,139.9,308.1,132.2,303.5z"/>
	<path class="st1" d="M29.3,53.2c0,0.1,0.1,0.3,0.1,0.4c0.1,4.1,0.1,4.1,4.2,4.1c103.3,0,206.6,0,310,0c0.8,0,1.8,0.4,2.5-0.4
		c0.2,0.1,0.3,0.3,0.5,0.4c-0.8,0.8-1.8,0.4-2.8,0.4c-103.8,0-207.5,0-311.3,0c-3.5,0-3.1-0.4-3.1,3c0,62.3,0,124.5,0,186.8
		c0,0.9,0.4,1.8-0.4,2.6c-7.6-9-13.9-18.9-18.7-29.7c-3.9-8.6-7.4-17.4-8.8-26.9c-0.5-3.3-0.7-6.7-0.9-10
		c-0.8-9.2-0.4-18.4-0.4-27.6c0-9.6,0.8-19.2,1.3-28.7c0.4-6.8,1-13.6,1.6-20.4c1.3-15.3,6.7-29,15.6-41.4
		C21.8,61.4,25.1,56.9,29.3,53.2z"/>
	<path d="M377.3,317.2c-2.6,7.2-7.7,10.9-15.4,11.1c-2.3,0-4.5,0.4-6.8,0.4c-1.4,0-1.6,0.5-1.4,1.7c0.2,1.6,0.2,3.2,0.3,4.7
		c0.1,0.9-0.2,1.2-1.1,1.2c-2.8,0.1-5.7,0.1-8.2-1.5c-1.2-0.8-2.5-1-3.9-1c-2.9,0-5.8-0.1-8.7-0.1c-2.6,0-5.1-0.9-7.7-0.8
		c-1.2,0-2.2-0.8-2.8-1.9c-0.8-1.3-2.2-1.5-3.3-2.1c-2.7-1.7-5.2,0.2-7.7-0.2c-2.7-0.4-5.5-0.2-8.2,0.1c-2.3,0.3-4.6,0.6-6.9,1
		c-4.9,0.8-6.6-0.5-6.8-5.5c0-0.4-0.1-0.8-0.1-1.2c-1-3.3-0.5-6.5,0.7-9.6c0.5-1.3,0.4-2-0.8-2.6c-4.7-2.7-8.2-6.8-11.7-10.8
		c-0.4-0.5-0.8-1-0.6-1.7c0.7-0.8,1.5-0.4,2.3-0.3c10.2,1.2,20.4,2.6,30.7,3.9c3.2,0.4,6.4,0.9,9.6,1.2c2.3,0.2,4.5-0.1,6.6-1.1
		c2.5-1.2,4.9-2.7,7.5-4c3.9-2,7.6-4.2,12.2-3.8c1.4-0.2,2.8-0.4,3.9-1.3c4.2-1.6,8.5-2.7,12.6-4.4c0.4-0.2,0.8-0.2,1.2-0.1
		c8,1.6,13.4,5.7,13.9,14.3c0.2,3,0.2,6-0.2,9c-0.2,1.2,0.1,2.3,0.7,3.4C377.4,315.7,378.1,316.4,377.3,317.2z"/>
	<path class="st4" d="M377.3,317.2c0.2-0.8-0.2-1.5-0.6-2.1c-0.9-1.2-0.9-2.6-0.8-3.9c0.3-3.5,0.7-6.9,0.1-10.4
		c-1.2-6.6-6.7-11.6-13.3-12.1c-0.2,0-0.4-0.1-0.6,0c-4.2,1.9-8.7,2.9-13,4.6c-1.9,0.4-3.8,1.2-5.7,0.4c-0.3-3.4-0.3-3.3-3.8-3.8
		c-5.8-0.7-11.7-1.2-17.6-1.9c-1.8-0.2-2.7-1-3-2.8c-0.4-2.8-1.6-5.5-1.5-8.4c0.1-0.1,0.1-0.3,0.2-0.3c2.4-0.9,2.4-0.9,1.7-3.6
		c-0.3-1.1-0.6-2.2-0.6-3.4c0-1.5-1.3-2.3-2-3.4c-0.6-1-1.6-1.7-2.2-2.7c-0.9-1.3-0.9-2.8-1.3-4.3c-0.7-2.6-1.4-3.2-4.1-3.4
		c-1.3-0.1-2.8,0.5-3.9-0.7c0.4-0.6,1-1,1-1.9c0-1.3,0.7-2.4,1.6-3.2c1.5-1.3,2.3-3,2.8-4.9c0.2-0.9,0.6-1.8,0.8-2.8
		c0.6-2.7,2.4-4.1,4.9-5.1c4.4-1.7,8.8-2.5,13.4-1.2c1.3,0.5,1.8,1.6,2.3,2.8c0.3,1.2,0.8,2.4,0.4,3.7c-1.2,3.1-2,6.3-1.8,9.6
		c0.1,2.5-0.3,4.9-0.7,7.4c-1,5.4-1.2,10.8-0.5,16.2c0.1,0.8,0.4,1.1,1.2,0.8c2.9-1.2,5.8-0.9,8.7-0.1c0.5,0.1,1.1,0.1,1.6,0.1
		c2.6-0.1,3.1-0.7,2.8-3.3c-0.6-7.1-0.1-14.1,1.7-21c0.6-2.1,0.7-4.3,0.9-6.5c-0.1-2.7,0-5.4,0.4-8.1c0.1-0.9,0.2-1.8,1.1-2.3
		c1-0.2,1.4,0.5,1.8,1.1c0.8,1.3,1.4,2.7,1.6,4.2c0.2,2.7,0.2,5.5-0.1,8.2c-0.2,1.9-0.2,3.7,0.2,5.5c0.9,4.1,2.9,5.6,7.1,5.7
		c1.8,0,3.6-0.3,5.3-0.3c0.3,0.2,0.2-0.4,0.2-0.1c0,0,0,0-0.1,0c-1.9-0.9-2.4-2.7-2.4-4.6c0-1.6,0.4-3.2,1.1-4.6
		c2.4-4.5,2-8.8-0.4-13.1c-0.6-1.1-1.4-2.4-0.5-3.8c6.6,1.3,10.6,5.9,13.9,11.3c0.7,1.2,0.9,2.7,0.9,4.2c0.1,3.5-0.8,7.1,0.8,10.6
		c0.1,0.1,0,0.3,0,0.4c-0.9,5.7-0.3,11.5-0.6,17.3c-0.1,2.9-1,6.1,0.7,9c0.6,1,0.5,2.5,0.7,3.8c0.1,0.8,0.1,1.5,0.8,2
		c4.4,6.2,8.8,12.5,13.2,18.7c1.8,2.6,0.7,5-2.5,5.3c-0.8,0.1-1.5,0.1-2.3,0.1c-1.6,0.1-2.5,0.8-3.7,2.3c-1.9,2.4-1.6,3.5,0,5.5
		c0.9,1.1-0.1,2.1-1.2,2.8c-1.3,0.8-1.9,0.2-2.4-0.9c-1-2-1.7-4.1-1.9-6.3C377.8,318.7,377.7,317.9,377.3,317.2z"/>
	<path class="st1" d="M386.1,218c-0.7-0.6-0.4-1.4-0.4-2.1c0-42.2,0-84.4,0-126.6c4,3.3,7.2,7.3,10.8,11c4.7,5,8.7,10.6,11.7,16.8
		c3,6.3,4.5,13,5.6,19.9c0.7,4.5,1,9.1,1.1,13.7c0.2,4.9-0.4,9.8-1.1,14.7c-1.1,7.2-3.2,14-6.4,20.5c-3.3,6.6-7.6,12.5-12.8,17.8
		C390.5,207.7,387.7,212.5,386.1,218z"/>
	<path class="st1" d="M223.8,325.3c0.2,0,0.3,0,0.5,0c1.4-0.8,2.9-0.6,4.4-0.4l0.1,0.1c1.3,0.3,2.7,0.3,4,0l0.1-0.1
		c1.5-0.9,3-0.9,4.5,0l0.1,0.1c1.3,0.3,2.7,0.3,4,0l0.1-0.1c1.5-0.9,3-0.8,4.5,0l0.1,0.1c5.4,0.4,10.8,0.1,16.2,0.1
		c2.4,0,4.8,0.3,7.2-0.2c3.9-0.5,7.8-0.2,11.7-0.2c0.6,0,1.4,0,1.5,1c-4.2,1.7-8.1,4-12.2,5.9c-8,3.9-16.2,7.1-24.8,9.1
		c-5.3,1.2-10.7,1.9-16.1,1.8c-10.1-0.3-20-2-29.7-4.7c-10.4-3-20.2-7.3-29.9-12.1c1.8-1.2,3.9-1.1,5.9-0.8c1.9,0.3,3.8,0.4,5.7,0
		c0.9-0.2,1.9-0.2,2.9,0c1.2,0.3,2.5,0.4,3.6,0.2c2.8-0.5,5.5-0.1,8.3,0c0.7,0,1.4,0.1,2-0.2l0.1-0.1c1.5-0.9,3-0.9,4.5-0.1l0.1,0.1
		c0.1,0.1,0.3,0.2,0.4,0.2c4.2-0.7,8.5,0.3,12.7-0.3C218.8,324.5,221.3,325.2,223.8,325.3z"/>
	<path class="st1" d="M72.8,317.3c-0.4,4.9-1.6,9.8-6.1,13.3c-4.9,3.8-12.1,3.1-17.1,0.3c-8.8-4.9-13.6-12.6-15.5-22.2
		c-1.6-8.6,4.8-17.2,13.3-16.7c3.7,0.2,7.2,1.8,10.4,3.7c4.8,2.8,9,6.3,11.9,11.1C71.6,310,72.7,313.3,72.8,317.3z"/>
	<path class="st0" d="M282.9,325.7c-0.5-0.6-1.3-0.4-1.9-0.4c-3.8,0-7.5,0-11.3,0c-0.3-0.4-0.2-0.8-0.2-1.2c0-8.8,0-17.5,0-26.3
		c1.9-1.3,5.1-1.1,6.8,0.6c4.1,4.8,8.1,9.7,14,12.6c0.3,0.2,0.8,0.3,0.4,0.9c-2.5,3.3-1.7,7.2-2,10.9
		C286.6,323.7,284.7,324.5,282.9,325.7z"/>
	<path class="st5" d="M164.3,322.5c0-10.4,0.1-20.9,0-31.3c0-2,0.9-2.1,2.4-2.2c1.7-0.1,2.2,0.5,2.2,2.2c-0.1,10.4,0,20.9-0.1,31.3
		c0,0.7,0.4,1.7-0.8,2.1C166.9,323.9,165.6,323.2,164.3,322.5z"/>
	<path class="st5" d="M155.4,317.4c0-4.4,0.1-8.8-0.1-13.1c-0.1-2.1,1.3-1.6,2.4-1.7c1.3-0.1,2.2,0,2.2,1.8
		c-0.1,5.2-0.1,10.4-0.1,15.6C158.4,319.1,156.9,318.3,155.4,317.4z"/>
	<path class="st6" d="M386.1,286.1c-0.6-0.5-0.4-1.1-0.4-1.7c0-9.3,0-18.6,0-27.9c0-0.6-0.2-1.3,0.4-1.7c0.6,4.4,1.3,8.8,1.8,13.1
		C388.7,274.1,389.3,280.3,386.1,286.1z"/>
	<path class="st7" d="M198.6,325c-0.6,0.7-1.4,0.3-2.1,0.3c-8,0-16.1,0-24.1,0c-0.7,0-1.5-0.3-2.1,0.4c-0.3-0.3-0.6-0.5-0.9-0.8
		c1,0,2,0,3-0.1c1.5-0.8,3-0.9,4.4,0c1.4,0,2.8,0,4.3,0c1.5-0.8,3-0.8,4.4,0c1.5,0,3.1,0,4.6,0c1.4-0.9,2.7-0.9,4.1,0
		C195.6,324.9,197.1,325,198.6,325z"/>
	<path class="st3" d="M200.5,156.5c-21.9,0-43.9,0-65.8,0c-2,0-2.5-0.5-2.5-2.5c0.1-25.4,0-50.8,0-76.2c0-2.7,0-2.7,2.8-2.7
		c44,0,87.9,0,131.9,0c1.8,0,2.5,0.4,2.5,2.4c-0.1,25.6-0.1,51.2,0,76.8c0,1.9-0.6,2.3-2.3,2.3C244.8,156.5,222.7,156.5,200.5,156.5
		z"/>
	<path class="st3" d="M200.8,250.6c-22,0-44,0-66,0.1c-2.1,0-2.6-0.6-2.6-2.6c0.1-25.4,0.1-50.8,0-76.2c0-2.1,0.5-2.6,2.6-2.6
		c44,0.1,88.1,0.1,132.1,0c2,0,2.5,0.6,2.5,2.5c-0.1,25.5-0.1,50.9,0,76.4c0,2-0.5,2.5-2.5,2.5C244.8,250.6,222.8,250.6,200.8,250.6
		z"/>
	<path class="st8" d="M276.3,298.5c-2.1-0.9-4.4-0.8-6.6-0.8c-0.2-0.1-0.3-0.2-0.4-0.3c-2.9-0.4-5.7-0.9-8.6-1.2
		c-1.9-0.2-2.9-1.1-3.5-2.9c-3.4-10.2-6.8-20.3-10.3-30.4c-0.1-0.3-0.2-0.5-0.4-0.7c-0.6-1.9-1.2-3.8-1.8-5.7c-0.7-2.4,0.5-4.1,3-4
		c9.3,0.4,18.7,0.9,28,1.3c9.7,0.4,19.5,0.9,29.3,1.3c1.6,0.1,3.3,0.1,4.9,0.2c1.9,0.1,3.1,1,3.5,3.1c0.3,1.7,0.4,3.6,1.5,5.1
		c0.9,2.9,1.4,5.8,2.1,8.7c0.2,1.5,1,3,0.5,4.6c0.7,3,1.4,6,1.9,9c0.2,1.2,0.7,1.5,1.9,1.7c6.9,0.7,13.8,1.5,20.7,2.3
		c0.6,0.1,1.7-0.3,1.8,0.8c0.1,1.1,0.4,2.4-1,3c0,0.1-0.1,0.1-0.1,0.2c0,0.1-0.1,0.1-0.1,0.1c0.8,0.4,1.9-0.3,2.5,0.6
		c-0.1,0.1-0.2,0.2-0.4,0.2c-6-0.5-10.4,3.4-15.4,5.6c-1.6,0.7-3,1.6-4.6,2.4c-2,1-4.1,1.2-6.2,0.9c-7-0.9-14-1.7-21-2.6
		c-6.8-0.9-13.6-1.8-20.3-2.7C277,298.2,276.6,298,276.3,298.5z"/>
	<path d="M361.4,233.4c0,2,0.9,3.7,1.8,5.4c1.8,3.3,1.9,6.6,0.3,10.1c-0.6,1.3-1,2.7-1.4,4.1c-0.8,2.7-0.4,5.1,2.3,7
		c-2.3,0.4-4.3,0.7-6.4,0.7c-4.2,0-6.6-2.1-7.4-6.2c-0.7-3.4,0.1-6.8,0.2-10.3c0.1-3.3,0-6.5-2.8-8.9c-3.8-0.8-4-1.2-4.1-4.9
		c-0.1-5.5-2.7-9.6-7-11c-1.6-0.6-3.1-0.5-4.4,0.8c-2.1,2.1-4.6,2.5-7.2,1.8c-2.2-0.6-4.7-0.4-6.5-2.3c-3.1-3.9-3-13,0.7-16.8
		c5-5,10.9-8.6,18.6-6.8c4.2,1,7.9,3,11.4,5.5c1.4,1.1,2.8,2.3,4.3,3.1c5.6,3.1,7.8,8.2,8.4,14.3c0.3,3.2-0.1,6.3-0.6,9.4
		C361.3,230.1,361.2,231.8,361.4,233.4z"/>
	<path class="st9" d="M318.8,219.7c2.5,1.2,5.2,1.6,7.9,2c2,0.3,3.8-0.3,5.2-1.8c1.4-1.6,3.1-1.7,5.1-1.1c4.2,1.4,7.1,5.4,7.4,10.2
		c0,0.6,0.1,1.2,0,1.9c-0.3,1.9,0.2,3.2,2.3,3.6c0.5,0.1,1,0.4,1.3,0.9c-0.9,2.6-1.1,5.2-1.1,8c0,0.8,0,1.6,0,2.4
		c-0.6,1.2-1.3,2.4-2.1,3.5c-2,2.6-3.4,5.4-3.1,8.9c0.1,1.9-0.6,3.5-2.4,4.5c-1.7,1-2.6,0.5-2.8-1.4c-0.2-2.5-0.8-4.9-1.7-7.2
		c-0.8-1.9-1.3-3.9-1.2-6c0-0.9-0.2-1.6-0.7-2.3c-0.5-0.7-0.8-1.4-0.7-2.3c0.8-1.7,0.1-3.2-0.5-4.8c-0.7-0.9-1.3-1.8-2-2.7
		c1-1.4-0.1-1.7-1.1-2.1C322.4,231.1,318.9,226.6,318.8,219.7z"/>
	<path class="st10" d="M93.4,115c-1.6,2.8,0.1,4.3,2.9,5.7c2.5,1.3,2.4,4.1-0.4,5.5c-2.5,1.2-3.2,2.5-2.7,5.3
		c0.7,3.7-1.6,5.2-5.2,3.9c-1.3-0.5-2.5-1.1-3.6-2c-1.1-1-2-1.1-3.1,0c-1.2,1.1-2.7,1.9-4.3,2.3c-3,0.8-5.2-0.9-4.5-3.9
		c0.6-2.8,0.1-4.3-2.7-4.9c-0.7-0.1-1.3-0.7-1.9-1.2c-1.8-1.5-1.8-3.1-0.1-4.7c1.1-1.1,2.5-1.7,4-2.1c1-0.3,1.4-0.6,1.1-1.8
		c-0.5-2-1.2-4.4,0.9-5.9c2.1-1.5,4.4-0.5,6.1,0.9c2.3,1.9,4.1,2,6.3-0.1c0.6-0.6,1.6-0.9,2.4-1.1C91.7,109.9,93.5,111.3,93.4,115z"
		/>
	<path class="st11" d="M82.8,228.3c-2.5,0-5.1,0-7.6,0c-4.5-0.1-6.7-3.7-4.7-7.7c2.1-4.3,4.3-8.6,6.6-12.8c1.1-2,0.5-4,0.6-6
		c0-0.4-0.2-0.6-0.6-0.7c-1.2-0.4-1.4-1.3-1.4-2.4c0-2.5,0.4-3,3-3c3,0,5.9,0,8.9,0c1.1,0,2.3,0,2.4,1.3c0.2,1.3,0.7,3-0.9,3.9
		c-0.9,0.4-1,0.9-1,1.7c-0.1,2.4,0.2,4.7,1.5,6.9c2,3.6,3.8,7.3,5.7,11c2.1,4.3,0,7.8-4.8,7.9C87.8,228.4,85.3,228.3,82.8,228.3z"/>
	<path class="st12" d="M73.4,47.5c0.1,2.1-1.9,4.1-4.1,4.1c-2,0-4-1.9-4-3.9c0-2.2,1.7-3.9,4-3.9C71.5,43.7,73.3,45.3,73.4,47.5z"/>
	<path class="st13" d="M49.8,47.5c0.1,2.1-1.7,3.9-3.9,4c-2.1,0.1-4-1.7-4.1-3.8c-0.1-2.2,1.7-4.1,4-4.1
		C48,43.7,49.7,45.3,49.8,47.5z"/>
	<path class="st14" d="M57.6,43.7c2.2,0,4,1.7,4,3.8c0,2.2-1.9,4.1-4.1,4c-2.2-0.1-3.9-1.9-3.9-4C53.6,45.4,55.3,43.7,57.6,43.7z"/>
	<path class="st5" d="M203.1,324.9c-1.5,0-3,0-4.5,0.1c0-16.6,0-33.2-0.1-49.7c0-1.9,0.9-1.9,2.3-1.9c1.3,0,2.3-0.2,2.3,1.8
		C203.1,291.7,203.2,308.3,203.1,324.9z"/>
	<path class="st5" d="M185.4,324.9c-1.5,0-3,0-4.4,0c0-12.7,0-25.3-0.1-38c0-2,1.2-1.6,2.3-1.6c1.1,0,2.3-0.3,2.3,1.6
		C185.4,299.6,185.4,312.3,185.4,324.9z"/>
	<path class="st15" d="M176.7,324.9c-1.5,0-3,0-4.4,0c0-12.7,0-25.4-0.1-38.1c0-1.9,1.2-1.5,2.2-1.5c1,0,2.4-0.6,2.4,1.5
		C176.7,299.5,176.7,312.2,176.7,324.9z"/>
	<path class="st5" d="M206.6,324.9c0-10.9,0-21.8-0.1-32.7c0-2,1.4-1.4,2.4-1.5c1,0,2.2-0.3,2.2,1.5c-0.1,10.9-0.1,21.8-0.1,32.7
		C209.5,325.3,208.1,325.3,206.6,324.9z"/>
	<path class="st16" d="M228.7,324.9c-1.4,0.8-2.9,0.2-4.4,0.4c0-6.5-0.1-13-0.1-19.6c0-3.2,0.1-6.3,0-9.5c-0.1-2,1-2,2.4-2
		c1.4,0,2.2,0.1,2.2,1.9C228.7,305.8,228.7,315.3,228.7,324.9z"/>
	<path class="st16" d="M237.4,324.9c-1.5,0-3,0-4.5,0c0-8.9,0-17.7-0.1-26.6c0-2,1-1.9,2.3-1.8c1.3,0,2.4-0.2,2.3,1.8
		C237.4,307.1,237.4,316,237.4,324.9z"/>
	<path class="st16" d="M246.1,324.9c-1.5,0-3,0-4.5,0c0-8.9,0-17.7-0.1-26.6c0-2,1.1-1.8,2.3-1.8c1.3,0,2.3-0.1,2.3,1.8
		C246.1,307.2,246.1,316,246.1,324.9z"/>
	<path class="st16" d="M215.3,324.9c0-6.9,0-13.7-0.1-20.6c0-1.6,0.8-1.8,2-1.7c1.1,0.1,2.6-0.7,2.6,1.5c-0.1,6.9-0.1,13.9-0.1,20.8
		C218.2,325.2,216.7,325.3,215.3,324.9z"/>
	<path class="st17" d="M194.1,324.9c-1.4,0-2.7,0-4.1,0c-0.1-0.4-0.3-0.8-0.3-1.2c0-6.6,0-13.2,0-19.8c0-2.1,1.6-1.2,2.6-1.3
		c1.1-0.1,2-0.2,2,1.5C194.1,311,194.1,318,194.1,324.9z"/>
	<path class="st7" d="M269.3,297.3c0.3-0.1,0.4,0.1,0.4,0.3c0,9.2,0,18.5,0,27.7c-7.2,0-14.3,0-21.5,0c-0.6,0-1.4,0.3-1.9-0.3
		c7,0,14-0.1,21,0c1.7,0,2.1-0.5,2.1-2.1C269.2,314.4,269.3,305.8,269.3,297.3z"/>
	<path class="st7" d="M215.3,324.9c1.5,0,2.9,0,4.4,0.1c1.4,0.2,2.8-0.4,4.1,0.4c-6.2,0-12.4,0-18.7,0c-0.7,0-1.4,0.2-1.9-0.4
		c1.1,0,2.2-0.1,3.3-0.1c1.5,0,2.9,0,4.4,0C212.4,324.9,213.8,324.9,215.3,324.9z"/>
	<path class="st7" d="M232.8,325c-1.3,0.6-2.7,0.6-4,0C230.2,325,231.5,325,232.8,325z"/>
	<path class="st7" d="M241.5,325c-1.3,0.6-2.7,0.6-4,0C238.9,325,240.2,325,241.5,325z"/>
	<path class="st18" d="M345.3,294.5c-1.2,0-2.4,0-3.8,0c0.6-0.6,1-0.8,1.5-0.9c2,0.4,4-0.5,6-0.2C348,294.4,346.6,294.3,345.3,294.5
		z"/>
	<path class="st19" d="M332.5,243.2c0,0.7,0.1,1.4,0.6,1.9c0.9,0.9,1.1,2,1.1,3.2c-0.1,1.8,0.3,3.5,1,5.2c1,2.6,1.9,5.1,1.8,7.9
		c-0.1,1.3,0.6,1.4,1.7,1c2.1-0.9,2.6-2.8,2.4-4.8c-0.3-5.1,2.8-8.5,5.8-12c-0.3,2.6-0.5,5.1-1.2,7.7c-1.7,6.2-1.8,12.6-1.5,19
		c0,0.1,0,0.3,0.1,0.4c0.4,3.8-0.6,5-4.3,4.2c-3.8-0.8-7.4-1.3-11,0.8c-0.8-7.2-0.7-14.1,0.8-21c0.7-3.3-0.1-6.7,0.7-10
		c0.4-1.7,0.7-3.4,1.7-4.8C333.1,242.1,332.6,242.7,332.5,243.2z"/>
	<path class="st20" d="M317.7,276.7c-0.3-1.5-0.9-3-0.8-4.5c0.3-1.3,0.8-2.6,2.3-3c0.3,1.5,0.6,3,0.9,4.4
		C320.9,276.9,321,276.9,317.7,276.7z"/>
	<path class="st21" d="M319.1,269.2c-0.8,1-1.5,2-2.3,3c-0.9-2.8-1.9-5.7-1.8-8.7c1.1,1.3,2.3,2.7,3.4,4
		C318.9,267.9,319.5,268.4,319.1,269.2z"/>
	<path class="st22" d="M332.5,243.2c-0.1-0.5,0.1-1-0.4-1.3c0.2-1.2-0.8-2.2-0.4-3.4C332.6,240,333.4,241.5,332.5,243.2z"/>
	<path class="st5" d="M185.8,116.7c0,9.5-0.1,19,0.1,28.5c0,2-0.8,2.2-2.4,2.2c-1.7,0-2.2-0.4-2.2-2.2c0.1-19.1,0.1-38.3,0-57.4
		c0-1.9,0.7-2.1,2.3-2.1c1.5,0,2.3,0.2,2.3,2.1C185.8,97.5,185.8,107.1,185.8,116.7z"/>
	<path class="st23" d="M206.6,118.9c0-8.5,0-17,0-25.6c0-1.8,0.5-2.2,2.2-2.2c1.6,0,2.4,0.2,2.4,2.2c-0.1,17.2-0.1,34.4,0,51.5
		c0,2-0.8,2.1-2.4,2.2c-1.7,0-2.2-0.5-2.2-2.2C206.6,136.2,206.6,127.6,206.6,118.9z"/>
	<path class="st15" d="M172.6,122c0-7.6,0.1-15.1,0-22.7c0-2,1-1.9,2.4-2c1.4,0,2.2,0.2,2.2,2c-0.1,15.3-0.1,30.5,0,45.8
		c0,2.1-1,1.9-2.4,1.9c-1.4,0-2.2-0.1-2.2-2C172.7,137.4,172.6,129.7,172.6,122z"/>
	<path class="st16" d="M232.6,122c0-7.6,0.1-15.1,0-22.7c0-1.8,0.7-2,2.2-2c1.4,0,2.4-0.1,2.4,2c-0.1,15.3-0.1,30.5,0,45.8
		c0,2-1,1.9-2.4,2c-1.4,0-2.2-0.1-2.2-2C232.7,137.4,232.6,129.7,232.6,122z"/>
	<path class="st15" d="M245.8,122.3c0,7.6,0,15.1,0,22.7c0,1.7-0.5,2.1-2.1,2.1c-1.7,0-2.2-0.4-2.2-2.2c0.1-15.1,0.1-30.3,0-45.4
		c0-1.7,0.5-2.2,2.2-2.2c1.8,0,2.1,0.7,2.1,2.3C245.8,107.2,245.8,114.7,245.8,122.3z"/>
	<path class="st24" d="M198.7,125.7c0-6.5,0.1-12.9,0-19.4c0-2,1-1.9,2.3-1.8c1.3,0,2.3-0.2,2.3,1.8c-0.1,13.1-0.1,26.1,0,39.2
		c0,2.1-1.2,1.8-2.5,1.9c-1.4,0.1-2.1-0.2-2.1-1.9C198.7,138.9,198.7,132.3,198.7,125.7z"/>
	<path class="st23" d="M228.4,128.8c0,5.4-0.1,10.9,0,16.3c0.1,2.1-1.1,1.9-2.5,1.9c-1.5,0.1-2.2-0.3-2.2-2
		c0.1-10.8,0.1-21.6,0-32.4c0-2,0.9-2,2.4-2c1.6,0,2.3,0.3,2.3,2.1C228.4,118.1,228.4,123.4,228.4,128.8z"/>
	<path class="st15" d="M190,129.8c0-5,0.1-10,0-15c-0.1-2.1,1.2-1.7,2.4-1.7c1.2,0,2.2-0.2,2.2,1.7c-0.1,10.2-0.1,20.3,0,30.5
		c0,2.1-1.2,1.7-2.4,1.7c-1.2,0-2.2,0.2-2.2-1.7C190.1,140.1,190,135,190,129.8z"/>
	<path class="st5" d="M164,130.2c0-4.9,0.1-9.8,0-14.6c0-1.6,0.4-2.1,2-2c1.3,0.1,2.6-0.3,2.6,1.8c-0.1,10-0.1,19.9,0,29.9
		c0,2.1-1.3,1.6-2.5,1.7c-1.3,0.1-2.2,0-2.2-1.8C164,140.2,164,135.2,164,130.2z"/>
	<path class="st16" d="M219.8,134.6c0,3.6-0.1,7.1,0,10.7c0.1,2.1-1.2,1.7-2.4,1.7c-1.3,0.1-2.2,0.1-2.2-1.7
		c0.1-7.1,0.1-14.3,0-21.4c0-2.1,1.3-1.6,2.4-1.7c1.2-0.1,2.3-0.1,2.2,1.7C219.7,127.5,219.8,131.1,219.8,134.6z"/>
	<path class="st25" d="M159.8,139.6c0,2-0.1,4,0,6c0.1,1.9-1.3,1.4-2.3,1.4c-1,0-2.3,0.5-2.3-1.4c0.1-4,0-8.1,0-12.1
		c0-1.8,1.2-1.3,2.2-1.3c0.9,0,2.4-0.7,2.4,1.3C159.8,135.4,159.8,137.5,159.8,139.6z"/>
	<path class="st5" d="M185.5,209.5c0,9.6-0.1,19.1,0.1,28.7c0,2-0.8,2.1-2.4,2.2c-1.7,0.1-2.2-0.5-2.2-2.2c0.1-19.1,0.1-38.3,0-57.4
		c0-1.9,0.8-2,2.3-2.1c1.6,0,2.3,0.2,2.3,2.1C185.4,190.4,185.5,200,185.5,209.5z"/>
	<path class="st5" d="M211.1,212.4c0,8.6-0.1,17.2,0.1,25.8c0,2-0.9,2.1-2.4,2.2c-1.7,0.1-2.2-0.5-2.2-2.2c0.1-17.2,0.1-34.4,0-51.5
		c0-2,0.9-2.1,2.4-2.2c1.7-0.1,2.2,0.5,2.2,2.2C211,195.3,211.1,203.8,211.1,212.4z"/>
	<path class="st15" d="M177.2,215.5c0,7.6-0.1,15.3,0,22.9c0,2-1,1.9-2.4,2c-1.4,0-2.2-0.1-2.2-1.9c0.1-15.4,0.1-30.8,0-46.2
		c0-2,1-1.9,2.3-1.8c1.3,0,2.4-0.2,2.3,1.8C177.1,199.9,177.2,207.7,177.2,215.5z"/>
	<path class="st16" d="M232.9,215.6c0-7.6,0.1-15.3,0-22.9c0-2,0.9-2,2.4-2c1.6,0,2.3,0.2,2.3,2.1c-0.1,15.3-0.1,30.5,0,45.8
		c0,2.1-0.9,2-2.5,2.1c-1.7,0.1-2.2-0.5-2.2-2.2C233,230.9,232.9,223.3,232.9,215.6z"/>
	<path class="st24" d="M241.6,215.7c0-7.7,0.1-15.4,0-23.1c0-1.9,0.9-1.9,2.3-1.9c1.2,0,2.4-0.3,2.4,1.8c-0.1,15.5-0.1,30.9,0,46.4
		c0,2.1-1.2,1.7-2.4,1.8c-1.4,0.1-2.3,0-2.3-1.9C241.7,231.1,241.6,223.4,241.6,215.7z"/>
	<path class="st5" d="M198.6,219.3c0-6.4,0.1-12.8,0-19.2c0-2,0.9-2,2.4-2c1.4,0,2.3,0.1,2.2,1.9c-0.1,12.9-0.1,25.9,0,38.8
		c0,2.2-1.2,1.8-2.5,1.9c-1.5,0.1-2.2-0.3-2.1-2C198.7,232.2,198.6,225.8,198.6,219.3z"/>
	<path class="st16" d="M224.2,221.7c0-5.4,0.1-10.9,0-16.3c0-1.7,0.7-2,2.1-1.9c1.3,0.1,2.6-0.2,2.5,1.9c-0.1,10.9-0.1,21.9,0,32.8
		c0,2.1-1.2,1.7-2.4,1.7c-1.3,0.1-2.2,0.1-2.2-1.8C224.3,232.7,224.2,227.2,224.2,221.7z"/>
	<path class="st23" d="M194.2,223c0,5-0.1,10,0,15c0.1,2.1-1.1,1.8-2.5,1.9c-1.5,0.1-2.2-0.2-2.2-2c0.1-9.9,0.1-19.8,0-29.7
		c0-1.9,0.7-2.2,2.4-2.3c1.9-0.1,2.3,0.7,2.2,2.4C194.1,213.2,194.2,218.1,194.2,223z"/>
	<path class="st26" d="M164.4,223.4c0-4.8,0.1-9.6,0-14.4c0-1.8,0.6-2.2,2.3-2.1c1.5,0.1,2.4,0,2.4,2c-0.1,9.8-0.1,19.5,0,29.3
		c0,2-0.9,2.2-2.5,2.2c-1.6,0-2.1-0.4-2.1-2.1C164.4,233.3,164.4,228.3,164.4,223.4z"/>
	<path class="st27" d="M219.8,228.2c0,3.6-0.1,7.3,0,10.9c0,1.6-0.8,1.7-1.9,1.6c-1.1-0.1-2.6,0.6-2.6-1.5c0-7.3,0-14.6,0-21.9
		c0-2.1,1.4-1.6,2.5-1.7c1.2-0.1,2.1,0,2.1,1.7C219.7,220.9,219.8,224.5,219.8,228.2z"/>
	<path class="st28" d="M159.9,233.6c0,2-0.1,4,0,6c0.1,1.4-0.6,1.7-1.8,1.5c-1.1-0.2-2.8,0.7-2.8-1.4c0-4.1,0-8.1,0-12.2
		c0-1.9,1.5-1.2,2.4-1.3c0.9-0.1,2.2-0.4,2.1,1.3C159.8,229.6,159.9,231.6,159.9,233.6z"/>
	<path class="st29" d="M331.4,294.3c-2.6,1.5-5.3,3.1-7.9,4.6c-0.6,0.4-1,0.3-1.1-0.5c0-0.1,0-0.1-0.1-0.2c-1.9-5.4-1.6-5.8,3.9-5.1
		c1.7,0.2,3.4,0.5,5,0.7C331.4,294,331.4,294.2,331.4,294.3z"/>
	<path class="st30" d="M279.8,275.4c0.2-1.1,0.3-2.4,2-2.5c1.3,0,2.7,1.6,2.8,3.3c0,1.3-0.4,2.5-1.9,2.8
		C281.3,279.1,279.8,277.2,279.8,275.4z"/>
	<path class="st0" d="M83.2,118.8c0.9,0.2,2.2-0.4,3.1,0.8c0.8,1.2,2.5,2.3,2.3,3.7c-0.2,1.6-1.6,3-2.9,4.2c-1,1-2.5,0.4-3.7,0.5
		c-1.4,0.1-4.7-3.5-4.7-4.8C77.4,121.2,80.7,118.7,83.2,118.8z"/>
	<path class="st31" d="M92.1,114.8c-0.2,1.1-0.1,3.1-1.1,3.3c-1.6,0.3-3.6,0-5-1c-2.2-1.6-2.1-2.1,0.2-3.5c0.9-0.5,1.8-1,2.8-1.3
		C91.1,111.5,92.2,112.3,92.1,114.8z"/>
	<path class="st31" d="M73.9,114.4c0-2.3,1-3,3.1-2.2c1,0.4,2,0.9,2.9,1.5c0.7,0.4,1.9,0.9,1.6,1.6c-0.3,0.9-1.2,1.9-2.3,2.2
		c-1.3,0.3-2.7,0.4-4,0.6c-0.6,0.1-0.8-0.3-0.9-0.8C74,116.3,73.9,115.4,73.9,114.4z"/>
	<path class="st31" d="M73.2,119.9c0.9-0.1,2.5,3,1.9,4c-0.6,1-0.5,2.8-2,2.7c-1.9-0.2-3.7-1-4.9-2.7c-0.5-0.7-0.1-1.3,0.4-1.8
		C69.9,121,71.5,120.4,73.2,119.9z"/>
	<path class="st31" d="M92.1,131.6c0,2.6-1,3.4-3.1,2.7c-1.1-0.3-2.2-0.9-3.1-1.6c-0.6-0.4-1.7-0.7-1.5-1.5c0.2-0.9,1-1.7,1.9-2
		c1.4-0.4,2.8-0.5,4.2-0.8c0.8-0.2,0.9,0.4,1.1,0.9C91.8,130.3,92,131.1,92.1,131.6z"/>
	<path class="st31" d="M73.9,131.9c0.1-3,0.4-3.2,3.5-2.8c1.4,0.2,2.8,0.1,3.8,1.5c0.6,0.8,0.5,1.1-0.2,1.6
		c-1.2,0.9-2.5,1.7-3.9,2.2C74.8,135,73.8,134.3,73.9,131.9z"/>
	<path class="st32" d="M92.3,126.4c-0.9-0.8-1.7-2.1-1.7-3.2c0-1,0.4-2.7,2-2.9c1.5-0.1,4,2.1,4,3.1
		C96.6,124.4,93.9,126.5,92.3,126.4z"/>
	<path class="st33" d="M78.6,127.8c-1.3-0.2-2.6,0.2-3.2-0.6c-0.6-0.7,0.4-1.5,0.7-2.3c0.7,0.2,0.9,0.9,1.3,1.4
		C77.8,126.6,78.1,127.1,78.6,127.8z"/>
	<path class="st34" d="M87.5,127.6c0.8-1.1,1.3-1.9,1.9-2.8c0.8,0.5,1.4,1.5,1.1,2C90,127.6,88.8,127.5,87.5,127.6z"/>
	<path class="st35" d="M77.8,119.8c-0.4,0.6-0.8,1.2-1.2,1.8c-0.1-0.8-2.7-1.6-0.1-2.4C76.9,119.2,77.7,118.7,77.8,119.8z"/>
	<path class="st36" d="M87.8,119.3c1.2,0,2.2-0.2,2.6,0.6c0.3,0.5-0.3,1.3-1,1.7C89,121,88.5,120.3,87.8,119.3z"/>
	<path class="st37" d="M84,117.2c-0.8,0.2-1.4,0.3-1.9-0.1C82.6,116,83.2,116.1,84,117.2z"/>
	<path class="st38" d="M81.7,129.6c0.9-0.5,1.5-0.4,2.1-0.2C83.3,130.4,82.7,130.1,81.7,129.6z"/>
	<path class="st39" d="M77.8,119.8c-0.3-0.6-0.9-0.4-1.4-0.5c0.6-0.4,1.2-0.6,1.8-0.2C78.4,119.3,78,119.6,77.8,119.8z"/>
	<path class="st0" d="M82.7,227c-2.5,0-4.9,0-7.4,0c-3.7-0.1-5.2-2.6-3.6-5.8c0.4-0.9,0.9-1.7,1.3-2.6c1.7-3.4,1.8-3.5,5.5-2.5
		c4.1,1,8.1,2,12.4,1.5c0.3,0,0.7-0.1,1,0c0.9,0.4,2.9,5.4,2.6,6.5c-0.4,1.8-1.9,2.9-4.4,2.9C87.7,227,85.2,227,82.7,227z"/>
	<path class="st40" d="M83,197c1.4,0,2.7,0,4.1,0c0.7,0,1.5-0.2,1.6,0.8c0,0.7,0.4,1.6-0.6,2c-1.3,0.4-1.2,1.4-1.3,2.5
		c-0.8,4.5,1.8,8,3.6,11.7c1.2,2.3,1.2,2.3-1.4,2.4c-4.3,0.1-8.4-1.4-12.5-2.1c-0.8-0.1-0.8-0.6-0.5-1.2c0.5-0.8,0.8-1.8,1.3-2.6
		c1.9-2.6,2-5.6,1.8-8.7c0-0.9-0.2-1.7-1.2-2c-1.2-0.4-0.8-1.3-0.8-2.1c0.1-1,0.9-0.8,1.6-0.8C80.1,197,81.5,197,83,197z"/>
	<path class="st41" d="M82.3,206.6c1.8-0.1,3.5,1.5,3.6,3.3c0.1,1.8-1.4,3.4-3.3,3.6c-1.9,0.1-3.7-1.5-3.7-3.4
		C78.9,208.3,80.5,206.7,82.3,206.6z"/>
	<path class="st42" d="M85.9,202.9c-0.2,1-0.7,1.8-1.8,1.9c-1.1,0.1-1.8-0.5-1.9-1.6c-0.1-1.2,0.6-2,1.8-2
		C85,201.1,85.6,201.9,85.9,202.9z"/>
	<path class="st43" d="M84.4,209.9c0,1.3-0.7,2-1.9,2.1c-1.3,0-2.1-0.7-2.1-2c0-1.2,0.8-1.9,2-1.9C83.7,208.1,84.3,208.8,84.4,209.9
		z"/>
</g>
</svg>
