<?xml version="1.0" encoding="utf-8"?>
<!-- Generator: Adobe Illustrator 22.0.0, SVG Export Plug-In . SVG Version: 6.00 Build 0)  -->
<svg version="1.1" id="Layer_1" xmlns="http://www.w3.org/2000/svg" xmlns:xlink="http://www.w3.org/1999/xlink" x="0px" y="0px"
	 viewBox="0 0 558.1 430.9" style="enable-background:new 0 0 558.1 430.9;" xml:space="preserve">
<style type="text/css">
	.st0{fill:#D4EAE4;}
	.st1{filter:url(#Adobe_OpacityMaskFilter);}
	.st2{fill:#FFFFFF;}
	.st3{opacity:3.000000e-02;mask:url(#b_1_);fill:none;stroke:#FFFFFF;stroke-width:0.63;enable-background:new    ;}
	.st4{filter:url(#Adobe_OpacityMaskFilter_1_);}
	.st5{mask:url(#b_2_);fill:#FFFFFF;}
	.st6{filter:url(#Adobe_OpacityMaskFilter_2_);}
	.st7{mask:url(#b_3_);fill:#505759;}
	.st8{filter:url(#Adobe_OpacityMaskFilter_3_);}
	.st9{mask:url(#b_4_);fill:#505759;}
	.st10{filter:url(#Adobe_OpacityMaskFilter_4_);}
	.st11{opacity:0.398;mask:url(#b_5_);fill:#007FA3;enable-background:new    ;}
	.st12{filter:url(#Adobe_OpacityMaskFilter_5_);}
	.st13{opacity:0.397;mask:url(#b_6_);fill:#FFB81C;enable-background:new    ;}
	.st14{filter:url(#Adobe_OpacityMaskFilter_6_);}
	.st15{opacity:0.395;mask:url(#b_7_);fill:#EB1B7E;enable-background:new    ;}
	.st16{filter:url(#Adobe_OpacityMaskFilter_7_);}
	.st17{opacity:0.2;mask:url(#b_8_);fill:#16B1A7;enable-background:new    ;}
	.st18{fill:#505759;}
	.st19{opacity:0.398;fill:#007FA3;enable-background:new    ;}
	.st20{fill:url(#SVGID_1_);}
	.st21{fill:#7CFCFF;}
	.st22{fill:url(#SVGID_2_);}
	.st23{fill:url(#SVGID_3_);}
	.st24{opacity:0.397;fill:#FFB81C;enable-background:new    ;}
	.st25{opacity:0.395;fill:#EB1B7E;enable-background:new    ;}
	.st26{opacity:0.4;fill:#84BD00;enable-background:new    ;}
	.st27{opacity:0.498;fill:#84BD00;enable-background:new    ;}
	.st28{fill:#EE936F;}
	.st29{fill:#003057;}
	.st30{opacity:0.1;enable-background:new    ;}
	.st31{fill:#007FA3;}
	.st32{fill:#EFB7B9;}
	.st33{fill:#EA7600;}
	.st34{opacity:0.2;fill:#16B1A7;enable-background:new    ;}
</style>
<g>
	<g transform="translate(.118 .599)">
		<g>
			<path id="a_1_" class="st0" d="M97.2,106.4c8.2-46.7,70.5-79.8,127.2-95.8c107.4-30.3,192,8.1,231.1,25.9
				C503.3,58.4,558,128.7,558,239c0,110.3-77.4,158.4-117.6,170c-40.2,11.6-105.9,21.3-141.4,0c-35.5-21.3-72.4-52-156.6-44.4
				c-56.4,5.1-91.6-33.2-101.2-89.2S82.9,188.3,97.2,106.4L97.2,106.4z"/>
		</g>
		<defs>
			<filter id="Adobe_OpacityMaskFilter" filterUnits="userSpaceOnUse" x="143.8" y="68.3" width="31" height="20.1">
				<feColorMatrix  type="matrix" values="1 0 0 0 0  0 1 0 0 0  0 0 1 0 0  0 0 0 1 0"/>
			</filter>
		</defs>
		<mask maskUnits="userSpaceOnUse" x="143.8" y="68.3" width="31" height="20.1" id="b_1_">
			<g class="st1">
				<path id="a_2_" class="st2" d="M97.2,106.4c8.2-46.7,70.5-79.8,127.2-95.8c107.4-30.3,192,8.1,231.1,25.9
					C503.3,58.4,558,128.7,558,239c0,110.3-77.4,158.4-117.6,170c-40.2,11.6-105.9,21.3-141.4,0c-35.5-21.3-72.4-52-156.6-44.4
					c-56.4,5.1-91.6-33.2-101.2-89.2S82.9,188.3,97.2,106.4L97.2,106.4z"/>
			</g>
		</mask>
		<path class="st3" d="M174.5,70.7V86c0,1.1-0.9,2.1-2.1,2.1h-28c6-6.9,12.4-13.4,19.3-19.4h8.7C173.6,68.6,174.5,69.6,174.5,70.7
			C174.5,70.7,174.5,70.7,174.5,70.7L174.5,70.7z"/>
		<defs>
			<filter id="Adobe_OpacityMaskFilter_1_" filterUnits="userSpaceOnUse" x="60.6" y="45.3" width="456" height="261">
				<feColorMatrix  type="matrix" values="1 0 0 0 0  0 1 0 0 0  0 0 1 0 0  0 0 0 1 0"/>
			</filter>
		</defs>
		<mask maskUnits="userSpaceOnUse" x="60.6" y="45.3" width="456" height="261" id="b_2_">
			<g class="st4">
				<path id="a_3_" class="st2" d="M97.2,106.4c8.2-46.7,70.5-79.8,127.2-95.8c107.4-30.3,192,8.1,231.1,25.9
					C503.3,58.4,558,128.7,558,239c0,110.3-77.4,158.4-117.6,170c-40.2,11.6-105.9,21.3-141.4,0c-35.5-21.3-72.4-52-156.6-44.4
					c-56.4,5.1-91.6-33.2-101.2-89.2S82.9,188.3,97.2,106.4L97.2,106.4z"/>
			</g>
		</mask>
		<path class="st5" d="M516.6,51.8v248c0,3.6-2.9,6.5-6.5,6.5l0,0H67.1c-3.6,0-6.5-2.9-6.5-6.5l0,0V126.5c2.2-0.4,4.3-0.7,6.5-0.8
			c1.7-0.1,3.5-0.2,5.2-0.2h1c1.9,0,3.9,0.1,5.8,0.2c0.2-0.5,0.4-0.9,0.6-1.4c0.8-1.7,1.5-3.3,2.3-5c0,0,0,0,0,0
			c0.1-0.3,0.3-0.5,0.4-0.8c0.6-1.3,1.3-2.7,2-4c0.3-0.6,0.6-1.2,0.9-1.8c0.1-0.1,0.1-0.3,0.2-0.4c0.3-0.6,0.7-1.2,1-1.9
			c1.7-3.1,3.4-6.1,5.2-9.1c0.2-0.3,0.3-0.5,0.5-0.8c0.3-0.5,0.5-0.9,0.9-1.4c0.8-1.2,1.5-2.4,2.3-3.6c0.5-0.8,1.1-1.7,1.7-2.5
			c2.8-4.3,5.8-8.4,9-12.5c0.2-0.3,0.4-0.5,0.7-0.8l2.3-2.9l0.3-0.4l0.8-1c1.3-1.5,2.5-3,3.8-4.5c6.5-7.5,13.4-14.5,20.9-21
			c0.3-0.3,0.6-0.5,0.9-0.8c1.4-1.2,2.8-2.4,4.2-3.6h282.2c1.3,1,2.5,2.1,3.8,3.2c1.5-1.1,3-2.2,4.6-3.2H510
			C513.6,45.3,516.5,48.2,516.6,51.8L516.6,51.8z"/>
		<defs>
			<filter id="Adobe_OpacityMaskFilter_2_" filterUnits="userSpaceOnUse" x="125.1" y="108.6" width="367.3" height="5.7">
				<feColorMatrix  type="matrix" values="1 0 0 0 0  0 1 0 0 0  0 0 1 0 0  0 0 0 1 0"/>
			</filter>
		</defs>
		<mask maskUnits="userSpaceOnUse" x="125.1" y="108.6" width="367.3" height="5.7" id="b_3_">
			<g class="st6">
				<path id="a_4_" class="st2" d="M97.2,106.4c8.2-46.7,70.5-79.8,127.2-95.8c107.4-30.3,192,8.1,231.1,25.9
					C503.3,58.4,558,128.7,558,239c0,110.3-77.4,158.4-117.6,170c-40.2,11.6-105.9,21.3-141.4,0c-35.5-21.3-72.4-52-156.6-44.4
					c-56.4,5.1-91.6-33.2-101.2-89.2S82.9,188.3,97.2,106.4L97.2,106.4z"/>
			</g>
		</mask>
		<path class="st7" d="M492.4,108.6v5.7H125.1c0.7-1.1,1.4-2.3,2.1-3.4c0.5-0.8,1-1.6,1.5-2.3H492.4z"/>
		<defs>
			<filter id="Adobe_OpacityMaskFilter_3_" filterUnits="userSpaceOnUse" x="197.8" y="80.7" width="5.7" height="217.6">
				<feColorMatrix  type="matrix" values="1 0 0 0 0  0 1 0 0 0  0 0 1 0 0  0 0 0 1 0"/>
			</filter>
		</defs>
		<mask maskUnits="userSpaceOnUse" x="197.8" y="80.7" width="5.7" height="217.6" id="b_4_">
			<g class="st8">
				<path id="a_5_" class="st2" d="M97.2,106.4c8.2-46.7,70.5-79.8,127.2-95.8c107.4-30.3,192,8.1,231.1,25.9
					C503.3,58.4,558,128.7,558,239c0,110.3-77.4,158.4-117.6,170c-40.2,11.6-105.9,21.3-141.4,0c-35.5-21.3-72.4-52-156.6-44.4
					c-56.4,5.1-91.6-33.2-101.2-89.2S82.9,188.3,97.2,106.4L97.2,106.4z"/>
			</g>
		</mask>
		<path class="st9" d="M203.5,80.7v217.6h-5.7V80.7H203.5z"/>
		<defs>
			<filter id="Adobe_OpacityMaskFilter_4_" filterUnits="userSpaceOnUse" x="114.8" y="126.5" width="393.9" height="49.9">
				<feColorMatrix  type="matrix" values="1 0 0 0 0  0 1 0 0 0  0 0 1 0 0  0 0 0 1 0"/>
			</filter>
		</defs>
		<mask maskUnits="userSpaceOnUse" x="114.8" y="126.5" width="393.9" height="49.9" id="b_5_">
			<g class="st10">
				<path id="a_6_" class="st2" d="M97.2,106.4c8.2-46.7,70.5-79.8,127.2-95.8c107.4-30.3,192,8.1,231.1,25.9
					C503.3,58.4,558,128.7,558,239c0,110.3-77.4,158.4-117.6,170c-40.2,11.6-105.9,21.3-141.4,0c-35.5-21.3-72.4-52-156.6-44.4
					c-56.4,5.1-91.6-33.2-101.2-89.2S82.9,188.3,97.2,106.4L97.2,106.4z"/>
			</g>
		</mask>
		<path class="st11" d="M138,126.5V149h-23.2v-15.9v0c0.1-0.3,0.3-0.5,0.4-0.8c0.6-1.2,1.2-2.5,1.9-3.7c0.3-0.6,0.6-1.1,0.9-1.7
			c0.1-0.1,0.1-0.3,0.2-0.4C118.1,126.5,138,126.5,138,126.5z M485.4,153.9h23.2v22.5h-23.2V153.9z"/>
		<defs>
			<filter id="Adobe_OpacityMaskFilter_5_" filterUnits="userSpaceOnUse" x="132" y="122.9" width="360.4" height="73.9">
				<feColorMatrix  type="matrix" values="1 0 0 0 0  0 1 0 0 0  0 0 1 0 0  0 0 0 1 0"/>
			</filter>
		</defs>
		<mask maskUnits="userSpaceOnUse" x="132" y="122.9" width="360.4" height="73.9" id="b_6_">
			<g class="st12">
				<path id="a_7_" class="st2" d="M97.2,106.4c8.2-46.7,70.5-79.8,127.2-95.8c107.4-30.3,192,8.1,231.1,25.9
					C503.3,58.4,558,128.7,558,239c0,110.3-77.4,158.4-117.6,170c-40.2,11.6-105.9,21.3-141.4,0c-35.5-21.3-72.4-52-156.6-44.4
					c-56.4,5.1-91.6-33.2-101.2-89.2S82.9,188.3,97.2,106.4L97.2,106.4z"/>
			</g>
		</mask>
		<path class="st13" d="M132,174.2h23.2v22.5H132V174.2z M469.2,122.9h23.2v22.5h-23.2V122.9z"/>
		<defs>
			<filter id="Adobe_OpacityMaskFilter_6_" filterUnits="userSpaceOnUse" x="148.3" y="137.8" width="34.8" height="48.1">
				<feColorMatrix  type="matrix" values="1 0 0 0 0  0 1 0 0 0  0 0 1 0 0  0 0 0 1 0"/>
			</filter>
		</defs>
		<mask maskUnits="userSpaceOnUse" x="148.3" y="137.8" width="34.8" height="48.1" id="b_7_">
			<g class="st14">
				<path id="a_8_" class="st2" d="M97.2,106.4c8.2-46.7,70.5-79.8,127.2-95.8c107.4-30.3,192,8.1,231.1,25.9
					C503.3,58.4,558,128.7,558,239c0,110.3-77.4,158.4-117.6,170c-40.2,11.6-105.9,21.3-141.4,0c-35.5-21.3-72.4-52-156.6-44.4
					c-56.4,5.1-91.6-33.2-101.2-89.2S82.9,188.3,97.2,106.4L97.2,106.4z"/>
			</g>
		</mask>
		<path class="st15" d="M148.3,137.8h23.2v22.5h-23.2V137.8z M159.9,163.3h23.2v22.5h-23.2V163.3z"/>
		<defs>
			<filter id="Adobe_OpacityMaskFilter_7_" filterUnits="userSpaceOnUse" x="132.8" y="92.2" width="345.4" height="10.6">
				<feColorMatrix  type="matrix" values="1 0 0 0 0  0 1 0 0 0  0 0 1 0 0  0 0 0 1 0"/>
			</filter>
		</defs>
		<mask maskUnits="userSpaceOnUse" x="132.8" y="92.2" width="345.4" height="10.6" id="b_8_">
			<g class="st16">
				<path id="a_9_" class="st2" d="M97.2,106.4c8.2-46.7,70.5-79.8,127.2-95.8c107.4-30.3,192,8.1,231.1,25.9
					C503.3,58.4,558,128.7,558,239c0,110.3-77.4,158.4-117.6,170c-40.2,11.6-105.9,21.3-141.4,0c-35.5-21.3-72.4-52-156.6-44.4
					c-56.4,5.1-91.6-33.2-101.2-89.2S82.9,188.3,97.2,106.4L97.2,106.4z"/>
			</g>
		</mask>
		<path class="st17" d="M178.7,92.2v10.6h-45.9c1.4-1.9,2.8-3.9,4.3-5.7c0.2-0.3,0.4-0.5,0.6-0.8l2.1-2.7l0.3-0.4l0.8-1L178.7,92.2z
			 M429.9,92.2h48.2v10.6h-48.2V92.2z"/>
	</g>
	<g transform="translate(54 66)">
		<path class="st18" d="M359.5,15.6v217.6h-5.7V15.6H359.5z M254.4,15.6v217.6h-5.7V15.6H254.4z"/>
		<path class="st19" d="M154.7,54.5h23.2V77h-23.2V54.5z M259.6,98.2h23.2v22.5h-23.2V98.2z"/>
		
			<linearGradient id="SVGID_1_" gradientUnits="userSpaceOnUse" x1="-33.5959" y1="295.4731" x2="-33.5959" y2="296.4731" gradientTransform="matrix(23.226 0 0 -22.504 1158.5314 6784.9556)">
			<stop  offset="0" style="stop-color:#808080;stop-opacity:0.25"/>
			<stop  offset="0.54" style="stop-color:#808080;stop-opacity:0.12"/>
			<stop  offset="1" style="stop-color:#808080;stop-opacity:0.1"/>
		</linearGradient>
		<path class="st20" d="M366.6,113.1h23.2v22.5h-23.2V113.1z"/>
		<path class="st21" d="M367,113.5h22.4v21.7H367V113.5z"/>
		
			<linearGradient id="SVGID_2_" gradientUnits="userSpaceOnUse" x1="-33.5959" y1="295.4731" x2="-33.5959" y2="296.4731" gradientTransform="matrix(23.226 0 0 -22.504 1187.2103 6799.5229)">
			<stop  offset="0" style="stop-color:#808080;stop-opacity:0.25"/>
			<stop  offset="0.54" style="stop-color:#808080;stop-opacity:0.12"/>
			<stop  offset="1" style="stop-color:#808080;stop-opacity:0.1"/>
		</linearGradient>
		<path class="st22" d="M395.3,127.7h23.2v22.5h-23.2V127.7z"/>
		<path class="st21" d="M395.7,128.1h22.4v21.7h-22.4V128.1z"/>
		<path class="st19" d="M424,120.3h23.2v22.5H424V120.3z"/>
		
			<linearGradient id="SVGID_3_" gradientUnits="userSpaceOnUse" x1="-33.5959" y1="295.4731" x2="-33.5959" y2="296.4731" gradientTransform="matrix(23.226 0 0 -22.504 978.2748 6726.3599)">
			<stop  offset="0" style="stop-color:#808080;stop-opacity:0.25"/>
			<stop  offset="0.54" style="stop-color:#808080;stop-opacity:0.12"/>
			<stop  offset="1" style="stop-color:#808080;stop-opacity:0.1"/>
		</linearGradient>
		<path class="st23" d="M186.4,54.5h23.2V77h-23.2V54.5z"/>
		<path class="st24" d="M171.4,87h23.2v22.5h-23.2V87z M292.5,73.5h23.2V96h-23.2V73.5z M323.1,54.5h23.2V77h-23.2V54.5z
			 M321.8,98.2H345v22.5h-23.2V98.2z M217.5,65.4h23.2v22.5h-23.2V65.4z"/>
		<path class="st25" d="M202.1,101.9h23.2v22.5h-23.2V101.9z"/>
		<path class="st26" d="M372.5,58.1h22.4v21.7h-22.4V58.1z"/>
		<path class="st27" d="M392.6,88.8h23.2v22.5h-23.2V88.8z M261.6,54.5h23.2V77h-23.2V54.5z M289.9,120.3h23.2v22.5h-23.2V120.3z"/>
		<path class="st28" d="M377.5,106.6c-0.1,2.6-0.9,5-1.1,7.6c7.6,0.4,14.9-3.3,22.4-2.2c-2.1-1.3-3.2-3.8-3.8-6.2
			c-0.8-3.1-1.1-6.3-0.7-9.5c0-0.2,0-0.3,0.1-0.5c0.3-1.3,1-3,0.8-4c-0.3-1.3-1.5-1-2.6-1c-3.4,0.3-6.7,0.7-10,1.3
			c-0.9,0.2-9.3,2.3-9.4,2c1.4,2.4,2.8,4.9,3.6,7.5C377.3,103.4,377.6,105,377.5,106.6z M303.1,98.7c0.6,0.9,1.4,1.7,2.3,2.3
			c0.6,0.5,1.2,0.9,1.8,1.4c1.1,0.8,2.4,1.4,3.8,1.5c1.8,0.1,5.6-0.9,6.7-2.5c0.5-0.8,0.7-1.7,0.6-2.6c0-1.2-0.2-2.4-0.6-3.6
			c-0.7-1.9-1.7-3.7-2.9-5.3c-1.3-1.8-2.7-3.6-4.7-4.7c-0.6-0.3-1.3-0.6-2-0.9l-3.5-1.4c-0.2-0.1-0.4-0.2-0.6-0.2
			c-0.9,0-1.1,1.4-0.6,2.2c1.1,1.6,3.5,2,4.1,3.8c-1.2,0-2.2,0.8-2.5,1.9c0,0.3-0.1,0.6-0.3,0.8c-0.3,0.2-0.8,0.1-1.1,0.3
			c-0.6,0.3-0.3,1.3-0.4,2c-0.1,0.6-0.5,1.2-0.6,1.8C302.2,96.7,302.5,97.8,303.1,98.7L303.1,98.7z"/>
		<path class="st18" d="M406.8,355.1c-0.6-0.6-1.5-0.5-2.3-0.4c-4.3,0.7-8.7,1-13.1,1.1c-0.5-2.7,1-5.3,1.6-8c0.1-0.7,0.2-1.4,0.5-2
			c0.6-1.2,2-1.7,3.3-2c2.4-0.5,6-1.4,7.4,1C405.8,347.7,406.3,351.9,406.8,355.1L406.8,355.1z"/>
		<path d="M358.8,345c1.8,1.2,4,1.6,6.1,1.9c2.1,0.3,4.4,0.5,6.3,1.4c1.7,0.8,3.1,2.2,4.9,2.8c1.6,0.5,3.4,0.4,5,0.1
			c2-0.4,4.1-1.1,5.2-2.8c1-1.5,0.9-3.5,0.7-5.3c-0.2-2-0.3-4.1-0.5-6.1c0-0.5-0.1-1-0.4-1.5c-1.4-2.1-5,0.9-6.8,0.9
			c-3,0-6.2-1.6-8.3-3.6c-0.2-0.2-0.4-0.4-0.6-0.5c-0.9-0.4-1.7,0.3-2.5,0.9c-0.1,0.1-0.2,0.1-0.3,0.2c-1.7,1.4-4.1,1.7-6.2,2.2
			c-2.1,0.6-4.4,1.7-5.1,3.8c0,0.1-0.1,0.3-0.1,0.4C355.9,341.7,357.1,343.8,358.8,345L358.8,345z"/>
		<path class="st18" d="M406,212.2c1.4,6.8,0.1,13.9-3.7,19.8c-1,1.6-2.2,3.1-3,4.8c-0.5,1.2-0.9,2.5-1.2,3.8l-3.3,13.7
			c-0.9,3.7-1.8,7.5-1.5,11.3c0.2,2.6,0.9,5.6-0.8,7.7c-0.4,0.4-0.7,0.9-1,1.4c-0.2,0.6-0.2,1.2,0,1.8c1.7,9.9,2.9,20.3-0.1,30
			c-2.7,8.7-2.9,18.4-5.2,27.2c-0.3,1.1-0.6,2.3-1.5,3c-0.6,0.5-1.4,0.9-2.2,1c-3.4,0.8-7-0.1-10.3-1.6c-2.3-1-4.7-2.9-4.5-5.3
			c0.1-1.2,0.8-2.2,1.2-3.3c0.9-2.1,1-4.5,1.2-6.8c0.6-5.8,2.4-11.4,3.7-17c1.3-5.7,2.3-11.6,1.1-17.3c-2.3-11.8-6-23.3-11.1-34.2
			c-0.2-0.6-0.6-1.1-1-1.5c-0.5-0.4-1.1-0.5-1.4-1c-0.4-0.5-0.5-1.2-0.7-1.8c-0.5-1.8-2-3.1-3-4.7c-2.5-4-1.7-9.1-1.6-13.9
			c0.1-4.6-0.6-9.2,0.2-13.8c0.8-4.5,3.3-9.2,7.7-10.6c2.2-0.7,4.5-0.5,6.8-0.3C383.1,205.7,394.8,207.9,406,212.2L406,212.2z"/>
		<path class="st18" d="M357.1,241.1c0,1.8,0.2,3.6,0.6,5.3c2.1,11.9,4.4,23.7,6.8,35.5c0.2,1,0.4,2,0.7,3.1c0.9,3.3,2.5,6.4,4.6,9
			c10,12.4,10.8,30.5,16.2,45.5c0.4,1,0.7,2,1.1,3c1,2.5,2.1,5,3.3,7.5c0.1,0.4,0.4,0.7,0.7,0.9c0.3,0.2,0.7,0.2,1.1,0.2
			c4.9,0,9.7-1.1,14.1-3.2c0.6-0.2,1.2-0.7,1.5-1.2c0.2-0.5,0.2-0.9,0.2-1.4c-0.1-3-0.3-6-1.7-8.7c-0.9-1.6-2.1-3-3.5-4.2
			c-0.4-9.3-1.3-18.7-3.4-27.8c-1.1-4.7-2.4-9.4-5-13.3c-2-2.9-4.9-5.8-4.5-9.3c0.2-1.5,0.8-3.5-0.5-4.4c-0.5-0.4-1.4-0.4-1.7-1
			c-0.1-0.3-0.2-0.6-0.2-0.9c-0.3-2.4-0.1-4.8,0.4-7.2c0.4-1.6,0.9-3.1,1.1-4.7c0.2-1.6-0.1-3.3-1.2-4.5c-0.1-3.2,0-6.5,0-9.7
			c0-1.8-0.1-3.7,0.4-5.4c0.2-0.8,0.6-1.6,0.8-2.5c0.7-3.1-1-6.8,1-9.2c0.8-1,2.1-1.5,3.2-2.2c2.2-1.5,3.6-3.8,4.4-6.3
			s1-5.1,1.2-7.7c0.1-0.6,0.1-1.1,0-1.7c0-0.3-0.1-0.6-0.2-0.8c-0.6-1.4-2.3-1.9-3.8-2.3c-9.4-2.3-19-3.4-28.7-3.4
			c-3.6-2.4-5.6-1.6-7.1,1c-0.8,1.6-1.5,3.2-2,4.9c-0.7,2.1-0.7,13.8-1.4,15.9C354.7,232.6,357.2,238.2,357.1,241.1L357.1,241.1z"/>
		<path class="st29" d="M421.8,134.4c0.3,1.8-0.6,3.7-0.7,5.5c-0.1,1.6,0.4,3.2,0.7,4.8c1.2,6.2-1.1,12.6-3.3,18.5
			c-0.4,1-0.7,2-0.8,3c-0.1,1.9,1.1,3.7,1.4,5.6c0.6,4-2.3,7.8-2.4,11.9c0,1.9,0.6,3.8,0.1,5.6c-0.3,1.2-1.1,2.3-1.6,3.4
			c-1,2-1.2,4.3-2.1,6.3c-1.6,3.7-5.2,6-8.5,8.2c-1.9-0.6-4-1.4-5-3.1c-0.5-0.8-0.8-1.8-0.9-2.7c-0.7-4.2-0.7-8.4-0.7-12.6
			c-0.1-3.6,0.1-7.2,0.6-10.8c0.7-4.6,2.2-9,3.2-13.5c1.4-5.7,2-11.6,4.1-17.1c1.8-4.8,4.7-9.1,7.7-13.2c1.2-1.6,2.1-3.8,4.3-3.5
			C419.9,131,421.4,132.5,421.8,134.4L421.8,134.4z"/>
		<ellipse class="st28" cx="380.9" cy="84.4" rx="17.4" ry="17.4"/>
		<path class="st30" d="M359,209c3-0.2,6-0.1,9.1,0.1c1.9,0,3.8,0.2,5.6,0.6c2.3,0.5,4.4,1.6,6.7,2.2c3.6,1.1,7.4,1.1,11.1,1.5
			c2.5,0.2,4.9,0.6,7.3,1.1c0-0.3-0.1-0.6-0.2-0.8c-0.6-1.4-2.3-1.9-3.8-2.3c-9.4-2.3-19-3.4-28.7-3.4
			C362.5,205.6,360.5,206.4,359,209L359,209z"/>
		<path class="st29" d="M370.8,112.9c0.8,0.9,1.8,1.8,2.9,1.6c0.4-0.1,0.8-0.3,1.1-0.6c2-1.3,4.5-1.6,6.8-1.9
			c4.8-0.7,9.4-1.8,14-3.2c1.3-0.5,2.7-0.8,4.2-0.8c2.9,0,5.5,2,7.4,4.3c1.9,2.3,3.2,5,5,7.3c1.3,1.7,2.8,3.1,4,4.8
			c3,4.3,3.7,10,2.9,15.2c-0.8,5.2-2.9,10.2-5,15.1c-1.2,2.8-2.4,5.6-4,8.2c0.7,4,0.3,8.5-1.6,12.1c-0.6,1.2-1.4,2.3-1.6,3.6
			c-0.1,0.9-0.1,1.8,0.1,2.6l0.9,6.3c0.3,1.9,0.5,3.8,0.9,5.7c0.6,3.5,1.5,7.3-0.1,10.4c-1.9,3.8,0.1,8.6-0.4,12.8
			c-5.4-2.1-11.1-3.5-16.9-4c-3.7-0.4-7.6-0.4-11.1-1.5c-2.3-0.7-4.4-1.7-6.7-2.2c-1.9-0.4-3.7-0.6-5.6-0.6
			c-4.2-0.2-8.4-0.3-12.5,0.3c-0.3,0.1-0.7,0.1-0.9-0.2c-0.1-0.2-0.1-0.3-0.1-0.5c-0.1-1.5,0.3-3.1,1.1-4.4c0.5-0.9,1.3-1.8,1.2-2.9
			c0-0.5-0.2-1-0.4-1.4l-1.8-4.9c-1.5-4.1-0.8-8.9-1.6-13.2c-0.6-3.4-1-6.8-1.2-10.2c-0.1-2.9-0.1-6.1,1.7-8.5
			c0.5-0.6,1-1.2,1.3-1.9c0.3-0.7,0.4-1.5,0.3-2.2c0-5.9-0.1-11.7-0.5-17.6c1.5-2.8,3.2-5.6,4.7-8.4c1.8-3.2,3.6-6.5,4.3-10.1
			c0.5-2.4,0.5-4.9,0.8-7.3c0-0.6,0.2-1.2,0.6-1.7c0.6-0.7,1.6-0.8,2.5-0.7C368.7,112.3,369.8,112.5,370.8,112.9L370.8,112.9z"/>
		<path class="st29" d="M365,140c-1.1,1.3-2.2,2.7-3.7,3.5c-1.7,0.9-3.8,0.9-5.7,0.9c-8-0.2-16-1-23.8-2.6c-0.9-0.2-1.8-0.4-2.6-0.7
			c-0.9-0.5-1.8-1-2.7-1.7c-2.6-1.9-5.2-3.8-7.2-6.3c-2.3-3-3.8-6.6-4.3-10.4c-1.9-1.7-2.9-4.2-3.8-6.6c-0.5-1-0.8-2.1-0.9-3.2
			c0-1.1,0.7-2.3,0.5-3.4c-0.4-1.9-1.3-3.6-2.8-5c-0.3-0.2-0.5-0.5-0.7-0.9c0-0.3,0-0.6,0.2-0.9c0.8-1.8,2.6-2.9,4.5-3.4
			c1.9-0.5,3.9-0.3,5.8-0.2c0.7,0,1.2,0.4,1.9,0.5l1.4,3.6c0.2,0.6,0.5,1.2,0.9,1.6c0.3,0.3,0.6,0.5,1,0.8c1.4,1.2,2.1,3,1.9,4.8
			c2.5,1,3.9,3.8,3.1,6.4c2.1,0.4,3.8,1.9,4.5,3.9c0.1,0.4,0.3,0.9,0.6,1.2c0.4,0.3,1,0.5,1.6,0.5c1.5,0.1,2.9,1.3,4.3,0.7
			c1.6-0.7,3.3-1,5-0.7c0.4,0.1,0.7,0.1,1.1,0.1c0.3-0.1,0.6-0.2,0.9-0.3c0.6-0.4,1.3-0.6,2-0.8c0.7-0.2,1.5,0.1,1.9,0.7
			c0.5-0.5,0.8-1.2,1.2-1.8c0.4-0.6,1.1-1,1.9-0.9c-0.5-0.4,0-1.2,0.6-1.4s1.2,0.1,1.9,0.1c1.6,0,2.8-1.5,4.4-1.9
			c1.4-0.3,3.3,0.1,4.1-1.2c0.3-0.5,0.3-1.1,0.8-1.3c0.3-0.2,0.6-0.2,1-0.1c1,0.1,2,0.4,2.9,0.9c1.5,5.9,0.7,12-0.4,18
			C367.7,135.5,366.8,137.8,365,140L365,140z M373.7,108.5c1.9-1.2,4.1-1.7,6.2-2.1c1.3-0.3,2.6-0.4,4-0.3c1.2,0.2,2.4,0.6,3.6,0.7
			c1.7,0.1,3.4-0.6,5-1.1c1.7-0.5,3.6-0.6,5,0.4c0.3,0.3,0.7,0.5,1.1,0.6c0.4-0.1,0.8-0.2,1.1-0.6c2.4-1.7,5.8-1.6,8,0.4
			c3.2,3,2.8,8.8,6.5,11.1c1,0.6,2.3,1,2.9,2c0.1,0.3,0.3,0.7,0.5,1c0.3,0.3,0.6,0.5,0.9,0.6c1.1,0.5,2.1,1.1,3.1,1.8
			c1,0.7,1.6,1.8,1.8,3c0,0.9-0.2,1.7-0.5,2.5c-3.7,9.2-12.9,15-22.8,14.6c-0.9,0-1.8-0.2-2.4-0.7c-0.4-0.4-0.6-0.9-0.8-1.4
			c-1.8-3.7-5-6.4-7.1-9.9c-1.2-2.1-2-4.4-3.3-6.5c-1.9-3.1-4.9-5.4-7.9-7.7c-1.6-1.3-3.5-2.6-5.6-2.5c-1.8,0.1-3.2,0.2-2.5-2.1
			C371.1,110.8,372.2,109.4,373.7,108.5L373.7,108.5z"/>
		<path d="M364.7,360.6c1.3,1.2,3,1.7,4.7,2.1c3.8,0.8,7.7,1.1,11.6,1.4l3.8,0.3c3.7,0.3,7.4,0.6,11.1,0.6c4.6,0,9.2-0.4,13.7-1.2
			c0.6,0.1,1.2-0.4,1.3-1c0-0.1,0-0.2,0-0.4c-0.1-4.6-0.6-9.2-1.7-13.8c-0.4-1.9-3.8,2.3-3.9,2.5c-0.9,1-1.6,1.5-3,1.6
			c-3.8,0.2-8.1-2.1-11.1-4.2c-0.6-0.5-1.3-0.9-2.1-1.3c-0.5-0.2-1.1-0.4-1.7-0.5c-2-0.2-3.9,0.2-5.7,1.2c-2.3,1.1-4.3,2.8-6.5,3.9
			c-1.8,0.9-3.8,1.6-5.9,1.9c-2.1,0.3-4.5,0.4-5.6,2.2C362.8,357.4,363.4,359.4,364.7,360.6L364.7,360.6z M374.2,84.2
			c0.1,1.8-1.2,5.3,2.2,4.3c2-0.6,2.6-3,5.1-2.4c2.5,0.5,3.1,3.7,4,5.7c1.4,3.3,4.4,5.7,7.9,6.4c0.7,0.2,1.5,0.2,2.2,0
			c1.6-0.5,2.6-2.2,3.2-3.7c0.6-1.3,1.1-2.7,1.4-4.1c0.3-1,0.4-2,0.5-3c0.1-0.7,0.1-1.4,0-2.1c-0.3-4.1-2.6-7.8-5.6-10.6
			c-3-2.8-6.6-4.9-10.2-6.9c-1.2-0.7-2.4-1.3-3.8-1.7c-1.3-0.3-2.6-0.3-4-0.2c-1.7,0.1-3.4,0.5-5,1.2c-0.7,0.3-1.2,0.7-1.8,1.2
			c-0.7,0.7-1.3,1.6-1.5,2.6c-0.6,2.6,1,5,2.4,7.1C372.6,79.9,374.1,81.9,374.2,84.2L374.2,84.2z"/>
		<path class="st31" d="M370.5,74c0.3,0.5,0.6,1,1,1.5c0.7,0.9,1.5,1.7,2.4,2.5c0.5,0.4,1,0.9,1.6,1.3c1,0.7,2.1,1.4,3.2,1.9
			c3.3,1.7,6.8,2.7,10.4,3.7l6.9,2c2.4,1.8,10.5,7.8,11.9,7.1c1.6-0.9-7.2-7.1-7.2-7.1l-0.4,0.3c1.3-0.8,2-2.7,2.3-4.3
			c0.5-2.9,0.8-5.9,0.1-8.8c-0.7-2.9-2.4-5.6-5-7c-1.2-0.6-2.6-1-3.4-1.9c-0.1-0.1-0.2-0.3-0.3-0.4c0-0.1-0.1-0.2-0.1-0.2
			c-0.1-0.3-0.2-0.5-0.4-0.7c-0.5-0.6-1.4-0.4-2.1-0.3l-0.2,0h-0.4c-2.6,0.1-5.1-1.4-7.8-1.4c-2.9,0-5.4,1.7-7.9,2.8
			c-0.5,0.2-1,0.4-1.5,0.7c-1.8,0.9-3.2,1.8-4,4.2C369.1,71.2,369.7,72.8,370.5,74L370.5,74z"/>
		<path d="M208.3,331.6c0,0,7.6,0.9,11.2-0.3s-1.1,5.4-6.1,7c-3.5,1-7.1,1.6-10.7,1.8l-5.8-5.5l-6.2,0.5l1.1,6l-1.9,0.2l-0.7-7.9
			L208.3,331.6z M219.1,345.4c0,0,9,2,13.6,0.9c4.6-1.1-2,6.4-8.2,7.8c-6.2,1.4-13.3,1-13.3,1l-6.4-7.3l-7.6-0.1l0.6,7.5h-2.4v-9.7
			H219.1L219.1,345.4z"/>
		<path d="M185.7,173.3c0,0-15.5,17.2-6.2,36.7c0,0,0.5,3.5,0.1,4.1c-0.4,0.6,1.5,8.7,1.5,8.7s0.3,14.6,0,17.1
			c-0.3,2.5-0.5,3.8-0.5,3.8s-3.5,27-2.3,35.1c1.1,8.1,1.6,22.4,1.6,22.4l4.6,38.7l23.8-4.5l-10.8-53l-0.4-9.4
			c0,0,4.5-11.5,2.5-17.3c-2-5.8,0.5-80.1,0.5-80.1L185.7,173.3L185.7,173.3z"/>
		<path d="M197.1,256.6c2.7,5.2,1,17.8,1,17.8c-3.6,3.1-1.6,30.1-1.6,30.1s-2.5,26.6-4.1,29.7c-1.6,3.1-1.4,15.9-1.4,15.9
			c18.2,3.3,30.1-3.8,30.1-3.8s-5.8-13.3-5.9-13.9c-0.1-0.3-0.8,0.6-1.1,0.9c0.1-0.2,0.4-0.6,1.1-1.5c2.5-3.5,0-10.2,0-10.2
			s3.1-21.6,1.6-23.5c-1.5-2,0.2-9.3,1.1-11c0.9-1.7,2-5.8,2-7.6c0.1-1.3,0.3-2.7,0.7-4c3.8-5.5,3.1-14.5,3.1-14.5s-0.2-13,2-23.3
			c2.2-10.3-2.8-39.4-2.8-39.4s1.7-5.7,0.4-7.8c-0.6-0.9-0.5-3.2-0.2-5.3c0.3-2.6,0.9-5.2,0.9-5.2l-33.8-6c-0.7,1.1-1.3,2.3-2,3.4
			c-11.2,20.7-3.6,28.3-3.6,28.3l7.2,22.1C191.8,227.9,194.4,251.4,197.1,256.6L197.1,256.6z"/>
		<path class="st28" d="M250.7,94.9l4.8,4.1c0,0,0.9-0.8,2.2-1.9c3-2.7,7.9-7.7,6.1-9.8c-2.5-2.9-5-1-5.2-0.9
			c0.3-0.3,5.9-6.3,3.6-5.8c-2.3,0.5-6.7,5.7-6.7,5.7l-3.5,6.1L250.7,94.9L250.7,94.9z M186,161.8l5.7,1.7l-4.3,7.6l-5-6.4
			L186,161.8z"/>
		<ellipse class="st32" cx="199.3" cy="74.6" rx="16.2" ry="16.2"/>
		<path class="st32" d="M208.9,80.5c0,0-14.7,23.4-0.7,25.4c14,2-18.8,16.2-18.8,16.2L177,109.8c0,0,12.8-22.1,10.8-30.5
			C185.8,70.9,208.9,80.5,208.9,80.5L208.9,80.5z"/>
		<path class="st30" d="M188.2,177.5c3.3,1,6.6,1.8,10,2.3c0,0,18.2,8.1,24.9,5.4c0.3-2.6,0.9-5.2,0.9-5.2l-33.8-6
			C189.5,175.1,188.9,176.3,188.2,177.5L188.2,177.5z"/>
		<path class="st33" d="M171.5,116.2l3.3,6.8l3.7,7.7l0.5,1.1l4.4,9.6l5.6,12.1c0,0-2,2.4-1.4,4.2c0.6,1.7,1.5,1,1.6,0.9
			c-0.1,0.1-1.3,1.8-0.2,2.5c1.1,0.7,0.7,2.4,0.7,2.4s-4.6,7.6-5.4,10.3s13.9,5.1,13.9,5.1s20.9,9.3,26.1,4.7c5.2-4.6,0-26.1,0-26.1
			s0-12.4-1.4-13.5c-1.4-1.1-0.7-9.7-0.7-9.7c3.6-6.6,1.1-10.3,1.1-10.3l1-16.8c0,0-1.6-1.7-2.9-1.9c-0.8-0.1-1.6-0.1-2.4,0
			c0,0-0.7-0.2-1.6-0.5c-2-0.6-5.3-1.3-6.5-0.8c-1.7,0.9-12.9-1.4-12.9-1.4c-4.8-0.7-9.6-1.2-14.5-1.4c-1.7-0.1-3.3,0.1-4.9,0.5
			c-4,1.2-4.7,4.2-4.7,4.2s0.5,2.5-1.5,5.7C170.6,114.8,171.5,116.2,171.5,116.2L171.5,116.2z"/>
		<path class="st30" d="M250.7,94.9l4.8,4.1c0,0,0.9-0.8,2.2-1.9c0.4-4.2-3.2-4.7-5.7-4.6L250.7,94.9L250.7,94.9z"/>
		<path class="st33" d="M222.2,106.9l2.1,0.1c0,0,4.9,0.6,6.5-0.9c1.6-1.5,7.3-2,7.3-2s1.6-3.2,3.3-4.2c1.7-1,5.9-2.9,6-3.8
			c0.1-1,1.6-2.8,1.6-2.8s9.3-2.2,7.9,5.1c-1.4,7.3-8.9,13.6-8.9,13.6s-0.9,4.1-3.7,5.1s-21.3,9.7-24.3,7.4
			C217.3,122.3,222.2,106.9,222.2,106.9L222.2,106.9z M173.7,114.3l-2.2,1.9c-0.4,1.2-1,2.4-1.9,3.3c-1.2,1.4-4.6,14.9-4.6,14.9
			c0.3,0.6,0.3,1.4,0,2c-0.5,1,1,2.5,1,2.5s0.7-0.2-0.5,1.1c-1.2,1.4,1.1,3,1.1,3s10.1,17.3,12.3,19.2c2.1,1.9,4.2,6.7,4.2,6.7
			s4.4-6.9,5.4-7.1l-4.3-9.8c0,0-3-13.6-5.2-16.1c-2.2-2.5,1.1-11,1.1-11L173.7,114.3z"/>
		<path d="M218.8,72.7c2,2.7,2.4,6.2,1.1,9.3c-1,2.4-3,4.3-4.2,6.6c-1.9,3.6-1.7,8,0.4,11.5c0.5,0.6,0.8,1.3,1,2.1
			c0.3,1.9-1.7,3.2-3.2,4.4c-7.1,5.1-10.2,14.3-10.7,23.1c-0.2,1.9-0.1,3.7,0.3,5.5c0.7,2.8,2.6,5.1,4.4,7.4
			c-2.2,0.7-4.5,1.4-6.9,1.4c-2.4-0.1-4.8-1-6.1-3c-0.6-1-0.9-2.2-1.6-3.2c-0.6-1-1.8-1.9-2.9-1.6c-0.5,0.2-1,0.4-1.4,0.8
			c-2.7,2-5.9,3.3-9.3,3.7c-2.9,0.3-6.2-0.1-8-2.4c-1.4-1.6-1.7-3.9-1.5-6c0.6-7.5,7-13.4,8.5-20.8c1.2-6-1-12.1-1.4-18.2
			c-0.6-9,2.7-17.8,5.9-26.2c0.7-2.1,1.6-4.1,2.8-6c2.7-4,7.4-6.3,12.1-6.8c1.8-0.2,3.5-0.1,5.2,0.5c1.7,0.7,3.1,1.9,4.5,3.1
			c3.1,2.7,6.2,5.4,8,9.1c0.7,1.5,1.2,3.1,2,4.6L218.8,72.7L218.8,72.7z"/>
		<path class="st30" d="M215.9,69.4c-0.8-1.5-1.3-3.1-2-4.6c-0.7-1.4-1.6-2.7-2.6-3.9c1.8,1.7,3.4,3.7,4.5,6c0.7,1.5,1.2,3,1.9,4.4
			l-1-0.8c0.3,0.3,0.5,0.7,0.7,1.1C216.9,70.9,216.3,70.2,215.9,69.4L215.9,69.4z"/>
		<path class="st34" d="M171.3,27.1h48.2v10.6h-48.2V27.1z M282.1,27.1h48.2v10.6h-48.2V27.1z"/>
	</g>
</g>
<path class="st0" d="M2.6,84.5c-2.3,3.5-8.2,22.4,11.9,27.1c20.1,4.7,34.2-18.8,35.4-29.4c1.2-10.6-10.7-21.2-26-15.3
	C8.5,72.7,4.9,81,2.6,84.5L2.6,84.5z"/>
</svg>
