<svg xmlns="http://www.w3.org/2000/svg" width="56" height="56" viewBox="0 0 56 56">
    <g fill="none" fill-rule="evenodd">
        <path fill="#EA067E" d="M48.054 56H7.945C3.557 56 0 52.7 0 48.628V7.372C0 3.301 3.557 0 7.945 0h40.11C52.442 0 56 3.3 56 7.372v41.256C56 52.699 52.443 56 48.054 56"/>
        <path stroke="#FFF" stroke-linecap="round" stroke-width="3.072" d="M17 45.287h22.391"/>
        <g fill="#FFF">
            <path d="M27.149 25.074V14C21.519 14.155 17 18.921 17 24.783c0 5.959 4.67 10.79 10.43 10.79 5.666 0 10.274-4.675 10.423-10.499H27.15z"/>
            <path d="M30.282 12c-.095 0-.188.005-.282.007v11.075h10.705c.002-.097.007-.194.007-.292 0-5.96-4.67-10.79-10.43-10.79z"/>
        </g>
    </g>
</svg>
