<svg height="512pt" viewBox="-61 0 512 512" width="512pt" xmlns="http://www.w3.org/2000/svg"><path d="m390 45c0-24.8125-20.1875-45-45-45h-300c-24.8125 0-45 20.1875-45 45v75h390zm-285 45h-30c-8.289062 0-15-6.710938-15-15s6.710938-15 15-15h30c8.289062 0 15 6.710938 15 15s-6.710938 15-15 15zm0 0"/><path d="m45 512h135v-181h-180v136c0 24.8125 20.1875 45 45 45zm13.183594-100.605469c-5.859375-5.859375-5.859375-15.351562 0-21.210937s15.351562-5.859375 21.210937 0l10.605469 10.605468 10.605469-10.605468c5.859375-5.859375 15.351562-5.859375 21.210937 0s5.859375 15.351562 0 21.210937l-10.605468 10.605469 10.605468 10.605469c5.859375 5.859375 5.859375 15.351562 0 21.210937s-15.351562 5.859375-21.210937 0l-10.605469-10.605468-10.605469 10.605468c-5.859375 5.859375-15.351562 5.859375-21.210937 0s-5.859375-15.351562 0-21.210937l10.605468-10.605469zm0 0"/><path d="m180 150h-180v151h180zm-60 91h-15v15c0 8.289062-6.710938 15-15 15s-15-6.710938-15-15v-15h-15c-8.289062 0-15-6.710938-15-15s6.710938-15 15-15h15v-15c0-8.289062 6.710938-15 15-15s15 6.710938 15 15v15h15c8.289062 0 15 6.710938 15 15s-6.710938 15-15 15zm0 0"/><path d="m390 150h-180v151h180zm-60 91h-60c-8.289062 0-15-6.710938-15-15s6.710938-15 15-15h60c8.289062 0 15 6.710938 15 15s-6.710938 15-15 15zm0 0"/><path d="m390 467v-136h-180v181h135c24.8125 0 45-20.1875 45-45zm-60 0h-60c-8.289062 0-15-6.710938-15-15s6.710938-15 15-15h60c8.289062 0 15 6.710938 15 15s-6.710938 15-15 15zm0-60h-60c-8.289062 0-15-6.710938-15-15s6.710938-15 15-15h60c8.289062 0 15 6.710938 15 15s-6.710938 15-15 15zm0 0"/></svg>