<?xml version="1.0" encoding="utf-8"?>
<!-- Generator: Adobe Illustrator 22.0.0, SVG Export Plug-In . SVG Version: 6.00 Build 0)  -->
<svg version="1.1" id="Capa_1" xmlns="http://www.w3.org/2000/svg" xmlns:xlink="http://www.w3.org/1999/xlink" x="0px" y="0px"
	 viewBox="0 0 658.9 658.9" style="enable-background:new 0 0 658.9 658.9;" xml:space="preserve">
<g>
	<g>
		<path d="M372.5,361.6h71c16.3,0,29.5-13.2,29.5-29.5s-13.2-29.5-29.5-29.5h-71c-9.4-13.7-25.2-22.7-43.1-22.7
			c-0.3,0-0.5,0.1-0.8,0.1l-64.7-91c-9.5-13.3-27.9-16.4-41.2-7c-13.3,9.5-16.4,27.9-7,41.2l64.7,91.1c-2,5.6-3.3,11.5-3.3,17.8
			c0,28.9,23.4,52.2,52.2,52.2C347.3,384.4,363.1,375.3,372.5,361.6z"/>
		<path d="M635.4,332.1c0-169-137-306-306-306s-306,137-306,306c0,169.3,136.8,306,306,306C500.4,638.1,635.4,502.1,635.4,332.1z
			 M328.8,512.1c-10.7,0.3-19,9.5-19,20.2v26c0,0,0,0,0,0c-109.6-9.5-197-96.9-206.5-206.5c0,0,0,0,0,0h26.5
			c11.1,0,20.1-9.2,19.7-20.4c-0.4-10.7-9.5-19-20.2-19h-26c0,0,0,0,0,0c9.5-109.5,96.9-197,206.5-206.5c0,0,0,0,0,0v26
			c0,10.7,8.3,19.8,19,20.2c11.2,0.4,20.4-8.6,20.4-19.7v-26.5c0,0,0,0,0,0c109.6,9.5,197,96.9,206.5,206.5c0,0,0,0,0,0h-26
			c-10.7,0-19.8,8.3-20.2,19c-0.4,11.2,8.6,20.4,19.7,20.4h26.5c0,0,0,0,0,0c-9.5,109.5-96.9,197-206.5,206.5c0,0,0,0,0,0v-26.5
			C349.1,520.7,339.9,511.8,328.8,512.1z"/>
	</g>
</g>
</svg>
