<svg version="1.1" id="Capa_1" xmlns="http://www.w3.org/2000/svg" xmlns:xlink="http://www.w3.org/1999/xlink" x="0px" y="0px" viewBox="0 0 512 512" style="enable-background:new 0 0 512 512;" xml:space="preserve">
	<g>
		<g>
			<path d="M387.587,95.376L297.624,4.413C294.892,1.674,289.457,0,287,0H15C6.709,0,0,6.709,0,15v482c0,8.291,6.709,15,15,15h362
				c8.291,0,15-6.709,15-15V106C392,103.658,390.356,98.137,387.587,95.376z M175.606,356.605l-60,60
				c-2.93,2.93-6.768,4.395-10.605,4.395c-3.837,0-7.676-1.465-10.605-4.395l-30-30c-5.861-5.859-5.861-15.351-0.001-21.21
				c5.859-5.859,15.352-5.859,21.211,0L105,384.789l49.395-49.395c5.859-5.859,15.352-5.859,21.211,0
				S181.465,350.746,175.606,356.605z M175.606,236.605l-60,60c-2.93,2.93-6.768,4.395-10.605,4.395
				c-3.837,0-7.676-1.465-10.605-4.395l-30-30c-5.861-5.859-5.861-15.351-0.001-21.21c5.859-5.859,15.352-5.859,21.211,0L105,264.789
				l49.395-49.395c5.859-5.859,15.352-5.859,21.211,0S181.465,230.746,175.606,236.605z M175.606,116.605l-60,60
				c-2.93,2.93-6.768,4.395-10.605,4.395c-3.837,0-7.676-1.465-10.605-4.395l-30-30c-5.861-5.859-5.861-15.351-0.001-21.21
				c5.859-5.859,15.352-5.859,21.211,0L105,144.789l49.395-49.395c5.859-5.859,15.352-5.859,21.211,0
				S181.465,110.746,175.606,116.605z M317,421h-92c-8.291,0-15-6.709-15-15c0-8.291,6.709-15,15-15h92c8.291,0,15,6.709,15,15
				C332,414.291,325.291,421,317,421z M317,301h-92c-8.291,0-15-6.709-15-15c0-8.291,6.709-15,15-15h92c8.291,0,15,6.709,15,15
				C332,294.291,325.291,301,317,301z M317,181h-92c-8.291,0-15-6.709-15-15s6.709-15,15-15h92c8.291,0,15,6.709,15,15
				S325.291,181,317,181z M302,91V52.211L340.789,91H302z"/>
		</g>
	</g>
	<g>
		<g>
			<path d="M467,91c-24.814,0-45,20.186-45,45c0,26.041,0,48.959,0,75h90c0-26.041,0-48.959,0-75C512,111.186,491.814,91,467,91z
				 M482,151h-30v-15c0-8.276,6.724-15,15-15s15,6.724,15,15V151z"/>
		</g>
	</g>
	<g>
		<g>
			<path d="M422,391v15c0,2.329,0.542,4.629,1.582,6.709l30,60c5.528,11.025,21.308,11.025,26.836,0l30-60
				c1.04-2.08,1.582-4.38,1.582-6.709v-15H422z"/>
		</g>
	</g>
	<g>
		<g>
			<rect x="422" y="241" width="90" height="120"/>
		</g>
	</g>
</svg>
