<svg version="1.1" xmlns="http://www.w3.org/2000/svg" xmlns:xlink="http://www.w3.org/1999/xlink" x="0px" y="0px" width="100px" height="90.821px" viewBox="0 4.589 100 90.821" enable-background="new 0 4.589 100 90.821" xml:space="preserve">
	<path d="M14.083,80.301l-0.019,0.085h58.341l-2.671,2.563c-1.029,1.024-1.598,2.346-1.598,3.805c0,1.457,0.568,2.801,1.598,3.824
		l3.277,3.245c2.132,2.119,5.6,2.114,7.732-0.005l17.659-17.551c1.033-1.029,1.601-2.402,1.597-3.862
		c0.004-1.465-0.563-2.837-1.597-3.865L79.977,50.227c-2.133-2.118-5.601-2.118-7.732,0l-3.277,3.257
		c-1.031,1.023-1.598,2.391-1.598,3.848c0,1.459,0.568,2.916,1.598,3.94l3.416,3.485H15.627v-22.66h10.599l-2.671,2.558
		c-1.031,1.024-1.598,2.344-1.598,3.802c0,1.458,0.566,2.802,1.598,3.826l3.277,3.244c2.131,2.117,5.6,2.113,7.732-0.006
		l17.659-17.555c1.033-1.027,1.601-2.4,1.596-3.86c0.005-1.466-0.563-2.839-1.596-3.865L33.797,11.928
		c-2.131-2.119-5.601-2.119-7.731,0l-3.278,3.257c-1.029,1.025-1.598,2.392-1.598,3.851c0,1.457,0.568,2.919,1.598,3.943
		l3.416,3.49H15.627V9.866c0-0.03,0.018,0.037,0.015,0.008c-0.048-2.976-2.464-5.284-5.45-5.284H5.507C2.491,4.59,0,6.851,0,9.866
		V27.84v38.299C0,73.895,6.328,80.301,14.083,80.301z"/>
</svg>