<svg version="1.1" id="Layer_1" xmlns="http://www.w3.org/2000/svg" xmlns:xlink="http://www.w3.org/1999/xlink" x="0px" y="0px" width="100px" height="96.865px" viewBox="0 1.567 100 96.865" enable-background="new 0 1.567 100 96.865" xml:space="preserve">
	<path d="M5.515,54.691C5.571,54.677,5.454,54.691,5.515,54.691L5.515,54.691z"/>
	<path d="M5.515,70.312C5.428,70.312,5.593,70.338,5.515,70.312L5.515,70.312z"/>
	<path d="M98.402,71.596L79.986,53.293c-2.131-2.117-5.598-2.117-7.729,0l-3.275,3.256c-1.03,1.023-1.597,2.389-1.597,3.846
		c0,1.458,0.566,2.629,1.597,3.652l3.357,3.141H61.605L44.032,49.616l17.573-17.572H72.34l-3.357,3.531
		c-1.03,1.022-1.597,2.485-1.597,3.942c0,1.458,0.566,2.873,1.597,3.897l3.275,3.28c1.029,1.022,2.4,1.597,3.865,1.597
		c1.463,0,2.833-0.557,3.863-1.58l18.416-18.299c1.033-1.026,1.6-2.397,1.597-3.857c0.003-1.463-0.563-2.834-1.597-3.861
		L80.753,3.152c-1.028-1.022-2.401-1.584-3.864-1.584s-2.836,0.563-3.864,1.585L69.75,6.408c-1.031,1.023-1.597,2.39-1.597,3.848
		c0,1.456,0.567,2.628,1.597,3.651l2.728,2.516H58.37c-2.086,0-4.047,1.006-5.522,2.482L32.987,38.863l-7.36-7.508
		c-1.473-1.475-3.435-2.436-5.522-2.436H5.515C2.61,29.044,0,31.058,0,33.992v4.632c0,2.954,2.583,5.819,5.515,5.915h11.356
		l5.072,5.077l-5.072,5.076H5.515C2.581,54.784,0,57.099,0,60.055v4.632c0,2.931,2.615,5.495,5.515,5.625h14.59
		c2.087,0,4.048-0.621,5.522-2.096l7.36-7.264L52.85,80.667c1.475,1.475,3.436,2.14,5.521,2.14h14.105l-2.727,2.906
		c-1.029,1.021-1.597,2.486-1.597,3.943s0.565,2.871,1.597,3.896l3.274,3.278c1.067,1.06,2.466,1.602,3.864,1.602
		c1.399,0,2.799-0.524,3.864-1.582l17.649-17.536c1.033-1.027,1.602-2.398,1.598-3.857
		C100.004,73.992,99.436,72.622,98.402,71.596z"/>
	<path d="M5.515,44.539C5.452,44.539,5.572,44.553,5.515,44.539L5.515,44.539z"/>
</svg>
