<svg xmlns="http://www.w3.org/2000/svg" width="30" height="30" viewBox="0 0 30 30">
    <path fill="#F1F3F5" fill-rule="evenodd" d="M18.668 17.588c-.154.434-.897.83-1.254.884-.32.047-.725.067-1.17-.074-.27-.086-.616-.2-1.058-.391-1.864-.805-3.082-2.68-3.175-2.805-.093-.123-.758-1.006-.758-1.92 0-.915.48-1.364.65-1.55a.682.682 0 0 1 .495-.233c.124 0 .248.001.357.007.114.006.267-.043.418.319.154.372.526 1.286.573 1.379.045.093.076.201.015.325-.062.124-.093.202-.186.31-.093.108-.195.242-.279.326-.092.092-.19.193-.081.378.109.186.48.795 1.033 1.287.71.632 1.309.828 1.494.922.186.093.295.077.403-.047.108-.123.465-.542.588-.728.124-.186.248-.155.418-.093.17.062 1.084.511 1.27.605.185.093.31.139.356.216.046.078.046.45-.109.883M15 0c8.284 0 15 6.715 15 15 0 8.284-6.716 15-15 15-8.285 0-15-6.716-15-15C0 6.715 6.715 0 15 0zm.03 22.37c4.099 0 7.434-3.334 7.436-7.432A7.386 7.386 0 0 0 20.29 9.68a7.383 7.383 0 0 0-5.26-2.18c-4.098 0-7.433 3.334-7.434 7.432-.001 1.31.342 2.589.992 3.716L7.533 22.5l3.942-1.034a7.419 7.419 0 0 0 3.553.905h.003zm.004-13.615a6.14 6.14 0 0 1 4.368 1.812 6.141 6.141 0 0 1 1.809 4.37 6.188 6.188 0 0 1-6.18 6.178h-.003a6.162 6.162 0 0 1-3.145-.861l-.225-.133-2.34.613.625-2.28-.147-.234a6.165 6.165 0 0 1-.945-3.287 6.188 6.188 0 0 1 6.183-6.178z"/>
</svg>
