<svg xmlns="http://www.w3.org/2000/svg" width="31" height="30" viewBox="0 0 31 30">
    <path fill="#F1F3F5" fill-rule="evenodd" d="M22.75 15.566c0 1.214-.15 2.428-.15 2.428s-.146 1.034-.596 1.49c-.57.596-1.21.6-1.503.634-2.1.152-5.251.156-5.251.156s-3.9-.035-5.1-.15c-.334-.062-1.084-.044-1.654-.64-.45-.457-.596-1.49-.596-1.49s-.15-1.214-.15-2.428v-1.138c0-1.214.15-2.427.15-2.427s.146-1.034.596-1.49c.57-.597 1.21-.6 1.503-.634 2.1-.152 5.248-.152 5.248-.152h.006s3.149 0 5.248.152c.293.034.933.037 1.503.634.45.456.596 1.49.596 1.49s.15 1.213.15 2.427v1.138zM15.25 0c8.285 0 15 6.715 15 15 0 8.284-6.715 15-15 15s-15-6.716-15-15c0-8.285 6.715-15 15-15zm-1.549 16.945l4.053-2.1-4.053-2.115v4.215z"/>
</svg>
