<svg xmlns="http://www.w3.org/2000/svg" xmlns:xlink="http://www.w3.org/1999/xlink" width="518" height="419" viewBox="0 0 518 419">
    <defs>
        <path id="a" d="M83.384 69.74c26.405-10.094 143.68-26.508 230.695-63.088 46.528-19.56 121.538 14.728 155.65 52.994 45.86 51.447 51.42 160.243 45.86 208.19-5.559 47.946-55.679 129.112-101.45 122.39-81.639-11.99-127.855 5.047-169.547 20.188-41.692 15.14-122.296 11.355-161.208-20.188C44.47 358.682 0 319.567 0 208.533S56.979 79.834 83.384 69.74z"/>
    </defs>
    <g fill="none" fill-rule="evenodd" transform="translate(0 -.093)">
        <mask id="b" fill="#fff">
            <use xlink:href="#a"/>
        </mask>
        <use fill="#D4EAE4" xlink:href="#a"/>
        <rect width="288.851" height="197.991" x="8.238" y="54.093" fill="#FFF" mask="url(#b)" opacity=".8" rx="4"/>
        <g fill="#007FA3" mask="url(#b)" opacity=".895">
            <g transform="translate(45.203 122.407)">
                <ellipse cx="5.265" cy="5.267" rx="4.792" ry="4.777"/>
                <ellipse cx="5.265" cy="33.918" rx="4.792" ry="4.777"/>
                <ellipse cx="5.265" cy="62.562" rx="4.792" ry="4.777"/>
            </g>
        </g>
        <path fill="#007FA3" d="M85.71 124.947h145.066v5.456H85.71zM85.71 153.591h145.066v5.456H85.71zM85.71 182.241h145.066v5.456H85.71z" mask="url(#b)" opacity=".4"/>
        <rect width="260.016" height="178.03" x="100.591" y="141.654" fill="#FFF" mask="url(#b)" rx="3.6"/>
        <rect width="260.016" height="178.03" x="100.591" y="141.654" fill="#4E4E4E" mask="url(#b)" opacity=".196" rx="3.6"/>
        <g fill="#12B2A6" mask="url(#b)" opacity=".899">
            <g transform="translate(137.894 197.207)">
                <ellipse cx="4.95" cy="4.815" rx="4.792" ry="4.777"/>
                <ellipse cx="4.95" cy="33.465" rx="4.792" ry="4.777"/>
                <ellipse cx="4.95" cy="62.115" rx="4.792" ry="4.777"/>
            </g>
        </g>
        <path fill="#12B2A6" d="M178.08 199.294h145.066v5.456H178.08zM178.08 227.944h145.066v5.456H178.08zM178.08 256.588h145.066v5.456H178.08z" mask="url(#b)" opacity=".598"/>
        <rect width="260.016" height="178.03" x="192.967" y="216.008" fill="#FFF" mask="url(#b)" rx="3.6"/>
        <rect width="260.016" height="178.03" x="192.967" y="216.008" fill="#FFB81C" mask="url(#b)" opacity=".302" rx="3.6"/>
        <ellipse cx="235.221" cy="276.369" fill="#FFF" mask="url(#b)" rx="4.792" ry="4.777"/>
        <ellipse cx="235.221" cy="305.02" fill="#FFF" mask="url(#b)" rx="4.792" ry="4.777"/>
        <ellipse cx="235.221" cy="333.67" fill="#FFF" mask="url(#b)" rx="4.792" ry="4.777"/>
        <ellipse cx="235.221" cy="276.369" fill="#EA7600" mask="url(#b)" opacity=".9" rx="4.792" ry="4.777"/>
        <ellipse cx="235.221" cy="305.02" fill="#EA7600" mask="url(#b)" opacity=".9" rx="4.792" ry="4.777"/>
        <ellipse cx="235.221" cy="333.67" fill="#EA7600" mask="url(#b)" opacity=".9" rx="4.792" ry="4.777"/>
        <path fill="#FFF" d="M270.456 273.641h145.066v5.456H270.456zM270.456 302.292h145.066v5.456H270.456z" mask="url(#b)"/>
        <path fill="#EA7600" d="M270.456 273.641h145.066v5.456H270.456zM270.456 302.292h145.066v5.456H270.456z" mask="url(#b)" opacity=".401"/>
        <path fill="#FFF" d="M270.456 330.942h145.066v5.456H270.456z" mask="url(#b)"/>
        <path fill="#EA7600" d="M270.456 330.942h145.066v5.456H270.456z" mask="url(#b)" opacity=".401"/>
    </g>
</svg>
