<svg xmlns="http://www.w3.org/2000/svg" xmlns:xlink="http://www.w3.org/1999/xlink" width="503" height="415" viewBox="0 0 503 415">
    <defs>
        <path id="a" d="M498.723 288.192c-3.412 36.483-31.601 63.39-37.556 68.074-9.72 7.71-20.185 14.419-30.817 20.641-.605.357-1.215.708-1.826 1.034a.9.9 0 0 1-.135.078c-14.45 8.362-29.434 15.907-44.873 21.949-16.901 6.63-34.354 11.453-52.26 13.561-24.958 2.936-50.218.548-75.025-3.556a505.928 505.928 0 0 1-61.02-13.954l-3.293-.987c-1.706-.52-3.41-1.05-5.114-1.592a460.715 460.715 0 0 1-30.509-10.853c-25.253-9.954-49.377-22.352-71.997-36.999a304.562 304.562 0 0 1-8.515-5.685 370.074 370.074 0 0 1-11.588-8.32l-2.355-1.747a238.468 238.468 0 0 1-27.982-24.596c-11.62-12.104-26.205-24.902-30.909-48.834-3.815-19.41-7.815-58.15 21.821-87.9 29.636-29.75-2.312-83.19 10.79-100.664 11.55-15.406 107.294-38.249 122.609-46.237C182.77 8.773 203.317-1.373 228.42.152c72.58 4.393 116.053 61.658 174.437 73.697 65.76 13.561 88.276 71.103 95.865 95.608 7.175 23.169 3.411 82.251 0 118.735z"/>
    </defs>
    <g fill="none" fill-rule="evenodd">
        <mask id="b" fill="#fff">
            <use xlink:href="#a"/>
        </mask>
        <use fill="#D4EAE4" transform="rotate(-180 251.567 207.416)" xlink:href="#a"/>
        <g mask="url(#b)">
            <g transform="translate(36 44)">
                <path stroke="#444053" stroke-width=".5" d="M424.175 42.064s-11.44-9.331-7.644-25.633M400.962 37.502s-7.625-15.701-.84-25.92M353.013 6.892s15.89 1.332 23.218-6.696"/>
                <path fill="#FFF" d="M431.575 19.595v313.427c0 9.327-8.337 16.898-18.634 16.898H18.63C8.337 349.92 0 342.34 0 333.022V19.595C0 10.268 8.337.738 18.629.738l394.293 1.036c10.292-.005 18.653 8.483 18.653 17.821z" opacity=".799"/>
                <path fill="#007FA3" d="M431.575 15.082v10.983H0V15.082C0 7.16 7.867.738 17.572.738h396.412c4.663-.003 9.137 1.507 12.436 4.197 3.3 2.69 5.154 6.34 5.155 10.147z"/>
                <ellipse cx="19.896" cy="13.65" fill="#DB121F" opacity=".8" rx="4.88" ry="4.796"/>
                <ellipse cx="34.161" cy="13.65" fill="#FFB81C" rx="4.88" ry="4.796"/>
                <ellipse cx="48.425" cy="13.65" fill="#84BD00" rx="4.88" ry="4.796"/>
                <path fill="#FFF" d="M124.63 47.223h166.031v98.498H124.63zM124.671 160.942h166.031v98.498H124.671zM124.671 274.377h166.031v75.229H124.671z"/>
                <path fill="#4E4E4E" d="M124.63 47.223h166.031v98.498H124.63zM124.671 160.942h166.031v98.498H124.671zM124.671 274.377h166.031v75.229H124.671z" opacity=".203"/>
                <path fill="#12B2A6" d="M152.408 115.844h5.463v17.992h-5.463zM162.919 93.708h5.463v40.267h-5.463z" opacity=".495"/>
                <path fill="#007FA3" d="M173.43 73.786h5.463v60.337h-5.463z" opacity=".502"/>
                <path fill="#12B2A6" d="M183.941 59.767h5.463v74.655h-5.463z" opacity=".495"/>
                <path fill="#007FA3" d="M194.452 92.971h5.463v41.037h-5.463z" opacity=".502"/>
                <path fill="#005A70" d="M204.963 82.64h5.463v51.643h-5.463z" opacity=".501"/>
                <path fill="#007FA3" d="M214.723 66.408h5.463v67.751h-5.463z" opacity=".502"/>
                <path fill="#005A70" d="M225.234 104.038h5.463v30.171h-5.463z" opacity=".501"/>
                <path fill="#007FA3" d="M235.745 90.019h5.463v44.102h-5.463z" opacity=".502"/>
                <path fill="#005A70" d="M246.256 73.786h5.463v60.337h-5.463z" opacity=".501"/>
                <path fill="#007FA3" d="M256.767 73.786h5.463v60.337h-5.463z" opacity=".502"/>
                <path fill="#12B2A6" d="M152.698 229.778h5.463v17.992h-5.463zM152.698 322.344h5.463v27.123h-5.463z" opacity=".495"/>
                <path fill="#12B2A6" d="M163.329 206.51h5.463v40.267h-5.463z" opacity=".498"/>
                <path fill="#12B2A6" d="M163.329 306.071h5.463v42.974h-5.463z" opacity=".495"/>
                <path fill="#007FA3" d="M173.43 186.679h5.463v60.337h-5.463z" opacity=".502"/>
                <path fill="#12B2A6" d="M183.624 172.576h5.463v74.655h-5.463zM183.624 301.55h5.463v47.918h-5.463z" opacity=".495"/>
                <path fill="#007FA3" d="M172.993 301.55h5.463v47.918h-5.463zM194.255 205.54h5.463v41.037h-5.463zM194.255 322.344h5.463v27.123h-5.463z" opacity=".502"/>
                <path fill="#12B2A6" d="M204.886 195.845h5.463v51.643h-5.463zM204.886 287.085h5.463v62.623h-5.463zM214.55 179.363h5.463v67.751h-5.463zM214.55 307.879h5.463v41.48h-5.463z" opacity=".495"/>
                <path fill="#005A70" d="M225.181 217.175h5.463v30.171h-5.463zM225.181 322.344h5.463v27.123h-5.463zM235.812 202.632h5.463v44.102h-5.463zM235.812 312.399h5.463v37.508h-5.463zM246.443 187.119h5.463v60.337h-5.463zM246.443 315.111h5.463v34.566h-5.463zM257.074 187.119h5.463v60.337h-5.463zM257.074 315.111h5.463v34.566h-5.463z" opacity=".501"/>
                <g stroke="#84BD00" stroke-width="1.639">
                    <path d="M79.353 224.204l-9.157-17.917v-6.402c0-.646.539-1.17 1.203-1.17s1.203-.522 1.203-1.167v-2.617c0-.646-.539-1.169-1.203-1.169H58.1c-.664 0-1.202.523-1.202 1.17v2.616c0 .645.538 1.168 1.203 1.168.664 0 1.203.523 1.203 1.169v6.402l-9.156 17.917c-1.767 3.454.821 7.506 4.792 7.506h19.62c3.972 0 6.559-4.052 4.794-7.506z"/>
                    <path d="M54.837 215.898c4.53.67 8.907 2.179 13.453 2.763 2.759.353 5.694.302 8.356-.422M67.62 210.335c0 1.817-1.516 3.29-3.388 3.29-1.872 0-3.389-1.473-3.389-3.29 0-1.818 1.517-3.291 3.39-3.291 1.87 0 3.388 1.473 3.388 3.29zM67.534 201.829c0 .788-.658 1.426-1.469 1.426-.81 0-1.468-.638-1.468-1.426 0-.788.657-1.426 1.468-1.426.811 0 1.469.638 1.469 1.426z"/>
                </g>
                <g fill-rule="nonzero" stroke="#EA7600" stroke-width="1.639" transform="translate(44.777 84.444)">
                    <ellipse cx="20.105" cy="20.826" rx="7.01" ry="17.555" transform="rotate(30 20.105 20.826)"/>
                    <ellipse cx="20.105" cy="20.826" rx="7.01" ry="17.555" transform="rotate(-30 20.105 20.826)"/>
                    <ellipse cx="19.326" cy="20.975" rx="6.464" ry="18.237" transform="rotate(90 19.326 20.975)"/>
                </g>
            </g>
        </g>
        <g transform="translate(328.68 237)">
            <path fill="#000" d="M129.44 143.924s-2.371 13.85-14.404 15.892c-12.034 2.042-52.18 1.621-52.18 1.621s-22.952-3.242-31.256-21.963c-8.305-18.72-13.634-26.209-6.52-26.541 7.115-.332 45.485 12.537 47.689 12.7 2.204.161 58.791-28.487 56.671 18.29z"/>
            <path fill="#000" d="M21.762 159.33c.77 1.794 2.494 3.037 4.491 3.242.485.034.972.01 1.45-.073 4.408-.738 14.74-2.432 18.385-1.8 2.187.39 6.243-.194 9.125-.72 1.92-.35 3.352-.673 3.352-.673s-3.394-10.9-3.813-11.225c-.418-.324-15.25-8.915-15.25-8.915l-11.732-.81a6.262 6.262 0 0 0-3.98 2.261c-1.24 1.45-2.305 3.833-2.372 7.732-.234 9.587.344 10.98.344 10.98z"/>
            <path fill="#000" d="M72.685 141.962l10.893-8.274 17.195-16.387s-1.851-.089-4.659-.202c-.695.43-2.648 1.782-2.723 3.42-.084 2.001-4.642.137-7.014 1.288-2.371 1.15-13.977 15.512-16.013 15.398-2.037-.113-3.645-.997-4.492.397l-.058.09 6.87 4.27z" opacity=".1"/>
            <path fill="#000" d="M.679 117.14c1.106 2.617 10.34 12.698 10.34 12.698s5.866 7.367 14.145 10.812c8.28 3.444 18.553 10.649 19.315 11.961.486.81 7.106 4.693 11.732 7.343l1.047.591 2.313 1.297 1.223.68 5.656-4.416c2.79-2.188 5.565-4.392 5.606-4.514.084-.243 1.19-3.031.93-3.193-.125-.09-.712-1.216-1.784-2.537a11.813 11.813 0 0 0-4.316-3.444c-2.472-1.226-4.442-3.225-5.589-5.673 0 0-.369-.26-.93-.6a11.415 11.415 0 0 0-3.813-1.62c-1.86-.227-5.33-3.915-5.33-3.915a10.244 10.244 0 0 1-3.31-3.355c-.888-1.8-14.027-10.536-15.242-11.346l31.843 19.782 7.617 4.733 10.893-8.274 17.204-16.379s-2.313-.113-5.682-.251c-8.38-.349-23.194-.9-25.071-.486-1.527.341-3.1.44-4.66.291 0 0-4.19.187-7.03-1.248-2.84-1.434-7.198-2.09-7.71-3.152-.51-1.062-15.502-6.135-15.502-6.135s-20.412-10.487-27.703-4.263c-7.29 6.224-7.29 11.986-6.192 14.612z"/>
            <path fill="#EE936F" d="M66.517 57.005l2.623 8.437 3.352 19.004 12.452.81 3.604-5.777 3.594-5.77s2.246-7.684 3.855-15.107c1.425-6.58 2.355-12.967.838-13.648-1.374-.616-2.28-2.828-2.866-5.21a15.357 15.357 0 0 1-.2-.892c-.421-2.017-.701-4.058-.839-6.11 0 0-26.094-1.306-22.449 9.1.651 1.775.983 3.644.98 5.527-.001.472-.03.942-.083 1.41-.361 3.279-2.123 6.261-4.86 8.226z"/>
            <path fill="#FFF" d="M61.08 55.611l.93 14.337 2.12 12.205 2.37 5.673 2.12 30.934s20.422 2.285 25.391-.04c.355-.148.664-.383.897-.681 5.966-8.785 4.039-34.127 4.039-34.127l2.287-16.38-1.525-8.509-3.687-.372-2.84-.3s-.637.762-1.56 1.945c-2.513 3.241-7.13 9.514-6.82 12.156.419 3.607-.511 7.294-1.953 7.87-1.44.575-2.622 1.555-2.882.567a4.329 4.329 0 0 1-.252-2.618c.252-1.394-1.097-5.673-1.097-5.673s-2.288-4.992-2.12-7.124c.167-2.131-.252-4.587-.93-5.162-.68-.575-1.61-1.15-.838-3.769.77-2.617-3.352-7.723-3.352-7.723l-10.299 6.791z"/>
            <path fill="#000" d="M88.062 91.416l.837 24.5 4.894 2.617a2.12 2.12 0 0 0 .897-.673c6-8.768 4.03-34.143 4.03-34.143l2.288-16.387-1.525-8.501-3.679-.381c1.425-6.573 2.355-12.967.838-13.648-1.374-.616-2.279-2.828-2.866-5.203l-2.64 17.327s.219 1.564.294 3.177a8.63 8.63 0 0 1-.21 3.047c-.594 1.475-.167 4.101-.167 4.101-1.533 2.602-2.296 7.424-2.665 12.076-.52 6.207-.326 12.091-.326 12.091z" opacity=".1"/>
            <path fill="#FFB81C" d="M93.827 39.2s4.273.519 5.622 2.237c1.35 1.718 4.92 1.97 4.92 1.97s4.063 1.304 3.98 1.62c-.084.316 1.181.81 3.729 1.475 2.547.665 6.77 3.031 6.77 3.607 0 .575 6.704 6.961 6.704 7.618 0 .656 2.036 3.112 1.776 7.456-.26 4.343-.502 9.83.512 10.73 1.014.9 0 4.425 0 4.425a2.364 2.364 0 0 0-.084 2.617c.838 1.475-.168 7.618-.168 7.618l.084 6.395s-.93 4.052.168 4.173c1.097.122-.168 1.97-.168 1.97s-.93 3.241.251 4.749c1.182 1.507 1.526 7.788 1.526 7.788l18.125 25.48s.26 4.668-5.506 4.587c-5.765-.081-5.673 1.061-5.505 2.131.167 1.07-1.61 2.204-1.61 2.204s-2.287 1.151-.93 2.545c1.358 1.394 5.255 4.587-1.19 6.719a14.922 14.922 0 0 1-1.86-3.242c-.546-1.444-1-2.919-1.357-4.417 0 0-.595-6.232-1.776-7.05-1.182-.82-.99-4.774-.99-4.774s1.677-3.193-.678-4.506c-2.355-1.313-36.77-19.742-36.77-19.742l-.838-24.5s-.586-18.104 2.967-24.166c0 0-.42-2.626.167-4.1.587-1.476-.084-6.225-.084-6.225L93.827 39.2z"/>
            <path fill="#000" d="M71.63 49.063s-8.515-1.694-10.802-.55c-2.288 1.142-6.78 2.05-7.458 2.706-.679.656-2.372.162-3.897 4.052-1.525 3.89-1.676 7.788-3.645 9.587-1.969 1.8-2.958 3.031-3.042 4.344-.083 1.313.252 1.621-.51 2.05-.763.43-1.87 2.124-1.526 2.78.344.657 17.597 15.074 17.597 15.074s.838 5.495 1.61 6.88c.77 1.387-.839 20.57-2.515 21.882-1.676 1.313 11.439 1.184 11.439 1.184s.595-12.578 1.106-13.227c.51-.648-.344-14.093-.344-14.093s-.084-11.467 1.014-14.506c1.098-3.04.98-13.105.98-13.105s.972-6.046 2.154-7.456c1.182-1.41-2.162-7.602-2.162-7.602z" opacity=".1"/>
            <path fill="#FFB81C" d="M71.378 48.788s-8.522-1.702-10.81-.551c-2.288 1.15-6.77 2.05-7.45 2.706-.678.657-2.371.162-3.896 4.012-1.525 3.85-1.676 7.78-3.645 9.587-1.97 1.808-2.967 3.031-3.05 4.336-.084 1.305.26 1.621-.503 2.05-.763.43-1.869 2.132-1.525 2.788.343.657 17.639 15.058 17.639 15.058s.838 5.487 1.609 6.88c.77 1.395-.838 20.561-2.514 21.882-1.676 1.321 11.388 1.224 11.388 1.224s.595-12.578 1.098-13.234c.502-.657-.336-14.094-.336-14.094s-.083-11.467 1.014-14.498c1.098-3.031.98-13.105.98-13.105s.973-6.046 2.154-7.456c1.182-1.41-2.153-7.585-2.153-7.585z"/>
            <path fill="#EE936F" d="M57.61 28.9c.012 9.967 8.09 18.18 18.382 18.69 10.292.51 19.196-6.862 20.262-16.775 1.065-9.914-6.08-18.899-16.261-20.447-10.18-1.548-19.832 4.882-21.964 14.634a18.16 18.16 0 0 0-.419 3.898z"/>
            <path fill="#003057" d="M45.158 72.322l-4.617 1.394c.224.92-.146 1.88-.939 2.432a2.714 2.714 0 0 0-1.181 2.431s-.512 1.807-1.676 2.212c-1.165.406-1.953 3.12-1.953 3.12l-3.896 4.336s-1.442 1.151-1.182 1.727c.26.575-1.525.737-1.525.737l.93 14.588 8.045 1.475 5.027-.495 4.065-1.475 3.553-2.042 1.617-4.052 7.114-10.487-13.382-15.9z"/>
            <path fill="#EE936F" d="M29.312 91.902S18.98 77.485 11.27 85.265c-7.71 7.78 3.134 20.398 5.673 19.993 2.539-.405 14.656-1.086 14.656-1.086l-2.288-12.27z"/>
            <ellipse cx="43.398" cy="103.378" fill="#E6E8EC" rx="1.232" ry="1.191"/>
            <path fill="#EE936F" d="M22.625 94.933c-.084 10.82 23.036 13.105 23.036 13.105l5.865.908 2.648.405 1.106-10.536s-1.215-.17-2.731-.51c-2.238-.51-5.137-1.378-5.74-2.602-.98-2.066-24.1-11.58-24.184-.77z"/>
            <path fill="#000" d="M50.152 141.881l5.472 16.946.838 2.667 2.614-.697 5.766-1.532 25.675-6.816a22.903 22.903 0 0 0 9.217-2.43 28.792 28.792 0 0 1 15.922-3.364c3.351.308 7.164-1.11 10.298-6.702 0 0 7.115-20.318-10.843-26.137-17.958-5.819-18.82 3.096-18.82 3.096l-.244.146c-.695.43-2.648 1.783-2.723 3.42-.084 2.002-4.642.138-7.014 1.289-2.371 1.15-13.977 15.511-16.013 15.398-2.037-.114-3.645-.997-4.492.397l-.058.089c-.629.81-2.514 1.03-3.763 1.07h-1.173l-.16.048-1.306.373-9.193 2.74z"/>
            <path fill="#FFB81C" d="M120.633 57.905s7.877-2.212 5.925 19.45c-1.953 21.663-16.517 35.31-16.517 35.31s-16.759 7.124-24.3 5.981c-7.542-1.142-13.048-1.393-13.048-1.393a19.58 19.58 0 0 0-7.625-1.97c-4.19-.162-13.131-2.699-13.299-3.525-.167-.827 2.204-12.862 1.19-13.777 0 0 11.857.47 13.039 1.304 1.181.835 2.883.235 4.19 0 1.307-.235 5.162-3.517 12.87-.648 0 0 2.632.243 3.646-.413a3.785 3.785 0 0 1 2.648-.162 7.482 7.482 0 0 0 1.844-.9c.25-.324 2.287 0 2.287 0 .244.115.53.118.775.006a.874.874 0 0 0 .49-.581c.27-.67.674-1.282 1.19-1.8 0 0 2.288-12.456 6.604-17.124a2.62 2.62 0 0 0 .938-2.374c-.385-1.33 6.989-20.01 17.153-17.384z"/>
            <path fill="#000" d="M68.956 165.967l1.609.9 16.349.405a33.623 33.623 0 0 0 5.79 2.699c.274.08.554.136.838.17 1.516.12 3.039.147 4.558.081 1.249 0 2.22-.081 2.22-.081s-.778-19.937-1.357-22.036c-.284-1.004-1.675-.81-3-.283-1.016.4-1.997.88-2.932 1.434 0 0-6.947.649-8.045 1.232-1.098.584-4.24-.332-6.184 0s-5.422-2.22-5.422-2.22c-9.485-3.031-4.19 2.625-3.477 2.868 0 0-9.218-2.05-9.737 7.675-.52 9.725 8.79 7.156 8.79 7.156zM99.382 20.082l-.05.179c-.079.233-.174.46-.285.68.087-.294.2-.582.335-.859z"/>
            <path fill="#000" d="M71.782 30.838c1.584-.906 2.704-2.807 4.445-3.257.907-.237 1.854-.033 2.77.172l.104.023c5.961 1.336 10.098 7.508 9.63 14.368l-.094 1.383c-.057.817-.08 1.744.427 2.33.452.53 1.168.592 1.806.74 3.232.782 5.212 4.663 5.61 8.382.397 3.718-.372 7.452-.524 11.188-.151 3.736.455 7.86 2.95 10.315 3.922 3.849 9.884 1.658 15.075 1.305-2.296 0-4.017-2.682-4.142-5.275-.126-2.594.894-5.063 1.87-7.402.975-2.339 1.953-4.855 1.736-7.443-.299-3.553-2.772-6.398-3.719-9.818-1.103-3.979-.039-8.25.46-12.387.94-7.745-.523-16.464-5.818-21.47-2.217-2.094-5.046-3.155-7.366-5.134-16.61-14.175-29.14-7.443-30.672-5.984-2.994 2.857-11.557 4.104-10.998 17.462.214 5.125.384 8.882 5.099 9.77 3.19.572 8.289 2.464 11.35.732z"/>
        </g>
        <g transform="matrix(-1 0 0 1 416.952 305.678)">
            <path fill="#505759" d="M78.323 54.631l-50.895 6.707-2.546.334L0 48.434v-3.098l77.758-8.448z"/>
            <path fill="#FFF" d="M14.24 50.27l55.183-6.465-.566 10.124-42.983 3.132z" opacity=".502"/>
            <path fill="#505759" d="M27.294 58.17v3.167l-2.533.335L0 49.06V46.11l23.634 12.05s3.098.279 3.66.01z"/>
            <path fill="#505759" d="M37.052 6.177l-11.46 52.044a3.275 3.275 0 0 0 .82 2.956 3.434 3.434 0 0 0 2.94 1.043l72.508-9.4a3.376 3.376 0 0 0 2.777-2.247l15.643-46.2a3.274 3.274 0 0 0-.52-3.056 3.428 3.428 0 0 0-2.866-1.313L40.211 3.569c-1.533.071-2.828 1.14-3.159 2.608z"/>
            <ellipse cx="74.846" cy="28.399" fill="#D4EAE4" rx="3.829" ry="2.805" transform="rotate(-73 74.846 28.399)"/>
        </g>
    </g>
</svg>
