<?xml version="1.0" encoding="utf-8"?>
<!-- Generator: Adobe Illustrator 22.0.0, SVG Export Plug-In . SVG Version: 6.00 Build 0)  -->
<svg version="1.1" id="Layer_1" xmlns="http://www.w3.org/2000/svg" xmlns:xlink="http://www.w3.org/1999/xlink" x="0px" y="0px"
	 viewBox="0 0 711.1 516.1" style="enable-background:new 0 0 711.1 516.1;" xml:space="preserve">
<style type="text/css">
	.st0{fill:#FEEABB;}
	.st1{fill:#D0E8E2;}
	.st2{fill:#F4F9F8;}
	.st3{fill:#51585A;}
	.st4{fill:#DADADA;}
	.st5{fill:#002456;}
	.st6{fill:#F8C79B;}
	.st7{fill:#F8C79A;}
	.st8{fill:#F09372;}
	.st9{fill:#5AC0BA;}
	.st10{fill:#59BFB9;}
	.st11{fill:#EE8521;}
	.st12{fill:#EE8520;}
	.st13{fill:#CDD9D1;}
	.st14{fill:#FEFEFE;}
	.st15{fill:#EB9170;}
	.st16{fill:#8EC6D3;}
	.st17{fill:#8FC7D4;}
	.st18{fill:#0189A9;}
	.st19{fill:#FDFDFD;}
	.st20{fill:#5F6967;}
	.st21{fill:#01B3AA;}
</style>
<g>
	<path class="st0" d="M556.7,466.7c-7.1,4.8-14.4,9-22.6,11.6c-8.7,2.7-17.4,3.1-26.4,1.6c-8.6-1.3-17.2-2.2-25.9-2.9
		c-14.6-1.2-29.2-2.2-43.9-1.6c-13.3,0.5-26.5,1.4-39.7,3.4c-11.1,1.7-22.2,3.7-33.1,6.3c-0.5,0.1-1,0.1-1.5,0.1
		c-3.4,0.6-6.9,1-10.4,1c-35.1,0-70.1,0-105.2,0c-1.2,0-2.5,0-3.7,0c-4.7-0.2-6.9-2.2-7-6.8c-0.1-28.7-0.2-57.4,0-86.1
		c-0.1-23.6-0.2-47.2,0-70.8c-0.1-2.4-0.1-4.8,0-7.2c-0.1-9.4-0.1-18.7,0-28.1c-0.1-2.4-0.1-4.8,0-7.2c-0.2-3-0.1-6-0.1-8.9
		c0.1-4.5,2.2-6.5,6.7-6.7c0.9,0,1.9,0,2.8,0c65,0,130,0,195,0c1,0,2.1,0,3.1,0.1c9.3-0.1,18.6-0.2,27.9,0.1
		c3.3,0.8,6.6,0.6,9.9-0.2c1.6,0.3,3.2,0,4.7,0.8c1.7,1.9,3.8,2.5,6.3,2.4c10-0.2,20.1-0.4,30.1-1.2c7.7-0.6,8.1,0,7.2,7.5
		c-1.9,15.2-4.6,30.2-6.4,45.4c-0.3,2.5-0.3,4.9-0.2,7.4c0.1,2.9,0.5,3.2,3.3,2.7c1-0.2,2-0.5,3-0.3c1.6,0.6,1.4,2,1.6,3.3
		c1.6,10.1,2.7,20.4,4.1,30.5c1.2,9.1,3.6,17.9,5.8,26.8c1.7,7.1,1.8,14.5,3,21.6c2.9,16.9,4.5,34,10.6,50.2
		C556.6,463.2,557.6,464.8,556.7,466.7z"/>
	<path class="st1" d="M473.5,265.4c-9.5,0-18.9,0-28.4,0c-1.4-1.6-1-3.5-1-5.3c0-25.5,0-51,0-76.5c0-0.9,0-1.9,0-2.8
		c-0.1-5.2-1.1-6.3-6.4-6.3c-21.9,0-43.8,0-65.7,0c-1.8,0-3.7,0.3-5.4-0.8c-1.2-1.8-0.9-3.8-0.9-5.7c0-31,0-61.9,0-92.9
		c0-8.2-0.5-8.6-8.8-8.6c-54.8,0-109.6,0-164.4,0c-1.4,0-2.9,0.1-4.3-0.1c-1-0.1-2.1-0.1-2.3-1.5c7.9-1.2,15.6-3.3,23.4-5
		c19-4.1,37.9-8.7,56.7-13.6c18.3-4.7,36.6-9.8,54.7-15.4c19.3-5.9,38.4-12.5,57.2-19.9c9.1-3.6,17.9-7.5,27.6-9.2
		c10.7-1.9,21.3-2.1,32.1-1.2c16.3,1.3,31.9,5.2,47.2,10.6c17.5,6.1,34,14.3,49.8,24.1c15.8,9.8,30.2,21.2,43,34.7
		c8.5,9,15.6,19,21.6,29.8c7,12.6,12.8,25.7,17.4,39.4c5.6,16.4,9.9,33.1,13.1,50.2c2.2,11.5,4,23.2,5.4,34.8
		c1.3,10.9,2.2,21.8,2.7,32.7c0.5,12.2,1.5,24.4,1,36.6c-0.8,18.6-1,37.2-6,55.4c-3.1,11.3-7.1,22.3-11.9,33
		c-6.6,14.7-14.5,28.8-23.7,42c-0.6,0.8-1.1,1.7-2,2.3c-1.4-0.9-1.5-2.4-1.6-3.8c-0.5-5-1.1-10-2.4-14.9c-2.5-9.3-1.8-19-3.2-28.4
		c-1.2-8,1-15.9,0.8-23.9c-0.2-5.8-1-11.7-0.6-17.5c0-0.7,0.1-1.4,0.5-2.1c2.1-1.5,4.7-1,7.1-1.5c2.7-0.5,5.5-0.9,8.1-1.9
		c3.2-1.2,3.5-1.8,2.5-5.1c-1.1-3.7-2-7.5-3.2-11.3c-1.2-3.8-0.9-7.3,1-10.7c5.1-9.6,5.8-19.7,4.1-30.2c-1.7-10.5-3.7-21-6-31.5
		c-0.6-2.9-0.4-5.9-1.2-8.8c-1.2-4.5-3.8-7.5-8.4-8.5c-7.3-1.6-14.3-3.8-20-8.9c-0.4-0.3-0.9-0.4-1.4-0.5c-3.1-2.1-5.7-4.5-5.8-8.6
		c3.1-1.9,3.9-4.8,3.5-8.2c-0.3-2.7-0.2-5.3,0.1-8c0.4-2.8-1-5.2-2.6-7.4c-1-1.4-2.2-2.7-3-4.3c-3.2-6.6-8.9-8.1-15.5-7.3
		c-5,0.6-9.9,1.7-15,1.8c-3.5,0-5.2,2.7-4.4,6.2c0.2,1,0.4,2,0.2,3c-0.5,2.7,0.2,5.1,2.3,6.9c0.3,2.2-1,4.1-1.2,6.3
		c-0.9,9.9,4.8,17.8,14.5,20.2c4.1,1,7,3.5,9.1,7c0,0.7-0.4,1.3-0.9,1.7c-2,1.3-4.1,2.6-6.4,3c-4.9,0.8-7.9,4-9.2,8.2
		c-3.4,11-12.5,13.7-22,15.7c-9.1,1.9-18.6,1.8-27.8,2.9c-1.5,0.1-2.8-0.5-4.1-1c-1.8-0.7-3.7-1.2-5.7-1.2c-2.2,0-4.1,0.4-5.2,2.5
		c-1.2,2.2-1.3,4.5,0.1,6.7C472.8,263.4,473.8,264.1,473.5,265.4z"/>
	<path class="st2" d="M185.9,64.8c1.1,1.1,2.5,0.6,3.8,0.6c56.7,0,113.4,0,170,0c5.7,0,7,1.3,7,7.1c0,33.6,0,67.3,0,100.9
		c-1.6,1.4-3.5,1-5.3,1c-22.4,0-44.8,0-67.2,0c-53.5,0-106.9,0-160.4,0c-8.1,0-8.6,0.5-8.6,8.5c0,1.7,0.2,3.5-0.6,5.1
		c-1,1.1-2.4,1.1-3.7,1.1c-3.1,0.1-6.1-0.1-9.2,0.1c-1.9,0.1-4.8-1.2-4.9,2.3c-0.1,3.6,2.9,2.4,4.8,2.5c3.1,0.2,6.1,0,9.2,0.1
		c1.3,0,2.7-0.1,3.8,1c0.6,1,0.7,2.1,0.7,3.2c0,7.2,0,14.5,0,21.7c0,1.1,0,2.2-0.6,3.3c-1.1,1.2-2.6,1.1-4,1.1
		c-3.6,0.1-7.2,0-10.8,0c-1.7,0-3.1,0.5-3,2.6c0,2.1,1.4,2.2,3,2.3c3.6,0.1,7.2,0,10.8,0c1.4,0,2.9-0.2,4.1,1c0.8,1.4,0.7,3,0.7,4.5
		c0,23.4,0,46.9,0,70.3c0,1.6,0.2,3.3-0.8,4.8c-1.2,1-2.7,0.9-4.1,0.9c-34.2,0-68.5,0-102.7,0c-5.7,0-8-2.3-8.5-7.9
		c-0.1-1.3-0.1-2.7-0.1-4c0-36.6,0-73.2,0-109.8c0-3.2,1-6.3,0.5-9.5c3.9-10.2,7-20.6,12.3-30.2c5-9.1,10.7-17.6,17.6-25.5
		c10.5-12,23.1-21.2,37.3-28.1c15.7-7.8,32.2-13.8,49.4-17.5c18.6-4,37.1-8.2,55.6-12.3C183,65.7,184.4,65.2,185.9,64.8z"/>
	<path class="st1" d="M9.3,179.7c1.1,1,0.6,2.3,0.6,3.5c0,39.3,0,78.5,0,117.8c0,1.4,0,2.8,0.4,4.3c0.9,3.3,2.4,4.6,5.9,4.6
		c10.8,0,21.6,0,32.4,0c25.2,0,50.4,0,75.6,0c1.3,1.5,1,3.3,1,5c0,22.8,0,45.7,0,68.5c0,0.7,0,1.4,0,2.2c0.1,5.7,1,6.7,6.7,6.7
		c33.6,0,67.2,0,100.9,0c1.9,0,3.9-0.4,5.6,1c0,28.4,0,56.7,0,85.1c0,5.5,1.3,6.9,6.9,6.9c39.5,0,78.9,0,118.4,0
		c-6.7,2-13.5,4.1-20.3,6c-13.4,3.9-26.5,8.7-39.6,13.5c-11,4-22.3,6.6-33.9,8.4c-15.1,2.3-30.3,3.4-45.6,2.9
		c-11.2-0.4-22.4-1.2-33.6-2.7c-14.6-2-28.8-5.1-42.7-9.6c-18-5.9-34.6-14.2-49.2-26.6c-10.9-9.3-22.1-18.4-32.1-28.7
		c-13.6-14-25.5-29.4-35-46.6C19.2,379,11.3,354.8,6.4,329.5c-2.2-11.2-3.6-22.6-4.6-34c-1.4-16.3-2.1-32.5-1.7-48.8
		c0.6-22,3-43.8,8.9-65.2C9.2,180.9,9.2,180.3,9.3,179.7z"/>
	<path d="M588.9,337.1c0.5,8.3,1,16.6,0.7,24.9c-0.2,4.9-1.3,9.7-0.8,14.7c1.3,12.2,1.4,24.5,4.6,36.5c1.1,4.1,1.2,8.5,1.8,12.8
		c1.7,13-0.8,25.9-1.3,38.9c-0.1,1.8-0.6,3.1-1.9,4.3c-3,4.1-10.7,3.8-13.5-0.6c-1.6-5.3-2.6-10.7-2.8-16.2c-1-14-1.2-28.1-4.7-41.8
		c-2.4-9.4-4.2-18.8-6-28.3c-0.7-3.4-0.8-6.9-1.1-10.4c-0.4-1.6-0.4-3.2-0.7-5.3c0.3,2.2,0.4,3.9,0.7,5.5c0.9,7.8,0.8,15.6,0.6,23.4
		c-0.3,8.8,1.4,17.2,3.9,25.4c2.1,7.1,2.8,14.3,2,21.6c-0.4,3.9,0.6,7.5,1.4,11.2c0.4,2.8,1.2,5.5,2,8.2c0.3,1.2,0.6,2.3,0.2,3.5
		c-3.1,4.5-7.8,3.6-12.2,3.6c-1.6,0-3.8,0.2-4.8-1.9c-0.1-0.2-0.2-0.4-0.3-0.6c-3.2-9.9-6.9-19.8-8.2-30.2
		c-1.6-12.7-4.6-25.2-5.4-38.1c-0.4-6.6-2.4-13.1-4.2-19.5c-3.5-12.4-4.1-25.3-6.1-38c-0.6-3.7-1.2-7.5-1.8-11.2
		c-1.5-3.4,0.8-17.2,3.4-19.8c0.2-0.2,0.5-0.3,0.8-0.4c2.2-0.1,4.3,0.6,6.3,1.1c8.3,2,16.6,1.9,25,0.3c1.9-0.4,3.8-0.7,5.8-0.8
		c1.9,0,2.8,1.4,3.7,2.8c2.3,3.5,4.4,7.1,5.9,11c-0.8,1.8-0.6,3.5,0.4,5.2c1.3,2.3,2.5,4.7,3.5,7.2
		C586.6,337.9,587.6,337.6,588.9,337.1z"/>
	<path class="st1" d="M672.6,516.1c-6.7-0.6-14.1-2.3-19.2-9c-5.7-7.3-4.7-17.8-0.6-25.3c7.3-13.3,19-20.9,33.6-23.5
		c12.9-2.3,25.4,7.3,24.7,19.9c-0.3,5.2-2.4,10-4.9,14.5c-4.8,8.7-11.1,16-20.2,20.5C682.1,515.1,678.1,516.1,672.6,516.1z"/>
	<path class="st3" d="M557,467.2c5.2,2.2,13.5,1.3,16.4-1.8c1.9,2.4,2,5.3,2.6,8.1c0.4,1.8,0.7,3.6,1.1,5.4c0.1,1.1-0.1,2.1-1.1,2.7
		c-9.9,2.4-19.7,5.7-30.2,4.9c-2.2-0.2-4.3-0.5-6.2-1.5c-1.1-0.6-2-1.4-2-2.9c0-1.4,1-2.2,2.1-2.7c1.1-0.5,2.3-0.8,3.5-1
		c6.3-0.8,10.2-4.8,13.6-9.7C557,468.3,557,467.7,557,467.2z"/>
	<path class="st3" d="M575.9,481.6c0.2-0.9,0.4-1.8,0.6-2.6c-0.6-3.1,0.3-6.1,1.1-9c0.2-0.7,0.4-1.4,1.4-1.4c2.7,3.3,8.3,3.6,13,0.6
		c1.5,4.5,2.5,9.1,2.3,13.8c-0.1,4-1.4,5.4-5.2,5.8c-4,0.4-7.9-0.4-11.8-1.3c-1.3-0.3-1.8-1.1-1.6-2.5
		C575.9,483.8,575.9,482.7,575.9,481.6z"/>
	<path class="st4" d="M238.3,393.2c-36,0-72,0-107.9,0c-4.7,0-6.2-1.5-6.2-6.2c0-25.7,0-51.4,0-77.1c0-26.5,0-53.1,0-79.6
		c-1.3-2.2-1.4-4.5,0-6.7c0-9.5,0-19,0-28.5c-1.3-2.2-1.3-4.5,0-6.7c0-2.6,0-5.1,0-7.7c0-5.8,1.3-7.1,7-7.1c18.5,0,37,0,55.5,0
		c60,0,120.1,0,180.1,0c23.9,0,47.9,0,71.8,0c5.2,0,6.5,1.4,6.5,6.5c0,28.5,0,56.9,0,85.4c-34.7,0-69.5,0-104.2,0
		c-32.2,0-64.3,0-96.5,0c-4.9,0-6.1,1.3-6.1,6.2c0,2.9,0,5.8,0,8.6c-1.4,1.2-3.1,0.9-4.7,0.9c-3.2,0-6.3,0-9.5,0
		c-1.7,0-3.3,0.1-3.3,2.5c0,2.2,1.6,2.3,3.2,2.3c3.5,0,7,0,10.4,0c1.3,0,2.7-0.2,3.8,0.8c0,9.5,0,19.1,0.1,28.6
		c-1.2,1-2.7,0.8-4.1,0.9c-3.6,0-7.2,0-10.7,0c-1.7,0-2.7,0.7-2.6,2.6c0,1.8,1.1,2.3,2.6,2.3c3.6,0.1,7.2,0,10.7,0
		c1.4,0,2.9-0.2,4.1,0.8C238.3,345.8,238.3,369.5,238.3,393.2z"/>
	<path class="st5" d="M535.3,309.8c-1.2,0.4-1.3,1.5-1.6,2.5c-1.7,5.7-2.5,11.5-2.8,17.4c-1.1,0.3-2.2,0.5-3.3,0.8
		c-4.1,1.1-4.1,1.1-4.2-3.3c-0.2-8.6,1.5-17,2.7-25.4c1.6-10.8,3-21.6,4.6-32.3c0.3-2.1-0.8-2.2-2.2-2.1c-7.3,0.3-14.6,0.6-21.8,0.9
		c-4.7,0.2-9.5,0.1-14.2,0.4c-2.8,0.2-4.5-0.6-5.5-3.1c-0.4-0.5-0.9-0.9-1.1-1.6c-0.9-3.1-1.5-6.1,1-8.8c0.7-1.2,1.8-0.8,2.8-0.9
		c8.2-0.6,16.4-1.1,24.5-2.3c7-1,13.1-3.9,18.6-8.3c1-0.8,1.6-1.7,2-3c0.7-2.7,1.8-5.2,3.4-7.5c1.8-2.5,3.7-4.4,7.1-4.9
		c2.5-0.4,4.9-1.9,7.4-2.9c0.9,1.6,0,3-0.5,4.4c-3.9,10.7-7.5,21.6-11.1,32.4c-2.2,6.7-2.5,13.3-1.5,20.1c0.4,2.9,0.5,5.7,0.9,8.6
		c0.3,2.4,0,4.7-1,6.9c-1.2,2.8-1.7,5.7-2.5,8.6C536.5,307.5,536.4,308.9,535.3,309.8z"/>
	<path class="st6" d="M423.2,414.2c-28.6,0-57.2,0-85.8,0c-1.1,0-2.8,0.7-3.2-0.9c-0.4-1.6-0.1-3.5,0-5.2c0-0.5,0.7-0.7,1.3-0.7
		c0.8,0,1.6,0,2.5,0c57.1,0,114.1,0,171.2,0c3.5,0,5.3,2.9,3.7,5.9c-0.7,1.4-2,0.8-3,0.8c-12.4,0-24.9,0-37.3,0
		C456.1,414.2,439.6,414.2,423.2,414.2z"/>
	<path class="st6" d="M423.7,371.6c28.4,0,56.8,0,85.1,0c4.3,0,5,1,4.2,5.3c-0.2,1-0.6,1.4-1.6,1.4c-0.8,0-1.6,0-2.5,0
		c-57,0-113.9,0-170.9,0c-3.7,0-5.3-2.3-4-5.8c0.4-1.1,1.2-1,2-1c2.6,0,5.1,0,7.7,0C370.4,371.6,397.1,371.6,423.7,371.6z"/>
	<path class="st7" d="M423.3,343.2c-28.5,0-57,0-85.4,0c-3.5,0-5.3-2.9-3.7-6c0.3-0.7,0.9-0.8,1.5-0.8c0.8,0,1.6,0,2.5,0
		c57,0,113.9,0,170.9,0c3.7,0,5.3,2.4,3.9,5.8c-0.5,1.2-1.5,0.9-2.3,1c-4.4,0-8.8,0-13.3,0C472.7,343.2,448,343.2,423.3,343.2z"/>
	<path class="st8" d="M486.9,255c-1,3-1,6-0.4,9.1c-1.1,0.9-2.3,1.1-3.7,0.8c-3.1,1.2-6.2,1.6-9.3,0.4c-1.1-1.3-2.5-2.4-2.9-4.2
		c-1.3-5.3,1.5-8.9,6.9-8.8C480.9,252.5,483.8,253.9,486.9,255z"/>
	<path class="st9" d="M238.2,286.9c-5.3,0-10.7-0.1-16,0.1c-3,0.1-2.3-1.8-2.4-3.5c0-1.7-0.5-3.5,2.4-3.4c5.3,0.2,10.7,0.1,16,0.2
		C238.3,282.5,238.2,284.7,238.2,286.9z"/>
	<path class="st10" d="M238.3,322.1c-5.3,0-10.7-0.1-16,0.1c-3,0.1-2.4-1.8-2.4-3.4c0-1.7-0.6-3.5,2.4-3.4c5.3,0.2,10.7,0.1,16,0.1
		C238.3,317.7,238.3,319.9,238.3,322.1z"/>
	<path class="st11" d="M290.5,345.7c-3.2,0.1-5.9-2.6-5.9-5.8c0-3.2,2.6-5.9,5.8-5.9c3.1,0,5.9,2.7,6,5.8
		C296.4,343,293.8,345.6,290.5,345.7z"/>
	<path class="st12" d="M290.3,380.9c-3.2-0.1-5.7-2.6-5.7-5.7c0-3.2,2.7-5.9,5.9-5.9c3.1,0,5.9,2.9,5.9,6
		C296.3,378.5,293.6,381,290.3,380.9z"/>
	<path class="st12" d="M296.3,410.7c-0.1,3.1-3,5.9-6.1,5.8c-3.2-0.1-5.8-2.9-5.7-6.1c0.1-3.2,2.8-5.6,6.2-5.5
		C293.9,405,296.4,407.6,296.3,410.7z"/>
	<path class="st13" d="M482.8,265c1.2-0.3,2.4-0.6,3.7-0.8c0.4,0.3,0.6,0.8,0.5,1.3C485.7,265.2,484.2,265.8,482.8,265z"/>
	<path class="st5" d="M581.6,324.1c-1.8-3.2-3.6-6.5-5.5-9.7c-0.9-1.5-1.5-3.1-3.2-4c-1.1-0.3-2-1-2.7-1.9
		c-6.6-8.5-12.3-17.5-13.8-28.5c-0.8-6.1,0.1-12.1,1-18.1c2.2-13.9,6.2-27.2,11.2-40.3c1-1.8,1-4.1,2.6-5.6c0.6-0.2,0.5-1.9,1.7-0.6
		c4.9,5.8,11.8,7.6,18.7,9.2c6.7,1.6,10,4.4,10.7,11.3c0.9,9.2,3.6,18.1,5,27.2c1.4,9.5,3.8,18.9,2.2,28.7
		c-0.9,5.5-2.8,10.5-5.3,15.3c-1.1,2-1.2,4-0.6,6.2c1.5,4.9,2.6,9.9,4.2,14.8c0.7,2.2,0.1,3.3-1.8,4c-5.4,2.2-11.1,2.9-16.8,3.1
		C585.7,332.1,583.7,328.1,581.6,324.1z"/>
	<path class="st14" d="M569.4,221.3c-5.6,15.3-10.1,30.9-12.1,47.2c-1.3,10,0.6,19.4,5.7,28.1c2.9,5,6.2,9.7,10,14
		c-12.6,3.3-25.1,3.5-37.6-0.7c0.7-2.9,1-5.9,2.1-8.7c1.8-4.7,2.8-9.4,1.6-14.4c-3.1-13.2,0.9-25.5,5.2-37.7
		c2.8-7.9,5.6-15.8,8.3-23.8c0.2-0.4,0.4-0.8,0.7-1.1c2.4-0.5,4.9,0.3,7.4-0.6c1.9-0.7,3.9-1,5.8-1.9
		C567.3,221.2,568.2,220.2,569.4,221.3z"/>
	<path d="M530.8,190.8c-2.7-1.1-3.7-3.1-3-5.9c0.4-1.7,0.3-3.3-0.3-5.1c-0.9-2.8,2-6.3,5.2-6.3c4.9,0.1,9.6-1,14.3-1.6
		c7.4-1,13.7,0.3,17.3,7.9c0.7,1.4,1.9,2.6,2.9,3.9c2.2,2.9,3.5,6,2.5,9.7c-0.7,2.7,0,5.3,0.1,8c0.1,3.3-0.8,5.8-4.4,6.7
		c-3.6,1.8-6.5,0.4-9.3-1.8c-2.2-1.8-3.6-4.2-5.6-6.1c-3.1-2.9-4.1-2.9-6.8,0.4c-2.1,2.6-4.4,2.5-6.1-0.4c-1.3-2.4-3.6-4.2-4-7.1
		C533.5,191.5,531.7,191.7,530.8,190.8z"/>
	<path class="st8" d="M530.8,190.8c2.4-0.3,3.9,0.2,4.1,3.1c0.2,3,3.1,4.7,4.4,7.3c1,1.9,3,0.2,4.1-1.3c2.8-4,3.9-4.1,7.5-0.6
		c1,1,2.1,2,2.9,3.2c2.8,4.4,6.6,6.2,11.7,5.6c1.2,3.1,3.4,5.6,5.6,8c-0.3,1.9-1,3.6-1.8,5.3c-3,0.6-5.5,2.6-8.6,3
		c-2.6,0.4-5.1,1.3-7.6-0.2c-2.8-2.9-5.6-5.6-9.9-6.7C531.5,214.5,525.8,202.1,530.8,190.8z"/>
	<path class="st15" d="M581.6,324.1c3.1,3.3,5.1,7.3,7.4,11c-0.1,0.6-0.1,1.3-0.2,1.9c-0.4,0.8-0.9,1.5-1.7,2.9
		c-2.5-4.8-4.8-9.3-7.1-13.7C579.2,324.6,581.1,324.9,581.6,324.1z"/>
	<path class="st16" d="M195.7,153c28.6,0,57.2,0,85.8,0c3.3,0,5,2.9,3.5,5.8c-0.3,0.6-0.8,0.9-1.5,0.9c-0.7,0-1.4,0-2.2,0
		c-57.3,0-114.6,0-171.8,0c-2.5,0-4-0.3-3.9-3.4c0.1-2.7,0.7-3.5,3.5-3.4C138,153.1,166.8,153,195.7,153z"/>
	<path class="st16" d="M124.1,188.3c0,2.2,0,4.5,0,6.7c-5.3,0-10.7-0.1-16,0.1c-2.9,0.1-2.4-1.8-2.4-3.4c0-1.7-0.5-3.5,2.4-3.4
		C113.4,188.4,118.8,188.3,124.1,188.3z"/>
	<path class="st17" d="M124.1,223.5c0,2.2,0,4.5,0,6.7c-5.3,0-10.6-0.1-16,0c-2.5,0.1-2.6-1.2-2.5-3.1c0.1-1.7-0.6-3.9,2.5-3.8
		C113.5,223.6,118.8,223.5,124.1,223.5z"/>
	<path class="st18" d="M62.2,232.8c-3.3-0.1-5.8-2.7-5.8-5.9c0.1-3.2,2.9-5.8,6-5.7c3.2,0.1,5.7,2.7,5.7,6
		C68.1,230.4,65.6,232.9,62.2,232.8z"/>
	<path class="st18" d="M62.3,150.5c3.3,0,5.8,2.4,5.8,5.8c0,3.3-2.6,5.9-5.8,5.9c-3.2,0-5.9-2.7-5.9-5.9
		C56.4,153.1,59,150.5,62.3,150.5z"/>
	<path class="st18" d="M68.2,191.6c0,3.2-2.6,5.9-5.8,5.9c-3.2,0-5.9-2.7-5.9-5.8c0-3.2,2.7-5.9,5.9-5.9
		C65.6,185.8,68.2,188.3,68.2,191.6z"/>
	<path class="st1" d="M571.1,454.3c-1.2-4.5-2-8.9-1.3-13.6c0.9-6.4-0.2-12.7-2.1-18.8c-2.9-9.6-4.6-19.3-4.1-29.4
		c0.4-7,0.1-13.9,0.1-20.9c0.2-0.2,0.3-0.2,0.4,0.1c1.9,10.2,3.2,20.5,5.7,30.5c3.7,14.3,5.7,28.8,6.1,43.5c0.1,2.3,0.3,4.5,0.5,6.7
		c-1.1,0.1-0.8-0.9-1-1.3C574,452.2,573.4,454.3,571.1,454.3z"/>
	<path class="st19" d="M571.1,454.3c1.4-1.3,2.9-2.6,4.4-4c0.4,0.8,0.7,1.5,1,2.1c0.3,5.4,1.8,10.7,2.5,16.1
		c-1.4,3.3-1.6,7-2.5,10.4c-1.6-4.4-2-9.1-3.1-13.5C573.4,461.5,571.3,458.1,571.1,454.3z"/>
	<path class="st20" d="M564.2,371.7c-0.2,0-0.3,0-0.4-0.1c-1.2-1.5-0.5-3.3-0.5-5C564,368.2,564.4,369.9,564.2,371.7z"/>
	<path class="st10" d="M309.2,251.3c-28.5,0-57,0-85.5,0c-3.6,0-5.2-2.6-3.8-5.9c0.3-0.7,0.8-0.8,1.5-0.9c0.8,0,1.6,0,2.5,0
		c57,0,114,0,171,0c3.8,0,5.3,2.1,4,5.7c-0.3,0.7-0.7,1-1.3,1c-0.9,0-1.9,0-2.8,0C366.2,251.3,337.7,251.3,309.2,251.3z"/>
	<path class="st21" d="M176.4,312.9c3.2,0,5.8,2.5,5.9,5.8c0,3.3-2.5,5.9-5.8,5.9c-3.1,0-5.9-2.7-6-5.8
		C170.5,315.7,173.2,313,176.4,312.9z"/>
	<path class="st21" d="M176.4,253.8c-3.3,0-5.9-2.6-5.9-5.8c0-3.1,2.9-5.9,6-5.8c3.2,0,5.8,2.7,5.8,5.9
		C182.2,251.4,179.7,253.8,176.4,253.8z"/>
	<path class="st21" d="M176.6,277.7c3.3,0.1,5.7,2.6,5.6,6c-0.1,3.2-2.8,5.8-6,5.7c-3.1-0.1-5.9-3-5.7-6.1
		C170.6,280,173.2,277.6,176.6,277.7z"/>
</g>
</svg>
