<svg xmlns="http://www.w3.org/2000/svg" width="30" height="30" viewBox="0 0 30 30">
    <g fill="none" fill-rule="evenodd">
        <path fill="#84BD00" d="M25.743 30H4.256C1.906 30 0 28.232 0 26.05V3.95C0 1.767 1.905 0 4.256 0h21.487C28.094 0 30 1.768 30 3.95v22.1c0 2.182-1.906 3.95-4.257 3.95"/>
        <path stroke="#FFF" stroke-width=".782" d="M22.07 20.5l-4.437-8.515V8.943a.57.57 0 0 1 .583-.556.57.57 0 0 0 .583-.555V6.588a.57.57 0 0 0-.583-.555h-6.442a.57.57 0 0 0-.583.555v1.244c0 .307.26.555.583.555a.57.57 0 0 1 .582.556v3.042L7.921 20.5c-.856 1.642.398 3.568 2.321 3.568h9.505c1.924 0 3.177-1.926 2.322-3.568z"/>
        <path stroke="#FFF" stroke-width=".782" d="M9.978 16.484c2.195.319 4.315 1.036 6.517 1.313 1.337.168 2.758.144 4.048-.2"/>
        <path fill="#FFF" d="M16.285 13.965a1.607 1.607 0 1 1-3.214 0 1.607 1.607 0 0 1 3.214 0zM16.32 9.879a.804.804 0 1 1-1.608 0 .804.804 0 0 1 1.608 0z"/>
    </g>
</svg>
