<?xml version="1.0" encoding="utf-8"?>
<!-- Generator: Adobe Illustrator 22.0.0, SVG Export Plug-In . SVG Version: 6.00 Build 0)  -->
<svg version="1.1" id="Capa_1" xmlns="http://www.w3.org/2000/svg" xmlns:xlink="http://www.w3.org/1999/xlink" x="0px" y="0px"
	 viewBox="0 0 512 512" style="enable-background:new 0 0 512 512;" xml:space="preserve">
<path d="M416.7,222.9c-8.8,0-16,7.2-16,16c0,79.8-64.9,144.7-144.7,144.7c-79.8,0-144.7-64.9-144.7-144.7c0-8.8-7.2-16-16-16
	s-16,7.2-16,16c0,44.5,16.7,87,46.9,119.8c29.9,32.3,70.2,52.3,113.8,56.2V480h-32.2c-8.8,0-16,7.2-16,16s7.2,16,16,16h96.4
	c8.8,0,16-7.2,16-16s-7.2-16-16-16H272v-65.1c43.5-3.9,83.9-23.9,113.8-56.2c30.2-32.7,46.9-75.3,46.9-119.8
	C432.7,230.1,425.5,222.9,416.7,222.9z"/>
<path d="M256,0c-44.3,0-80.3,36-80.3,80.3v160.7c0,44.3,36,80.3,80.3,80.3c44.3,0,80.3-36,80.3-80.3V80.3C336.3,36,300.3,0,256,0z
	 M207.7,80.3c0-26.6,21.7-48.3,48.3-48.3c26.6,0,48.3,21.7,48.3,48.3v160.7c0,26.6-21.7,48.3-48.3,48.3c-26.6,0-48.3-21.7-48.3-48.3
	V80.3z"/>
</svg>
