<?xml version="1.0" encoding="utf-8"?>
<!-- Generator: Adobe Illustrator 22.0.0, SVG Export Plug-In . SVG Version: 6.00 Build 0)  -->
<svg version="1.1" id="Capa_1" xmlns="http://www.w3.org/2000/svg" xmlns:xlink="http://www.w3.org/1999/xlink" x="0px" y="0px"
	 viewBox="0 0 512 512" style="enable-background:new 0 0 512 512;" xml:space="preserve">
<g>
	<path d="M505.1,482.5L29.3,6.6c-6.2-6.2-16.2-6.2-22.4,0l0,0c-6.2,6.2-6.2,16.3,0,22.4l168.8,168.8V241c0,44.3,36,80.3,80.3,80.3
		c12.6,0,24.5-2.9,35.1-8.1l45.7,45.7c-23.1,15.6-50.9,24.7-80.8,24.7c-79.8,0-144.7-64.9-144.7-144.7c0-8.8-7.2-16-16-16
		c-8.8,0-16,7.2-16,16c0,44.5,16.7,87,46.9,119.8C156.1,391,196.4,411,240,414.9V480h-32.2c-8.8,0-16,7.2-16,16s7.2,16,16,16h96.4
		c8.8,0,16-7.2,16-16s-7.2-16-16-16H272v-65.1c31.9-2.9,62.1-14.4,87.7-33l123,123c6.2,6.2,16.2,6.2,22.4,0l0,0
		C511.3,498.7,511.3,488.6,505.1,482.5z M256,289.3c-26.6,0-48.3-21.7-48.3-48.3v-11.2l58.4,58.4C262.8,288.9,259.5,289.3,256,289.3
		z"/>
	<path d="M432.7,238.9c0-8.8-7.2-16-16-16s-16,7.2-16,16c0,27-7.4,52.3-20.4,74l23.2,23.2C422.5,307.4,432.7,273.7,432.7,238.9z"/>
	<path d="M207.7,80.3c0-26.6,21.7-48.3,48.3-48.3c26.6,0,48.3,21.7,48.3,48.3v156.5l28.3,28.3c2.4-7.6,3.7-15.7,3.7-24.1V80.3
		C336.3,36,300.3,0,256,0s-80.3,36-80.3,80.3v27.9l32,32V80.3z"/>
</g>
</svg>
