<?xml version="1.0" encoding="utf-8"?>
<!-- Generator: Adobe Illustrator 22.0.0, SVG Export Plug-In . SVG Version: 6.00 Build 0)  -->
<svg version="1.1" xmlns="http://www.w3.org/2000/svg" xmlns:xlink="http://www.w3.org/1999/xlink" x="0px" y="0px"
	 viewBox="0 0 512 512" xml:space="preserve">
<path d="M479,504.5L7.1,32.7c-7-7-7-18.5,0-25.6l0,0c7-7,18.5-7,25.6,0l471.8,471.8c7,7,7,18.5,0,25.6l0,0
	C497.5,511.5,486,511.5,479,504.5z"/>
<path d="M335.1,309.8H146.5c-10,0-18.2,8.1-18.2,18.2c0,10.1,8.1,18.2,18.2,18.2h217.9c2.1,0,4.2-0.4,6.1-1.1L335.1,309.8z"/>
<g>
	<path d="M350.1,273.6h14.3c10,0,18.2-8.1,18.2-18.2c0-10-8.1-18.2-18.2-18.2h-50.7L350.1,273.6z"/>
	<path d="M262.5,237.2h-116c-10,0-18.2,8.1-18.2,18.2c0,10,8.1,18.2,18.2,18.2h152.4L262.5,237.2z"/>
</g>
<g>
	<path d="M277.4,200.9h87c10,0,18.2-8.1,18.2-18.2c0-10.1-8.1-18.2-18.2-18.2H241L277.4,200.9z"/>
	<path d="M189.8,164.5h-43.3c-10,0-18.2,8.1-18.2,18.2c0,10.1,8.1,18.2,18.2,18.2h79.7L189.8,164.5z"/>
</g>
<g>
	<path d="M143.4,66.9c32.6-19.4,70.7-30.6,111.4-30.6c120.5,0,218.5,98,218.5,218.5c0,39.8-10.9,78.2-30.6,111.4l26.2,26.2
		c36-55.8,50.7-125.8,33.6-197.2c-3.3-14.4-9.4-34.8-21.2-57.1C442.5,65.3,356.2-0.8,254.8,0c-51.3,0.4-96.4,17.8-133.9,44.5
		L143.4,66.9z"/>
	<path d="M447,421.7l-25.6-25.6c-39.8,46.9-100.4,77.7-173.7,77.1l-185.5-0.9l37.9-37.4c7.1-7.1,7.2-18.6,0.1-25.7
		C59,367.9,36.3,313.1,36.3,254.8c0-66.7,30-126.4,77.2-166.6L92.7,67.4C33.8,122.2,0.1,199.1,0,254.8
		c-0.1,62.6,19.2,97.5,19.2,97.5c20.3,36.5,48,49.5,42.8,69.2c-5.2,19.8-37.8,23.9-56.6,55.9c-3.1,5.3-6.8,13-4,19.8
		c3.1,7.6,12.7,10.2,16.7,11.3c29.8,8.2,123.4,1.6,136.7,0.7l46,0.1c69.1,0.5,50.8,0.3,53.9,0.3C332.4,509.6,400.7,475.1,447,421.7z
		"/>
</g>
</svg>
