<svg id="bold" enable-background="new 0 0 24 24" height="512" viewBox="0 0 24 24" width="512" xmlns="http://www.w3.org/2000/svg"><path d="m12.25 2h-1.1c-.33-1.15-1.39-2-2.65-2s-2.32.85-2.65 2h-1.1c-.41 0-.75.34-.75.75v1.5c0 .96.79 1.75 1.75 1.75h5.5c.96 0 1.75-.79 1.75-1.75v-1.5c0-.41-.34-.75-.75-.75z"/><path d="m14.25 3h-.25v1.25c0 1.52-1.23 2.75-2.75 2.75h-5.5c-1.52 0-2.75-1.23-2.75-2.75v-1.25h-.25c-1.52 0-2.75 1.23-2.75 2.75v12.5c0 1.52 1.23 2.75 2.75 2.75h6.64c-.62-1.14-.48-2.51.29-3.5h-5.93c-.41 0-.75-.34-.75-.75s.34-.75.75-.75h5.28c-.08-.58-.01-1.18.24-1.75h-5.52c-.41 0-.75-.34-.75-.75s.34-.75.75-.75h6.4l.13-.22c.52-.84 1.4-1.4 2.37-1.53h-8.9c-.41 0-.75-.34-.75-.75s.34-.75.75-.75h9.5c.41 0 .75.34.75.75 0 .08-.01.17-.05.24.58-.9 1.6-1.49 2.74-1.49h.31v-3.25c0-1.52-1.23-2.75-2.75-2.75z"/><path d="m22.551 17.846c.01-.11.017-.227.017-.346s-.007-.236-.017-.346l.909-.617c.542-.368.701-1.089.362-1.641l-.811-1.325c-.325-.529-1.004-.742-1.581-.494l-1.078.459c-.217-.143-.443-.268-.679-.375l-.111-1.058c-.068-.629-.606-1.103-1.251-1.103h-1.619c-.646 0-1.184.474-1.252 1.103l-.111 1.057c-.235.107-.462.233-.679.375l-1.077-.458c-.577-.246-1.257-.034-1.583.495l-.809 1.323c-.34.553-.182 1.274.361 1.642l.909.618c-.01.11-.017.227-.017.346s.007.236.017.346l-.909.617c-.543.368-.701 1.089-.362 1.641l.811 1.326c.324.529 1.003.74 1.581.494l1.078-.459c.217.143.443.268.679.375l.111 1.058c.068.627.606 1.101 1.251 1.101h1.619c.646 0 1.184-.474 1.252-1.103l.111-1.057c.235-.107.462-.233.679-.375l1.077.458c.578.249 1.258.034 1.583-.495l.809-1.323c.34-.553.182-1.274-.361-1.642zm-5.05 2.154c-1.379 0-2.5-1.122-2.5-2.5s1.121-2.5 2.5-2.5 2.5 1.122 2.5 2.5-1.121 2.5-2.5 2.5z"/></svg>