<?xml version="1.0" encoding="utf-8"?>
<!-- Generator: Adobe Illustrator 16.0.0, SVG Export Plug-In . SVG Version: 6.00 Build 0)  -->
<!DOCTYPE svg PUBLIC "-//W3C//DTD SVG 1.1//EN" "http://www.w3.org/Graphics/SVG/1.1/DTD/svg11.dtd">
<svg version="1.1" id="Capa_1" xmlns="http://www.w3.org/2000/svg" xmlns:xlink="http://www.w3.org/1999/xlink" x="0px" y="0px"
	 width="250px" height="250px" viewBox="0 0 250 250" enable-background="new 0 0 250 250" xml:space="preserve">
<g>
	<g>
		<path d="M181.289,157.556c1.938,1.692,4.332,2.524,6.716,2.524c2.847,0,5.678-1.186,7.7-3.495l51.771-59.264
			c3.365-3.849,3.365-9.595,0-13.443l-51.771-59.263c-3.716-4.247-10.167-4.683-14.417-0.974
			c-4.251,3.712-4.684,10.167-0.975,14.417l45.898,52.54l-45.898,52.541C176.602,147.389,177.037,153.844,181.289,157.556z"/>
	</g>
</g>
<g>
	<g>
		<path d="M0,154.63c0,40.939,33.313,74.249,74.253,74.249h151.905c5.644,0,10.218-4.574,10.218-10.217
			c0-5.645-4.574-10.219-10.218-10.219H74.253c-29.676,0-53.817-24.141-53.817-53.813s24.142-53.814,53.817-53.814h165.529
			c5.644,0,10.218-4.574,10.218-10.218c0-5.644-4.574-10.218-10.218-10.218H74.253C33.311,80.38,0,113.69,0,154.63z"/>
	</g>
</g>
</svg>
