<?xml version="1.0" encoding="utf-8"?>
<!-- Generator: Adobe Illustrator 22.0.0, SVG Export Plug-In . SVG Version: 6.00 Build 0)  -->
<svg version="1.1" id="Capa_1" xmlns="http://www.w3.org/2000/svg" xmlns:xlink="http://www.w3.org/1999/xlink" x="0px" y="0px"
	 viewBox="0 0 512 512" style="enable-background:new 0 0 512 512;" xml:space="preserve">
<g>
	<path d="M29.3,6.6c-6.2-6.2-16.2-6.2-22.4,0l0,0c-6.2,6.2-6.2,16.3,0,22.4l67,67H48c-26.5,0-48,21.5-48,48v224
		c0,26.5,21.5,48,48,48h320c7,0,12.9-4.5,15.1-10.7l99.6,99.6c6.2,6.2,16.2,6.2,22.4,0l0,0c6.2-6.2,6.2-16.3,0-22.4L29.3,6.6z
		 M352.1,384H48c-8.8,0-16-7.2-16-16V144c0-8.8,7.2-16,16-16h57.9l246.2,246.3V384z"/>
	<path d="M504.2,98.2c-4.9-2.8-10.9-3-15.8-0.3l-104.4,57V112c0-8.8-7.2-16-16-16H163.5l32,32H352v53.8c0,5.6,3,10.9,7.8,13.8
		c4.9,2.9,10.9,3,15.8,0.3L480,139v234l-87-47.4l80.2,80.2l15.1,8.2c2.4,1.3,5,2,7.7,2c2.8,0,5.7-0.7,8.2-2.2
		c4.8-2.9,7.8-8.1,7.8-13.8V112C512,106.4,509,101.1,504.2,98.2z"/>
</g>
</svg>
