<?xml version="1.0" encoding="utf-8"?>
<!-- Generator: Adobe Illustrator 22.0.0, SVG Export Plug-In . SVG Version: 6.00 Build 0)  -->
<svg version="1.1" id="Capa_1" xmlns="http://www.w3.org/2000/svg" xmlns:xlink="http://www.w3.org/1999/xlink" x="0px" y="0px"
	 viewBox="0 0 512 512" style="enable-background:new 0 0 512 512;" xml:space="preserve">
<path d="M504.2,98.2c-4.9-2.8-10.9-3-15.8-0.3L384,154.9V112c0-8.8-7.2-16-16-16H48c-26.5,0-48,21.5-48,48v224c0,26.5,21.5,48,48,48
	h320c8.8,0,16-7.2,16-16v-42.9L488.3,414c2.4,1.3,5,2,7.7,2c2.8,0,5.7-0.7,8.2-2.2c4.8-2.9,7.8-8.1,7.8-13.8V112
	C512,106.4,509,101.1,504.2,98.2z M480,373l-104.3-56.9c-5-2.7-11-2.6-15.8,0.3c-4.8,2.9-7.8,8.1-7.8,13.8V384H48
	c-8.8,0-16-7.2-16-16V144c0-8.8,7.2-16,16-16h304v53.8c0,5.6,3,10.9,7.8,13.8c4.9,2.9,10.9,3,15.8,0.3L480,139
	C480,139,480,373,480,373L480,373z"/>
</svg>
