<?xml version="1.0" encoding="utf-8"?>
<!-- Generator: Adobe Illustrator 22.0.0, SVG Export Plug-In . SVG Version: 6.00 Build 0)  -->
<svg version="1.1" xmlns="http://www.w3.org/2000/svg" xmlns:xlink="http://www.w3.org/1999/xlink" x="0px" y="0px"
	 viewBox="0 0 512 512" style="fill:#3c4043;" xml:space="preserve">
<path d="M384,154.9V112c0-8.8-7.2-16-16-16H48c-26.5,0-48,21.5-48,48v224c0,26.5,21.5,48,48,48h320c8.8,0,16-7.2,16-16v-42.9
	L488.3,414c2.4,1.3,5,2,7.7,2c2.8,0,5.7-0.7,8.2-2.2c4.8-2.9,7.8-8.1,7.8-13.8V112c0-5.6-3-10.9-7.8-13.8c-4.9-2.8-10.9-3-15.8-0.3"
	/>
</svg>
