<svg xmlns="http://www.w3.org/2000/svg" xmlns:xlink="http://www.w3.org/1999/xlink" width="84" height="86" viewBox="0 0 84 86">
    <defs>
        <path id="a" d="M0 .359h64.8v69.544H0z"/>
        <path id="c" d="M18 0h64.8v69.544H18z"/>
    </defs>
    <g fill="none" fill-rule="evenodd">
        <g transform="translate(18.6 .8)">
            <mask id="b" fill="#fff">
                <use xlink:href="#a"/>
            </mask>
            <path fill="#FEFEFE" d="M55.606 69.903H9.194c-5.078 0-9.193-4.1-9.193-9.156V9.514C0 4.458 4.116.36 9.194.36h46.412c5.078 0 9.195 4.099 9.195 9.155v51.233c0 5.056-4.117 9.156-9.195 9.156" mask="url(#b)"/>
        </g>
        <g transform="translate(.6 .8)">
            <mask id="d" fill="#fff">
                <use xlink:href="#c"/>
            </mask>
            <path fill="#005A70" d="M73.606 69.544H27.194c-5.078 0-9.193-4.1-9.193-9.155V9.156C18 4.099 22.116 0 27.194 0h46.412c5.078 0 9.195 4.1 9.195 9.156v51.233c0 5.056-4.117 9.155-9.195 9.155" mask="url(#d)" opacity=".344"/>
            <path fill="#F6F6F6" d="M54.747 84.677H10.231c-5.509 0-9.974-4.485-9.974-10.016V24.93c0-5.531 4.465-10.016 9.974-10.016h44.516c5.509 0 9.974 4.485 9.974 10.016V74.66c0 5.531-4.465 10.016-9.974 10.016"/>
        </g>
        <path stroke="#F09F4D" stroke-linecap="round" stroke-width="9.6" d="M15.343 44.5v27.962"/>
        <path stroke="#B4D9E3" stroke-linecap="round" stroke-width="9.6" d="M31.025 34.958v37.504"/>
        <path stroke="#FEDB8E" stroke-linecap="round" stroke-width="9.6" d="M47.1 24.801v47.66"/>
        <path fill="#09B1A5" d="M76.1 42.371c0 5.71-4.648 10.338-10.382 10.338-5.733 0-10.38-4.628-10.38-10.338 0-5.709 4.647-10.337 10.38-10.337 5.734 0 10.382 4.628 10.382 10.337"/>
        <path stroke="#FEFEFE" stroke-linecap="round" stroke-width="1.92" d="M70.248 38.503l-6.43 7.737-2.63-2.56"/>
    </g>
</svg>
