<svg xmlns="http://www.w3.org/2000/svg" width="83" height="85" viewBox="0 0 83 85">
    <g fill="none" fill-rule="evenodd">
        <path fill="#005A70" d="M54.43 70.14H9.318c-4.935 0-8.936-4.089-8.936-9.132V9.911c0-5.043 4-9.131 8.936-9.131H54.43c4.936 0 8.937 4.088 8.937 9.131v51.097c0 5.043-4.001 9.131-8.937 9.131" opacity=".344"/>
        <path fill="#F6F6F6" d="M67.727 84.44H22.616c-4.936 0-8.937-4.088-8.937-9.131V24.212c0-5.043 4-9.131 8.937-9.131h45.111c4.936 0 8.937 4.088 8.937 9.131v51.097c0 5.043-4.001 9.131-8.937 9.131"/>
        <path fill="#86D6D0" d="M29.075 33.672c0 1.974-1.566 3.575-3.499 3.575-1.932 0-3.499-1.6-3.499-3.575 0-1.974 1.567-3.575 3.5-3.575 1.932 0 3.498 1.6 3.498 3.575M29.075 49.403c0 1.974-1.566 3.575-3.499 3.575-1.932 0-3.499-1.6-3.499-3.575s1.567-3.575 3.5-3.575c1.932 0 3.498 1.6 3.498 3.575M29.075 65.134c0 1.974-1.566 3.575-3.499 3.575-1.932 0-3.499-1.6-3.499-3.575s1.567-3.575 3.5-3.575c1.932 0 3.498 1.6 3.498 3.575"/>
        <path stroke="#86D6D0" stroke-linecap="round" stroke-width="3.777" d="M34.674 32.957h20.935M34.674 49.403l10.498.357M34.674 64.776h27.293"/>
        <g fill="#F09F4D">
            <path d="M50.045 46.783a.797.797 0 0 0-.797-.207.82.82 0 0 0-.563.613L46.4 57.696a.838.838 0 0 0 .217.762c.197.197.477.28.746.222l10.282-2.333a.816.816 0 0 0 .6-.576.839.839 0 0 0-.204-.815l-7.996-8.173zM73.712 33.071L56.99 50.161a.399.399 0 0 0 0 .55l2.697 2.76a.765.765 0 0 0 1.08 0L76.95 36.93a.786.786 0 0 0 0-1.102l-2.696-2.757a.377.377 0 0 0-.54 0zM71.463 30.22l-2.698-2.756a.752.752 0 0 0-1.078 0L51.504 44.001a.786.786 0 0 0 0 1.102L54.2 47.86c.15.15.39.15.54 0l16.722-17.088a.394.394 0 0 0 0-.551zM80.96 23.37a6.106 6.106 0 0 0-8.763 0l-1.096 1.119a.807.807 0 0 0 0 1.121l7.668 7.838a.782.782 0 0 0 1.094 0l1.097-1.12c2.416-2.475 2.416-6.483 0-8.959z"/>
        </g>
    </g>
</svg>
