<svg xmlns="http://www.w3.org/2000/svg" xmlns:xlink="http://www.w3.org/1999/xlink" width="79" height="83" viewBox="0 0 79 83">
    <defs>
        <path id="a" d="M.65 1.692h64.382v56.881H.65z"/>
        <path id="b" d="M0 0h78.3v51.226H0z"/>
    </defs>
    <g fill="none" fill-rule="evenodd">
        <path fill="#D1A74A" d="M43.4 42.732L28.684 22.531h-17.78C5.047 22.53.3 27.31.3 33.209v9.523h43.1z"/>
        <path fill="#EA7600" d="M68.036 57.287h-43.21c-3.665 0-6.635-3.404-6.635-7.602V8.007c0-4.198 2.97-7.602 6.634-7.602h43.211c3.665 0 6.634 3.404 6.634 7.602v41.678c0 4.198-2.97 7.602-6.634 7.602" opacity=".3"/>
        <path fill="#F6F6F6" d="M58.326 69.063H19.137c-4.85 0-8.78-3.989-8.78-8.908V15.923c0-4.92 3.93-8.908 8.78-8.908h39.19c4.849 0 8.78 3.988 8.78 8.908v44.232c0 4.92-3.931 8.908-8.78 8.908"/>
        <g transform="translate(.3 34.074)">
            <mask id="c" fill="#fff">
                <use xlink:href="#b"/>
            </mask>
            <path fill="#FFEABB" d="M67.768 48.526H10.531c-5.816 0-10.53-4.484-10.53-10.016V10.016C0 4.484 4.714 0 10.53 0h57.237C73.585 0 78.3 4.484 78.3 10.016V38.51c0 5.532-4.715 10.016-10.532 10.016" mask="url(#c)"/>
        </g>
        <path fill="#EA7600" d="M23.287 23.252a3.6 3.6 0 0 1-3.592 3.608 3.6 3.6 0 0 1-3.591-3.608 3.6 3.6 0 0 1 3.591-3.607 3.6 3.6 0 0 1 3.592 3.607"/>
        <path stroke="#EA7600" stroke-linecap="round" stroke-width="3.84" d="M29.752 22.891h25.86"/>
        <path stroke="#E5BE69" stroke-linecap="round" stroke-width="3.84" d="M26.16 61.852h25.861"/>
    </g>
</svg>
