<svg xmlns="http://www.w3.org/2000/svg" width="80" height="56" viewBox="0 0 80 56">
    <g fill="none" fill-rule="evenodd">
        <path fill="#FFB81C" d="M48.054 56H7.945C3.557 56 0 52.7 0 48.628V7.372C0 3.301 3.557 0 7.945 0h40.11C52.442 0 56 3.3 56 7.372v41.256C56 52.699 52.443 56 48.054 56"/>
        <path fill="#FFF" d="M16.496 15.75a2.872 2.872 0 0 1-2.871 2.874 2.872 2.872 0 0 1-2.87-2.874 2.872 2.872 0 0 1 2.87-2.874 2.872 2.872 0 0 1 2.87 2.874M16.496 28.395a2.872 2.872 0 0 1-2.871 2.874 2.872 2.872 0 0 1-2.87-2.874 2.872 2.872 0 0 1 2.87-2.874 2.872 2.872 0 0 1 2.87 2.874M16.496 41.04a2.872 2.872 0 0 1-2.871 2.875 2.872 2.872 0 0 1-2.87-2.874 2.872 2.872 0 0 1 2.87-2.874 2.872 2.872 0 0 1 2.87 2.874"/>
        <path stroke="#FFF" stroke-linecap="round" stroke-width="3.072" d="M21.089 15.175H43.48M21.089 28.395H43.48M21.089 40.753H43.48"/>
        <g stroke="#EA7600" stroke-width="3.528">
            <path d="M62.981 31.595c2.53 8.228-2.054 16.962-10.24 19.506-8.185 2.542-16.87-2.066-19.4-10.296-2.53-8.23 2.055-16.963 10.24-19.506 8.185-2.543 16.87 2.067 19.4 10.296z"/>
            <path stroke-linecap="round" d="M62.484 42.2L78 51.8"/>
        </g>
    </g>
</svg>
