<?xml version="1.0" encoding="utf-8"?>
<!-- Generator: Adobe Illustrator 22.0.0, SVG Export Plug-In . SVG Version: 6.00 Build 0)  -->
<svg version="1.1" id="Layer_1" xmlns="http://www.w3.org/2000/svg" xmlns:xlink="http://www.w3.org/1999/xlink" x="0px" y="0px"
	 viewBox="0 0 685 433" style="enable-background:new 0 0 685 433;" xml:space="preserve">
<style type="text/css">
	.st0{filter:url(#filter-1);}
	.st1{fill:#E7E7E7;}
	.st2{fill:#003057;}
	.st3{fill:#007FA3;}
	.st4{fill:#12B2A6;}
	.st5{fill:#EA7600;}
	.st6{fill:#DB0020;}
	.st7{fill:#FFB81C;}
	.st8{fill:#84BD00;}
	.st9{fill:#FFFFFF;}
	.st10{fill:#FFFFFF;stroke:#E5E5E5;stroke-width:0.7;}
	.st11{opacity:0.6;fill:none;stroke:#007FA3;stroke-width:3.5;stroke-linecap:round;enable-background:new    ;}
	.st12{opacity:0.4978;fill:none;stroke:#84BD00;stroke-width:4.5;stroke-linecap:round;enable-background:new    ;}
	.st13{opacity:0.6939;fill:none;stroke:#DDDEDF;stroke-width:4.5;stroke-linecap:round;enable-background:new    ;}
	.st14{opacity:0.403;fill:none;stroke:#FFB81C;stroke-width:6.5;stroke-linecap:round;enable-background:new    ;}
	.st15{opacity:0.5;fill:#84BD00;enable-background:new    ;}
	.st16{opacity:0.6939;fill:none;stroke:#DDDEDF;stroke-width:6.5;stroke-linecap:round;enable-background:new    ;}
	.st17{opacity:0.2998;fill:#D2DB0E;enable-background:new    ;}
	.st18{opacity:0.6;fill:none;stroke:#12B2A6;stroke-width:3.5;stroke-linecap:round;enable-background:new    ;}
	.st19{opacity:0.6;fill:none;stroke:#EA7600;stroke-width:3.5;stroke-linecap:round;enable-background:new    ;}
	.st20{opacity:0.8956;fill:#84BD00;enable-background:new    ;}
	.st21{opacity:0.6045;fill:#FFB81C;enable-background:new    ;}
	.st22{fill:#EDEEEE;}
	.st23{opacity:0.4963;fill:#27B5F5;enable-background:new    ;}
	.st24{opacity:0.7;fill:none;stroke:#DDDEDF;stroke-width:3.5;stroke-linecap:round;enable-background:new    ;}
	.st25{fill:#027FA2;}
	.st26{fill:none;stroke:#FFFFFF;stroke-width:0.84;}
	.st27{fill:none;stroke:#FEFEFE;stroke-width:0.84;}
	.st28{fill:none;stroke:#FEFEFE;stroke-width:0.84;stroke-linecap:round;}
	.st29{fill:none;stroke:#FEFEFE;stroke-width:0.56;stroke-linecap:round;}
	.st30{opacity:0.1008;fill:#003057;enable-background:new    ;}
	.st31{opacity:0.5041;fill:none;stroke:#005A70;stroke-width:2.1609;stroke-linecap:round;enable-background:new    ;}
	.st32{opacity:0.534;fill:none;stroke:#0AC1A9;stroke-width:2.1609;stroke-linecap:round;enable-background:new    ;}
	.st33{opacity:0.534;fill:none;stroke:#007FA3;stroke-width:2.1609;stroke-linecap:round;enable-background:new    ;}
	.st34{opacity:0.4036;fill:none;stroke:#003057;stroke-width:2.1609;stroke-linecap:round;enable-background:new    ;}
	.st35{opacity:0.4955;fill:none;stroke:#0AC1A9;stroke-width:9.8392;enable-background:new    ;}
	.st36{opacity:0.5976;fill:none;stroke:#EA7600;stroke-width:9.8392;enable-background:new    ;}
	.st37{fill:none;stroke:#D4EAE4;stroke-width:9.8392;}
	.st38{opacity:0.5;fill:none;stroke:#0AC1A9;stroke-width:3.087;stroke-linecap:round;enable-background:new    ;}
	.st39{opacity:0.4988;fill:none;stroke:#007FA3;stroke-width:3.087;stroke-linecap:round;enable-background:new    ;}
	.st40{opacity:0.3976;fill:none;stroke:#EA7600;stroke-width:3.087;stroke-linecap:round;enable-background:new    ;}
	.st41{opacity:0.5;fill:none;stroke:#12B2A6;stroke-width:3.087;stroke-linecap:round;enable-background:new    ;}
	.st42{fill:none;stroke:#D4EAE4;stroke-width:3.087;stroke-linecap:round;}
</style>
<filter  filterUnits="objectBoundingBox" height="118.5%" id="filter-1" width="113.7%" x="-6.8%" y="-9.3%">
	<feOffset  dx="-4" dy="0" in="SourceAlpha" result="shadowOffsetOuter1"></feOffset>
	<feGaussianBlur  in="shadowOffsetOuter1" result="shadowBlurOuter1" stdDeviation="7"></feGaussianBlur>
	
		<feColorMatrix  in="shadowBlurOuter1" result="shadowMatrixOuter1" type="matrix" values="0 0 0 0 0   0 0 0 0 0   0 0 0 0 0  0 0 0 0.145733173 0">
		</feColorMatrix>
	<feMerge>
		<feMergeNode  in="shadowMatrixOuter1"></feMergeNode>
		<feMergeNode  in="SourceGraphic"></feMergeNode>
	</feMerge>
</filter>
<title>Group 50</title>
<desc>Created with Sketch.</desc>
<g id="Group-48" transform="translate(153.667426, 0.000000)" class="st0">
	<path id="Rectangle_21_" class="st1" d="M14.9,14h501.5c2.7,0,4.9,2.2,4.9,4.9v368c0,2.7-2.2,4.9-4.9,4.9H14.9
		c-2.7,0-4.9-2.2-4.9-4.9v-368C10,16.2,12.2,14,14.9,14z"/>
	<path id="Rectangle_20_" class="st2" d="M14.9,14h501.5c2.7,0,4.9,2.2,4.9,4.9v23.8H10V18.9C10,16.2,12.2,14,14.9,14z"/>
	<path id="Rectangle_19_" class="st3" d="M82.8,88.2h28c3.1,0,5.6,2.5,5.6,5.6v24.5c0,3.1-2.5,5.6-5.6,5.6h-28
		c-3.1,0-5.6-2.5-5.6-5.6V93.8C77.2,90.7,79.8,88.2,82.8,88.2z"/>
	<path id="Rectangle-Copy-14_1_" class="st4" d="M195.6,88.2h28c3.1,0,5.6,2.5,5.6,5.6v24.5c0,3.1-2.5,5.6-5.6,5.6h-28
		c-3.1,0-5.6-2.5-5.6-5.6V93.8C190,90.7,192.5,88.2,195.6,88.2z"/>
	<path id="Rectangle-Copy-15_1_" class="st5" d="M307,88.2h28c3.1,0,5.6,2.5,5.6,5.6v24.5c0,3.1-2.5,5.6-5.6,5.6h-28
		c-3.1,0-5.6-2.5-5.6-5.6V93.8C301.4,90.7,303.9,88.2,307,88.2z"/>
	<g id="Group-29_1_" transform="translate(16.810934, 11.893885)">
		<ellipse id="Oval_12_" class="st6" cx="13.2" cy="17.1" rx="3.2" ry="3.1"/>
		<ellipse id="Oval-Copy-7_1_" class="st7" cx="27.9" cy="17.1" rx="3.2" ry="3.1"/>
		<ellipse id="Oval-Copy-8_1_" class="st8" cx="42.5" cy="17.1" rx="3.2" ry="3.1"/>
	</g>
	<path id="Rectangle_18_" class="st9" d="M52.7,116.8h89c3.1,0,5.6,2.5,5.6,5.6v24.5c0,3.1-2.5,5.6-5.6,5.6h-89
		c-3.1,0-5.6-2.5-5.6-5.6v-24.5C47.1,119.4,49.6,116.8,52.7,116.8z"/>
	<path id="Rectangle-Copy-6_2_" class="st9" d="M165.5,116.8h89c3.1,0,5.6,2.5,5.6,5.6v24.5c0,3.1-2.5,5.6-5.6,5.6h-89
		c-3.1,0-5.6-2.5-5.6-5.6v-24.5C159.9,119.4,162.4,116.8,165.5,116.8z"/>
	<path id="Rectangle-Copy-13_2_" class="st9" d="M276.2,116.8h89c3.1,0,5.6,2.5,5.6,5.6v24.5c0,3.1-2.5,5.6-5.6,5.6h-89
		c-3.1,0-5.6-2.5-5.6-5.6v-24.5C270.6,119.4,273.1,116.8,276.2,116.8z"/>
	<path id="Rectangle_17_" class="st10" d="M39.8,141h450.4c3.1,0,5.6,2.5,5.6,5.6V339c0,3.1-2.5,5.6-5.6,5.6H39.8
		c-3.1,0-5.6-2.5-5.6-5.6V146.6C34.2,143.5,36.7,141,39.8,141z"/>
	<path id="Line-2_3_" class="st11" d="M68.8,130.5h56.7"/>
	<path id="Line-2-Copy-3_4_" class="st12" d="M94.1,173.9h333.7"/>
	<path id="Line-2-Copy-5_1_" class="st13" d="M94.1,287.9h333.7"/>
	<path id="Line-2-Copy-6_1_" class="st13" d="M94.1,319.4h333.7"/>
	<g id="Group-46_1_" transform="translate(219.242597, 181.206835)">
		<path id="Line-2-Copy-4_5_" class="st14" d="M10.2,24.3h121.3"/>
		<path id="Rectangle_16_" class="st15" d="M147.7,14h34.6c3.1,0,5.6,2.5,5.6,5.6v7.7c0,3.1-2.5,5.6-5.6,5.6h-34.6
			c-3.1,0-5.6-2.5-5.6-5.6v-7.7C142.1,16.5,144.6,14,147.7,14z"/>
	</g>
	<g id="Group-46-Copy_1_" transform="translate(219.242597, 210.591727)">
		<path id="Line-2-Copy-4_4_" class="st16" d="M10.2,24.3h121.3"/>
		<path id="Rectangle_15_" class="st17" d="M147.7,14h34.6c3.1,0,5.6,2.5,5.6,5.6v7.7c0,3.1-2.5,5.6-5.6,5.6h-34.6
			c-3.1,0-5.6-2.5-5.6-5.6v-7.7C142.1,16.5,144.6,14,147.7,14z"/>
	</g>
	<g id="Group-46-Copy-2_1_" transform="translate(219.242597, 239.976619)">
		<path id="Line-2-Copy-4_3_" class="st16" d="M10.2,24.3h121.3"/>
		<path id="Rectangle_14_" class="st17" d="M147.7,14h34.6c3.1,0,5.6,2.5,5.6,5.6v7.7c0,3.1-2.5,5.6-5.6,5.6h-34.6
			c-3.1,0-5.6-2.5-5.6-5.6v-7.7C142.1,16.5,144.6,14,147.7,14z"/>
	</g>
	<path id="Line-2-Copy_2_" class="st18" d="M180.9,130.5h56.7"/>
	<path id="Line-2-Copy-2_2_" class="st19" d="M293,130.5h56.7"/>
	<ellipse id="Oval_11_" class="st20" cx="68.5" cy="173.2" rx="3.9" ry="3.8"/>
	<ellipse id="Oval-Copy-16_1_" class="st21" cx="216.3" cy="205.4" rx="3.9" ry="3.8"/>
	<ellipse id="Oval-Copy-17_1_" class="st22" cx="216.3" cy="233.7" rx="3.9" ry="3.8"/>
	<ellipse id="Oval-Copy-18_1_" class="st22" cx="216.3" cy="263.8" rx="3.9" ry="3.8"/>
	<ellipse id="Oval-Copy-12_1_" class="st23" cx="68.5" cy="287.2" rx="3.9" ry="3.8"/>
	<ellipse id="Oval-Copy-13_1_" class="st23" cx="68.5" cy="319.4" rx="3.9" ry="3.8"/>
	<rect id="Rectangle_13_" x="10" y="42" class="st9" width="511.3" height="28"/>
	<rect id="Rectangle-Copy-17_1_" x="10" y="363.8" class="st9" width="511.3" height="28"/>
	<path id="Line-2-Copy-3_3_" class="st24" d="M77.2,57.7h39.2"/>
	<path id="Line-2-Copy-7_2_" class="st24" d="M131.9,57.7h39.2"/>
	<path id="Line-2-Copy-8_2_" class="st24" d="M185.8,57.7H225"/>
	<path id="Line-2-Copy-9_2_" class="st24" d="M239.7,57.7H279"/>
	<ellipse id="Oval_10_" class="st25" cx="47.8" cy="56" rx="8.4" ry="8.4"/>
	<g id="Group-47_1_" transform="translate(77.050114, 76.960432)">
		
			<ellipse id="Oval_9_" transform="matrix(0.5 -0.866 0.866 0.5 -11.3167 30.0878)" class="st26" cx="20.4" cy="24.8" rx="9.3" ry="3.7"/>
		
			<ellipse id="Oval_8_" transform="matrix(0.866 -0.5 0.5 0.866 -9.6893 13.5277)" class="st26" cx="20.4" cy="24.8" rx="3.7" ry="9.3"/>
		<ellipse id="Oval_6_" class="st26" cx="20.2" cy="24.8" rx="9.5" ry="3.4"/>
	</g>
	<g id="Group-9_1_" transform="translate(190.523918, 78.359712)">
		<path id="Stroke-1_3_" class="st27" d="M25.6,30.3l-4.8-9.5v-3.4c0-0.3,0.3-0.6,0.6-0.6c0.3,0,0.6-0.3,0.6-0.6v-1.4
			c0-0.3-0.3-0.6-0.6-0.6h-6.9c-0.3,0-0.6,0.3-0.6,0.6v1.4c0,0.3,0.3,0.6,0.6,0.6s0.6,0.3,0.6,0.6v3.4l-4.8,9.5
			c-0.9,1.8,0.4,4,2.5,4h10.2C25.2,34.2,26.6,32.1,25.6,30.3z"/>
		<path id="Stroke-3_3_" class="st27" d="M12.7,25.8c2.4,0.4,4.6,1.2,7,1.5c1.4,0.2,3,0.2,4.3-0.2"/>
		<path id="Stroke-5_3_" class="st27" d="M19.5,22.9c0,1-0.8,1.7-1.8,1.7c-1,0-1.8-0.8-1.8-1.7c0-1,0.8-1.7,1.8-1.7
			C18.7,21.2,19.5,22,19.5,22.9z"/>
		<path id="Stroke-7_3_" class="st27" d="M19.3,18.3c0,0.4-0.3,0.8-0.8,0.8s-0.8-0.3-0.8-0.8s0.3-0.8,0.8-0.8S19.3,17.9,19.3,18.3z"
			/>
	</g>
	
		<g id="Group-15_1_" transform="translate(312.889309, 87.837501) rotate(41.000000) translate(-312.889309, -87.837501) translate(306.935436, 76.643256)">
		<path id="Stroke-1_2_" class="st27" d="M25.3,8.8c0,1.5-1.2,2.8-2.7,2.8c-1.5,0-2.7-1.2-2.7-2.8S21.1,6,22.6,6
			C24.1,6,25.3,7.3,25.3,8.8z"/>
		<path id="Stroke-3_2_" class="st28" d="M21.3,11.2L17,25.9"/>
		<path id="Stroke-5_2_" class="st28" d="M23.9,11.2l4.3,14.7"/>
		<path id="Stroke-7_2_" class="st29" d="M22.6,6l0-1.7"/>
		<path id="Stroke-9_1_" class="st28" d="M22.6,20.1l0-1.7"/>
		<path id="Stroke-11_1_" class="st28" d="M17.6,18.3l9.9,0"/>
		<path id="Stroke-13_1_" class="st27" d="M23.9,8.8c0,0.7-0.6,1.3-1.3,1.3c-0.7,0-1.3-0.6-1.3-1.3c0-0.7,0.6-1.3,1.3-1.3
			C23.3,7.4,23.9,8,23.9,8.8z"/>
	</g>
</g>
<path id="Rectangle_9_" class="st1" d="M13,191.1H344c1.7,0,3,1.4,3,3v221.9c0,1.7-1.4,3-3,3H13c-1.7,0-3-1.4-3-3V194.1
	C10,192.5,11.4,191.1,13,191.1z"/>
<path id="Rectangle_10_" class="st30" d="M38.5,225.1h59.1c1.9,0,3.5,1.5,3.5,3.5v17.1c0,1.9-1.5,3.5-3.5,3.5H38.5
	c-1.9,0-3.5-1.5-3.5-3.5v-17.1C35,226.6,36.5,225.1,38.5,225.1z"/>
<path id="Rectangle-Copy-6_1_" class="st30" d="M112.5,225.1h59.1c1.9,0,3.5,1.5,3.5,3.5v17.1c0,1.9-1.5,3.5-3.5,3.5h-59.1
	c-1.9,0-3.5-1.5-3.5-3.5v-17.1C109,226.6,110.5,225.1,112.5,225.1z"/>
<path id="Rectangle-Copy-13_1_" class="st30" d="M185.5,225.1h59.1c1.9,0,3.5,1.5,3.5,3.5v17.1c0,1.9-1.5,3.5-3.5,3.5h-59.1
	c-1.9,0-3.5-1.5-3.5-3.5v-17.1C182,226.6,183.5,225.1,185.5,225.1z"/>
<rect id="Rectangle_11_" x="25.4" y="241.4" class="st10" width="303.3" height="165.3"/>
<path id="Line-2_1_" class="st31" d="M49,235.6h37"/>
<path id="Line-2-Copy_1_" class="st32" d="M122,235.6h37"/>
<path id="Line-2-Copy-2_1_" class="st33" d="M197,235.6h37"/>
<rect id="Rectangle_12_" x="10" y="192.1" class="st9" width="337" height="18"/>
<path id="Line-2-Copy-3_2_" class="st34" d="M50,202.6h25"/>
<path id="Line-2-Copy-7_1_" class="st34" d="M85,202.6h25"/>
<path id="Line-2-Copy-8_1_" class="st34" d="M121,202.6h25"/>
<path id="Line-2-Copy-9_1_" class="st34" d="M156,202.6h25"/>
<path id="Oval_7_" class="st35" d="M72.1,294.1c-10.2,1-18.1,9.6-18.1,20c0,11.1,9,20.1,20.1,20.1c10.4,0,19-8,20-18.1"/>
<path id="Oval-Copy-14_1_" class="st36" d="M174.4,294.1c-9.8,1.3-17.4,9.7-17.4,19.9c0,11.1,9,20.1,20.1,20.1
	c6.7,0,12.8-3.3,16.5-8.7"/>
<path id="Oval-Copy-15_1_" class="st37" d="M271.1,293.9c-10.7,0.5-19.2,9.3-19.2,20.1c0,11.1,9,20.1,20.1,20.1s20.1-9,20.1-20.1
	c0-5.2-2-10.1-5.5-13.8"/>
<path id="Line-2_2_" class="st38" d="M46,352.6h54"/>
<path id="Line-2-Copy-15" class="st39" d="M46,268.6h164.3"/>
<path id="Line-2-Copy-11" class="st40" d="M150,352.5h54"/>
<path id="Line-2-Copy-10" class="st41" d="M56,365.6h34"/>
<path id="Line-2-Copy-12" class="st40" d="M160,365.5h34"/>
<path id="Line-2-Copy-14" class="st42" d="M245,352.5h54"/>
<path id="Line-2-Copy-13" class="st42" d="M256,365.5h34"/>
</svg>
