<?xml version="1.0" encoding="utf-8"?>
<!-- Generator: Adobe Illustrator 22.0.0, SVG Export Plug-In . SVG Version: 6.00 Build 0)  -->
<svg version="1.1" id="Layer_1" xmlns="http://www.w3.org/2000/svg" xmlns:xlink="http://www.w3.org/1999/xlink" x="0px" y="0px"
	 viewBox="0 0 637 433" style="enable-background:new 0 0 637 433;" xml:space="preserve">
<style type="text/css">
	.st0{filter:url(#a);}
	.st1{fill:#E7E7E7;}
	.st2{fill:#003057;}
	.st3{fill:#007FA3;}
	.st4{fill:#12B2A6;}
	.st5{fill:#EA7600;}
	.st6{fill:#DB0020;}
	.st7{fill:#FFB81C;}
	.st8{fill:#84BD00;}
	.st9{fill:#FFFFFF;}
	.st10{fill:#FFFFFF;stroke:#E5E5E5;stroke-width:0.7;}
	.st11{opacity:0.6;fill:none;stroke:#007FA3;stroke-width:3.5;stroke-linecap:round;enable-background:new    ;}
	.st12{opacity:0.498;fill:none;stroke:#84BD00;stroke-width:4.5;stroke-linecap:round;enable-background:new    ;}
	.st13{opacity:0.694;fill:none;stroke:#DDDEDF;stroke-width:4.5;stroke-linecap:round;enable-background:new    ;}
	.st14{opacity:0.403;fill:none;stroke:#FFB81C;stroke-width:6.5;stroke-linecap:round;enable-background:new    ;}
	.st15{opacity:0.5;fill:#84BD00;enable-background:new    ;}
	.st16{opacity:0.694;fill:none;stroke:#DDDEDF;stroke-width:6.5;stroke-linecap:round;enable-background:new    ;}
	.st17{opacity:0.3;fill:#D2DB0E;enable-background:new    ;}
	.st18{opacity:0.6;fill:none;stroke:#12B2A6;stroke-width:3.5;stroke-linecap:round;enable-background:new    ;}
	.st19{opacity:0.6;fill:none;stroke:#EA7600;stroke-width:3.5;stroke-linecap:round;enable-background:new    ;}
	.st20{opacity:0.896;fill:#84BD00;enable-background:new    ;}
	.st21{opacity:0.605;fill:#FFB81C;enable-background:new    ;}
	.st22{fill:#EDEEEE;}
	.st23{opacity:0.496;fill:#27B5F5;enable-background:new    ;}
	.st24{opacity:0.7;fill:none;stroke:#DDDEDF;stroke-width:3.5;stroke-linecap:round;enable-background:new    ;}
	.st25{fill:#027FA2;}
	.st26{fill:none;stroke:#FFFFFF;stroke-width:0.84;}
	.st27{fill:none;stroke:#FEFEFE;stroke-width:0.84;}
	.st28{fill:none;stroke:#FEFEFE;stroke-width:0.84;stroke-linecap:round;}
	.st29{fill:none;stroke:#FEFEFE;stroke-width:0.56;stroke-linecap:round;}
	.st30{filter:url(#b);}
	.st31{opacity:0.101;fill:#003057;enable-background:new    ;}
	.st32{opacity:0.504;fill:none;stroke:#005A70;stroke-width:2.161;stroke-linecap:round;enable-background:new    ;}
	.st33{opacity:0.534;fill:none;stroke:#0AC1A9;stroke-width:2.161;stroke-linecap:round;enable-background:new    ;}
	.st34{opacity:0.534;fill:none;stroke:#007FA3;stroke-width:2.161;stroke-linecap:round;enable-background:new    ;}
	.st35{opacity:0.404;fill:none;stroke:#003057;stroke-width:2.161;stroke-linecap:round;enable-background:new    ;}
	.st36{opacity:0.496;fill:none;stroke:#0AC1A9;stroke-width:9.839;enable-background:new    ;}
	.st37{opacity:0.598;fill:none;stroke:#EA7600;stroke-width:9.839;enable-background:new    ;}
	.st38{fill:none;stroke:#D4EAE4;stroke-width:9.839;}
	.st39{opacity:0.5;fill:none;stroke:#0AC1A9;stroke-width:3.087;stroke-linecap:round;enable-background:new    ;}
	.st40{opacity:0.499;fill:none;stroke:#007FA3;stroke-width:3.087;stroke-linecap:round;enable-background:new    ;}
	.st41{opacity:0.398;fill:none;stroke:#EA7600;stroke-width:3.087;stroke-linecap:round;enable-background:new    ;}
	.st42{opacity:0.5;fill:none;stroke:#12B2A6;stroke-width:3.087;stroke-linecap:round;enable-background:new    ;}
	.st43{fill:none;stroke:#D4EAE4;stroke-width:3.087;stroke-linecap:round;}
</style>
<filter  filterUnits="objectBoundingBox" height="130.6%" id="b" width="120.8%" x="-10.4%" y="-15.3%">
	<feOffset  dx="4" in="SourceAlpha" result="shadowOffsetOuter1"></feOffset>
	<feGaussianBlur  in="shadowOffsetOuter1" result="shadowBlurOuter1" stdDeviation="7"></feGaussianBlur>
	<feColorMatrix  in="shadowBlurOuter1" result="shadowMatrixOuter1" values="0 0 0 0 0 0 0 0 0 0 0 0 0 0 0 0 0 0 0.202219203 0">
		</feColorMatrix>
	<feMerge>
		<feMergeNode  in="shadowMatrixOuter1"></feMergeNode>
		<feMergeNode  in="SourceGraphic"></feMergeNode>
	</feMerge>
</filter>
<filter  filterUnits="objectBoundingBox" height="118.5%" id="a" width="113.7%" x="-6.8%" y="-9.3%">
	<feOffset  dx="-4" in="SourceAlpha" result="shadowOffsetOuter1"></feOffset>
	<feGaussianBlur  in="shadowOffsetOuter1" result="shadowBlurOuter1" stdDeviation="7"></feGaussianBlur>
	<feColorMatrix  in="shadowBlurOuter1" result="shadowMatrixOuter1" values="0 0 0 0 0 0 0 0 0 0 0 0 0 0 0 0 0 0 0.145733173 0">
		</feColorMatrix>
	<feMerge>
		<feMergeNode  in="shadowMatrixOuter1"></feMergeNode>
		<feMergeNode  in="SourceGraphic"></feMergeNode>
	</feMerge>
</filter>
<g>
	<g transform="translate(163.667 14)" class="st0">
		<path class="st1" d="M4.9,0h501.5c2.7,0,4.9,2.2,4.9,4.9v368c0,2.7-2.2,4.9-4.9,4.9H4.9c-2.7,0-4.9-2.2-4.9-4.9V4.9
			C0,2.2,2.2,0,4.9,0z"/>
		<path class="st2" d="M4.9,0h501.5c2.7,0,4.9,2.2,4.9,4.9v23.8H0V4.9C0,2.2,2.2,0,4.9,0C4.9,0,4.9,0,4.9,0z"/>
		<path class="st3" d="M72.8,74.2h28c3.1,0,5.6,2.5,5.6,5.6v24.5c0,3.1-2.5,5.6-5.6,5.6h-28c-3.1,0-5.6-2.5-5.6-5.6V79.8
			C67.2,76.7,69.8,74.2,72.8,74.2z"/>
		<path class="st4" d="M185.6,74.2h28c3.1,0,5.6,2.5,5.6,5.6v24.5c0,3.1-2.5,5.6-5.6,5.6h-28c-3.1,0-5.6-2.5-5.6-5.6V79.8
			C180,76.7,182.5,74.2,185.6,74.2z"/>
		<path class="st5" d="M297,74.2h28c3.1,0,5.6,2.5,5.6,5.6v24.5c0,3.1-2.5,5.6-5.6,5.6h-28c-3.1,0-5.6-2.5-5.6-5.6V79.8
			C291.4,76.7,293.9,74.2,297,74.2z"/>
		<g transform="translate(16.81 11.894)">
			<ellipse class="st6" cx="3.2" cy="3.1" rx="3.2" ry="3.1"/>
			<ellipse class="st7" cx="17.9" cy="3.1" rx="3.2" ry="3.1"/>
			<ellipse class="st8" cx="32.5" cy="3.1" rx="3.2" ry="3.1"/>
		</g>
		<path class="st9" d="M42.7,102.8h89c3.1,0,5.6,2.5,5.6,5.6v24.5c0,3.1-2.5,5.6-5.6,5.6h-89c-3.1,0-5.6-2.5-5.6-5.6v-24.5
			C37.1,105.4,39.6,102.8,42.7,102.8z"/>
		<path class="st9" d="M155.5,102.8h89c3.1,0,5.6,2.5,5.6,5.6v24.5c0,3.1-2.5,5.6-5.6,5.6h-89c-3.1,0-5.6-2.5-5.6-5.6v-24.5
			C149.9,105.4,152.4,102.8,155.5,102.8z"/>
		<path class="st9" d="M266.2,102.8h89c3.1,0,5.6,2.5,5.6,5.6v24.5c0,3.1-2.5,5.6-5.6,5.6h-89c-3.1,0-5.6-2.5-5.6-5.6v-24.5
			C260.6,105.4,263.1,102.8,266.2,102.8z"/>
		<path class="st10" d="M29.8,127h450.4c3.1,0,5.6,2.5,5.6,5.6V325c0,3.1-2.5,5.6-5.6,5.6H29.8c-3.1,0-5.6-2.5-5.6-5.6V132.6
			C24.2,129.5,26.7,127,29.8,127z"/>
		<path class="st11" d="M58.8,116.5h56.7"/>
		<path class="st12" d="M84.1,159.9h333.7"/>
		<path class="st13" d="M84.1,273.9h333.7 M84.1,305.4h333.7"/>
		<g transform="translate(219.243 181.207)">
			<path class="st14" d="M0.2,10.3h121.3"/>
			<path class="st15" d="M137.7,0h34.6c3.1,0,5.6,2.5,5.6,5.6v7.7c0,3.1-2.5,5.6-5.6,5.6h-34.6c-3.1,0-5.6-2.5-5.6-5.6V5.6
				C132.1,2.5,134.6,0,137.7,0z"/>
		</g>
		<g transform="translate(219.243 210.592)">
			<path class="st16" d="M0.2,10.3h121.3"/>
			<path class="st17" d="M137.7,0h34.6c3.1,0,5.6,2.5,5.6,5.6v7.7c0,3.1-2.5,5.6-5.6,5.6h-34.6c-3.1,0-5.6-2.5-5.6-5.6V5.6
				C132.1,2.5,134.6,0,137.7,0z"/>
		</g>
		<g transform="translate(219.243 239.977)">
			<path class="st16" d="M0.2,10.3h121.3"/>
			<path class="st17" d="M137.7,0h34.6c3.1,0,5.6,2.5,5.6,5.6v7.7c0,3.1-2.5,5.6-5.6,5.6h-34.6c-3.1,0-5.6-2.5-5.6-5.6V5.6
				C132.1,2.5,134.6,0,137.7,0z"/>
		</g>
		<path class="st18" d="M170.9,116.5h56.7"/>
		<path class="st19" d="M283,116.5h56.7"/>
		<ellipse class="st20" cx="58.5" cy="159.2" rx="3.9" ry="3.8"/>
		<ellipse class="st21" cx="206.3" cy="191.4" rx="3.9" ry="3.8"/>
		<ellipse class="st22" cx="206.3" cy="219.7" rx="3.9" ry="3.8"/>
		<ellipse class="st22" cx="206.3" cy="249.8" rx="3.9" ry="3.8"/>
		<ellipse class="st23" cx="58.5" cy="273.2" rx="3.9" ry="3.8"/>
		<ellipse class="st23" cx="58.5" cy="305.4" rx="3.9" ry="3.8"/>
		<path class="st9" d="M0,28h511.3v28H0V28z M0,349.8h511.3v28H0V349.8z"/>
		<path class="st24" d="M67.2,43.7h39.2 M121.9,43.7h39.2 M175.8,43.7H215 M229.8,43.7H269"/>
		<ellipse class="st25" cx="37.8" cy="42" rx="8.4" ry="8.4"/>
		<g transform="translate(77.05 76.96)">
			<ellipse transform="matrix(0.5 -0.866 0.866 0.5 -4.1922 14.4269)" class="st26" cx="10.4" cy="10.8" rx="9.3" ry="3.7"/>
			<ellipse transform="matrix(0.866 -0.5 0.5 0.866 -4.0289 6.6518)" class="st26" cx="10.4" cy="10.8" rx="3.7" ry="9.3"/>
			<ellipse class="st26" cx="10.2" cy="10.8" rx="9.5" ry="3.4"/>
		</g>
		<g>
			<path class="st27" d="M206.2,94.6l-4.8-9.5v-3.4c0-0.3,0.3-0.6,0.6-0.6c0.3,0,0.6-0.3,0.6-0.6c0,0,0,0,0,0v-1.4
				c0-0.3-0.3-0.6-0.6-0.6c0,0,0,0,0,0h-6.9c-0.3,0-0.6,0.3-0.6,0.6c0,0,0,0,0,0v1.4c0,0.3,0.3,0.6,0.6,0.6s0.6,0.3,0.6,0.6v3.4
				l-4.8,9.5c-0.9,1.8,0.4,4,2.5,4h10.2C205.7,98.6,207.1,96.5,206.2,94.6L206.2,94.6z"/>
			<path class="st27" d="M193.2,90.2c2.4,0.4,4.6,1.2,7,1.5c1.4,0.2,3,0.2,4.3-0.2 M200,87.3c0,1-0.8,1.7-1.8,1.7
				c-1,0-1.8-0.8-1.8-1.7s0.8-1.7,1.8-1.7C199.2,85.6,200,86.3,200,87.3z M199.8,82.7c0,0.4-0.3,0.8-0.8,0.8c-0.4,0-0.8-0.3-0.8-0.8
				c0-0.4,0.3-0.8,0.8-0.8C199.5,81.9,199.8,82.2,199.8,82.7L199.8,82.7z"/>
		</g>
		<g>
			<path class="st27" d="M319.1,84.7c-1,1.2-2.7,1.3-3.9,0.3c-1.1-1-1.2-2.7-0.2-3.9c1-1.2,2.7-1.3,3.9-0.3
				C320,81.8,320.1,83.6,319.1,84.7z"/>
			<path class="st28" d="M314.5,83.9l-12.9,8.3 M316.4,85.6L310,99.5"/>
			<path class="st29" d="M318.9,80.9l1.1-1.3"/>
			<path class="st28" d="M309.6,91.5l1.1-1.3 M307.1,86.9l7.5,6.5"/>
			<path class="st27" d="M318,83.8c-0.5,0.6-1.3,0.6-1.9,0.1c-0.5-0.5-0.6-1.3-0.1-1.9c0.5-0.6,1.3-0.6,1.9-0.1
				C318.5,82.4,318.5,83.2,318,83.8L318,83.8z"/>
		</g>
	</g>
	<g transform="translate(10 191)" class="st30">
		<path class="st1" d="M3,0.1h331c1.7,0,3,1.4,3,3v222c0,1.7-1.4,3-3,3H3c-1.7,0-3-1.4-3-3V3.1C0,1.5,1.4,0.1,3,0.1z"/>
		<path class="st31" d="M28.5,34.1h59.1c1.9,0,3.5,1.5,3.5,3.5v17.1c0,1.9-1.5,3.5-3.5,3.5H28.5c-1.9,0-3.5-1.5-3.5-3.5V37.6
			C25,35.6,26.5,34.1,28.5,34.1z"/>
		<path class="st31" d="M102.5,34.1h59.1c1.9,0,3.5,1.5,3.5,3.5v17.1c0,1.9-1.5,3.5-3.5,3.5h-59.1c-1.9,0-3.5-1.5-3.5-3.5V37.6
			C99,35.6,100.5,34.1,102.5,34.1z"/>
		<path class="st31" d="M175.5,34.1h59.1c1.9,0,3.5,1.5,3.5,3.5v17.1c0,1.9-1.5,3.5-3.5,3.5h-59.1c-1.9,0-3.5-1.5-3.5-3.5V37.6
			C172,35.6,173.5,34.1,175.5,34.1z"/>
		<path class="st10" d="M15.4,50.3h303.3v165.3H15.4V50.3z"/>
		<path class="st32" d="M39,44.6h37"/>
		<path class="st33" d="M112,44.6h37"/>
		<path class="st34" d="M187,44.6h37"/>
		<path class="st9" d="M0,1.1h337v18H0V1.1z"/>
		<path class="st35" d="M40,11.6h25 M75,11.6h25 M111,11.6h25 M146,11.6h25"/>
		<path class="st36" d="M62.1,103.1c-10.2,1-18.1,9.6-18.1,20c0,11.1,9,20.1,20.1,20.1c10.4,0,19-8,20-18.1"/>
		<path class="st37" d="M164.4,103.1c-10.3,1.4-18.1,10.5-17.4,21.3c0.6,9.3,7.8,17.1,17.1,18.5c7.8,1.1,15.2-2.3,19.5-8.5"/>
		<path class="st38" d="M261.1,102.9L261.1,102.9c-10.7,0.5-19.2,9.3-19.2,20.1c0,11.1,9,20.1,20.1,20.1s20.1-9,20.1-20.1
			c0-5.2-2-10.1-5.5-13.8"/>
		<path class="st39" d="M36,161.6h54"/>
		<path class="st40" d="M36,77.6h164.3"/>
		<path class="st41" d="M140,161.5h54"/>
		<path class="st42" d="M46,174.6h34"/>
		<path class="st41" d="M150,174.5h34"/>
		<path class="st43" d="M235,161.5h54 M246,174.5h34"/>
	</g>
</g>
</svg>
